<?xml version="1.0" standalone="no"?>
<!DOCTYPE svg PUBLIC "-//W3C//DTD SVG 20010904//EN"
 "http://www.w3.org/TR/2001/REC-SVG-20010904/DTD/svg10.dtd">
<svg version="1.0" xmlns="http://www.w3.org/2000/svg"
 width="160pt" height="160pt" viewBox="0 0 600.000000 600.000000"
 preserveAspectRatio="xMidYMid meet">

<g transform="translate(0.000000,600.000000) scale(0.100000,-0.100000)"
fill="rgb(120, 71, 65)" stroke="none">
<path d="M1155 5400 c-462 -98 -878 -186 -925 -196 -70 -14 -91 -23 -117 -50
-20 -19 -33 -42 -33 -58 0 -14 156 -765 346 -1668 190 -904 346 -1653 347
-1666 2 -21 -10 -28 -113 -66 -226 -84 -352 -166 -403 -261 -19 -35 -22 -56
-22 -165 0 -110 3 -130 22 -166 191 -358 1677 -616 3183 -554 1229 51 2156
274 2302 554 31 58 38 236 13 303 -42 109 -168 197 -411 287 l-111 41 348
1655 c192 910 349 1665 349 1678 0 33 -24 76 -52 90 -27 14 -1869 402 -1909
402 -15 0 -41 -11 -57 -25 -30 -25 -36 -42 -67 -192 l-7 -33 -834 0 c-816 0
-834 0 -834 19 0 11 -9 60 -21 110 -24 107 -54 142 -117 140 -20 -1 -415 -81
-877 -179z m939 140 c20 -19 19 -19 -17 -8 -33 10 -133 -9 -983 -188 -891
-187 -949 -201 -975 -226 -21 -22 -26 -24 -22 -9 15 57 1 53 985 262 539 114
946 196 963 193 16 -2 39 -13 49 -24z m2812 -185 c511 -108 941 -200 955 -206
23 -9 35 -25 58 -74 2 -5 -7 2 -21 17 -14 15 -43 31 -64 37 -128 33 -1862 392
-1879 388 -11 -2 -29 -8 -40 -13 -18 -7 -19 -6 -5 10 13 16 43 34 61 35 4 1
425 -87 935 -194z m-2819 155 c19 -11 35 -31 39 -47 3 -15 12 -54 20 -86 8
-32 14 -61 14 -63 0 -2 -25 -4 -55 -4 -30 0 -55 5 -55 10 0 6 -14 10 -30 10
-29 0 -71 30 -81 57 -3 8 -276 -46 -821 -160 l-818 -172 0 -28 c0 -26 -32 -69
-58 -78 -8 -3 92 -495 316 -1559 l327 -1554 35 -7 c31 -7 63 -33 72 -60 2 -7
73 4 198 31 556 118 746 157 753 153 4 -2 7 -26 7 -53 0 -45 -2 -49 -27 -54
-16 -3 -253 -53 -528 -111 -274 -58 -505 -105 -511 -105 -27 0 -72 50 -79 87
-3 21 -24 124 -46 228 -22 105 -60 287 -85 405 -25 118 -61 285 -79 370 -31
141 -76 354 -186 885 -22 105 -59 282 -84 395 -24 113 -62 291 -84 395 -22
105 -63 297 -91 428 -47 220 -49 239 -36 266 9 16 23 32 33 36 18 8 1866 402
1893 404 8 0 30 -8 47 -19z m2807 -195 c512 -108 944 -201 959 -207 15 -6 35
-24 43 -39 13 -27 -6 -125 -325 -1641 -187 -887 -346 -1646 -355 -1687 -22
-107 -60 -139 -144 -120 -20 4 -68 15 -107 24 -38 8 -81 18 -95 20 -32 6 -352
73 -405 85 -48 11 -143 31 -280 60 -55 12 -107 23 -116 26 -11 3 -16 19 -18
54 -1 28 0 50 3 50 3 0 220 -45 483 -100 347 -73 479 -97 482 -88 9 26 51 58
78 58 l28 0 99 473 c54 259 202 960 327 1557 128 605 224 1086 219 1088 -26 9
-52 41 -59 72 l-7 35 -814 172 c-535 112 -816 167 -819 160 -2 -6 -14 -21 -27
-34 -20 -20 -33 -23 -104 -23 -57 0 -80 4 -80 13 0 11 9 51 25 125 4 18 56 62
74 62 2 0 422 -88 935 -195z m-2951 42 c9 -13 30 -30 47 -37 23 -9 28 -15 18
-21 -23 -15 -45 -10 -76 16 l-30 25 -772 -162 c-749 -157 -773 -163 -783 -188
-6 -14 -21 -37 -34 -51 l-24 -26 318 -1513 318 -1512 30 -15 c16 -9 40 -24 52
-35 l21 -20 439 92 c241 50 448 94 461 97 17 4 22 1 22 -14 0 -16 -52 -29
-469 -117 l-469 -99 -28 31 c-17 18 -42 33 -58 35 l-29 3 -325 1542 -324 1542
31 25 c17 15 33 40 36 58 l6 32 787 167 c433 91 794 166 803 167 9 1 24 -10
32 -22z m2964 -168 l782 -164 6 -32 c3 -18 19 -43 37 -58 l30 -26 -324 -1542
-325 -1542 -31 -3 c-20 -2 -40 -14 -57 -34 l-26 -31 -471 99 c-438 92 -497
108 -475 130 3 3 213 -38 467 -91 l461 -97 22 20 c12 11 36 26 52 35 l30 15
318 1512 318 1512 -23 27 c-14 14 -29 37 -35 51 -10 24 -37 31 -783 187 l-772
163 -30 -26 c-17 -14 -38 -24 -46 -22 -21 4 -28 28 -8 28 8 0 26 14 38 31 16
21 29 29 43 26 11 -2 372 -78 802 -168z m-2972 105 c30 -22 33 -29 24 -50 -5
-14 -9 -80 -9 -146 l0 -120 -37 7 c-108 20 -216 107 -265 212 -17 35 -29 66
-27 67 6 6 232 54 257 55 13 1 39 -11 57 -25z m2064 -20 c38 -31 42 -54 5 -25
-27 21 -30 21 -1004 21 -974 0 -977 0 -1004 -21 -37 -29 -32 -7 6 25 l32 26
967 0 967 0 31 -26z m262 0 c68 -15 126 -28 128 -30 2 -2 -10 -31 -26 -66 -50
-107 -164 -197 -270 -214 l-42 -6 -3 143 -3 144 30 27 c17 15 37 27 46 28 9 0
72 -12 140 -26z m-2637 -60 c19 -56 74 -133 123 -170 45 -34 138 -73 176 -74
l27 0 0 -115 0 -116 -35 -31 c-20 -17 -47 -50 -61 -73 -26 -46 -44 -55 -113
-55 -163 0 -340 111 -457 286 -49 74 -152 290 -142 299 5 4 421 92 445 94 17
1 24 -9 37 -45z m2350 36 c60 -22 56 105 56 -1783 0 -1344 -2 -1731 -12 -1746
-6 -11 -23 -24 -35 -30 -33 -15 -1933 -15 -1966 0 -12 6 -29 19 -35 30 -10 15
-13 397 -12 1746 0 1878 -3 1760 53 1783 30 12 1919 13 1951 0z m663 -56 c120
-25 220 -47 222 -50 6 -6 -38 -121 -71 -189 -106 -213 -259 -347 -436 -384
-116 -24 -163 -13 -197 44 -13 24 -43 59 -65 78 l-41 35 3 108 3 108 42 8
c132 22 253 126 293 251 6 20 16 37 21 37 5 0 107 -21 226 -46z m-3511 -81
c10 -66 -2 -266 -21 -343 -46 -190 -174 -343 -329 -396 -46 -16 -47 -16 -81
10 -48 37 -97 56 -144 56 -49 0 -57 -11 -28 -37 37 -34 83 -53 147 -60 58 -6
62 -8 95 -53 68 -92 115 -231 115 -340 0 -153 -84 -344 -212 -485 -54 -59 -43
-78 -97 180 -49 233 -132 623 -171 807 -34 155 -35 168 -17 168 31 0 138 64
175 104 75 82 121 212 106 303 l-6 38 219 47 c120 25 223 47 230 47 7 1 15
-19 19 -46z m4012 -24 l214 -44 -6 -35 c-15 -92 31 -225 105 -304 39 -43 142
-106 173 -106 9 0 16 -7 16 -15 0 -16 -237 -1151 -245 -1173 -9 -25 -109 93
-173 203 -125 216 -117 465 23 655 33 45 37 47 93 52 62 6 125 33 156 67 17
19 17 21 2 27 -34 13 -110 -6 -163 -41 -61 -41 -75 -40 -166 8 -78 41 -167
138 -211 229 -56 118 -68 175 -73 362 l-5 169 23 -5 c13 -2 120 -24 237 -49z
m-3928 -129 c124 -245 324 -390 537 -390 73 0 75 -1 69 -22 -49 -177 -12 -365
100 -519 33 -46 34 -49 34 -147 l0 -100 -47 -11 c-68 -18 -144 -56 -202 -102
l-50 -40 -43 22 c-68 34 -170 110 -165 122 108 294 97 536 -38 813 -67 137
-201 322 -220 302 -3 -3 -17 -50 -31 -104 -36 -135 -45 -375 -19 -509 32 -172
113 -332 232 -456 l54 -57 -17 -34 c-24 -47 -88 -140 -110 -160 -17 -15 -24
-15 -74 -2 -76 21 -214 20 -286 -1 -97 -28 -264 -125 -264 -154 0 -11 95 -31
180 -37 128 -10 277 33 373 108 23 18 45 37 49 43 10 13 105 -36 171 -88 38
-31 48 -44 43 -61 -3 -11 -17 -61 -32 -111 -24 -81 -27 -106 -27 -250 -1 -146
1 -168 26 -250 38 -127 134 -314 212 -412 36 -46 70 -83 75 -83 11 0 27 34 41
90 54 206 50 464 -8 644 -36 111 -121 253 -206 343 l-49 52 27 53 c42 80 107
159 125 152 41 -16 180 -34 226 -28 l50 6 -1 -464 -1 -465 -26 -34 c-78 -104
-117 -237 -127 -434 -6 -132 -7 -138 -19 -98 -17 56 -86 186 -135 253 -120
165 -291 257 -462 248 -55 -2 -64 -1 -59 12 29 76 29 249 0 341 -58 185 -238
366 -439 443 l-49 18 39 42 c68 72 109 129 147 205 113 224 98 475 -40 655
-22 30 -30 46 -21 46 41 0 158 74 216 136 116 123 160 250 168 478 l6 149 22
-54 c12 -30 32 -74 45 -99z m3652 90 c-7 -71 15 -259 39 -337 50 -162 147
-285 271 -348 39 -19 77 -35 85 -35 10 0 4 -15 -20 -47 -138 -190 -155 -421
-47 -640 38 -76 132 -208 174 -242 15 -13 6 -20 -95 -69 -98 -48 -122 -65
-203 -146 -104 -103 -145 -171 -176 -292 -27 -105 -25 -213 5 -314 4 -13 -8
-14 -73 -12 -149 6 -294 -65 -409 -200 -78 -93 -84 -101 -135 -203 -11 -22
-25 -49 -31 -60 -5 -11 -13 -31 -18 -45 -4 -16 -8 16 -9 85 -2 115 -2 123 -21
220 -15 74 -69 197 -111 249 l-31 39 -2 451 -2 452 101 1 c62 0 120 7 150 16
59 19 60 19 120 -72 75 -113 76 -113 28 -165 -103 -112 -203 -284 -227 -391
-48 -212 -40 -465 21 -647 8 -27 20 -48 25 -48 14 0 124 143 169 220 52 89 96
199 127 319 22 87 24 109 19 236 -5 134 -18 208 -53 302 -19 53 -15 59 79 120
105 68 113 70 159 28 81 -73 226 -125 349 -124 56 0 208 23 218 33 8 8 -27 44
-73 75 -140 93 -324 127 -475 87 -54 -14 -55 -14 -80 10 -14 13 -48 60 -74
104 l-49 80 55 58 c105 111 179 241 220 387 19 70 22 105 22 275 1 170 -2 207
-22 286 -13 51 -29 99 -36 109 -11 16 -16 13 -54 -30 -96 -110 -182 -264 -230
-416 -69 -216 -63 -388 24 -651 7 -18 -68 -78 -153 -123 l-52 -26 -52 41 c-67
53 -119 80 -194 100 l-60 15 -2 94 -2 93 38 51 c117 157 155 345 105 525 -6
21 -4 22 67 22 223 0 408 137 536 395 22 44 46 97 52 118 7 20 14 37 15 37 2
0 1 -22 -2 -50z m-4214 -72 c-5 -100 -35 -174 -98 -242 -38 -42 -145 -106
-176 -106 -7 0 -17 24 -24 58 -7 31 -20 94 -30 139 -17 81 -17 82 3 100 11 10
25 31 32 48 12 28 20 31 136 56 178 38 162 44 157 -53z m4847 37 c151 -32 155
-33 155 -51 0 -7 13 -28 29 -46 l28 -32 -18 -80 c-9 -45 -22 -107 -29 -138 -7
-34 -17 -58 -24 -58 -31 0 -138 64 -176 106 -63 68 -93 142 -98 242 -3 45 -1
82 4 82 5 0 63 -11 129 -25z m-4188 -287 c78 -118 135 -244 169 -375 23 -88
25 -112 21 -233 -5 -131 -18 -202 -54 -298 l-16 -43 -34 33 c-99 96 -206 287
-238 428 -37 161 -30 380 16 553 l21 78 25 -23 c14 -13 54 -67 90 -120z m3546
-8 c29 -117 31 -377 3 -495 -35 -153 -128 -325 -229 -424 l-45 -43 -25 78
c-73 226 -64 422 29 653 39 99 119 234 186 313 49 58 44 63 81 -82z m-2903
-33 c0 -13 -10 -33 -22 -44 -26 -23 -68 -47 -68 -38 0 23 64 105 82 105 4 0 8
-10 8 -23z m2156 -29 c21 -23 44 -61 44 -73 0 -10 -43 16 -72 43 -32 30 -40
79 -10 63 9 -5 27 -20 38 -33z m-2156 -335 l0 -308 -20 25 c-83 103 -125 240
-117 375 8 127 19 155 76 187 25 14 49 26 54 27 4 0 7 -137 7 -306z m2129 284
c6 -8 29 -22 50 -32 51 -23 62 -51 68 -182 5 -91 3 -112 -20 -186 -22 -69 -83
-185 -118 -221 -5 -6 -9 121 -9 312 0 178 4 322 9 322 5 0 14 -6 20 -13z
m-3438 -209 l64 -33 -39 -3 c-41 -4 -126 32 -134 56 -7 22 43 13 109 -20z
m4837 0 c-5 -16 -83 -54 -126 -62 -50 -9 -36 14 28 47 57 29 104 36 98 15z
m-3530 -720 l-3 -83 -68 -3 c-72 -3 -175 12 -191 28 -24 24 174 139 242 140
22 0 23 -2 20 -82z m-340 -47 l31 -13 -46 -61 c-25 -34 -54 -80 -65 -102 -11
-22 -22 -42 -24 -44 -2 -2 -25 14 -51 36 -26 22 -72 52 -100 67 -29 14 -53 30
-53 35 0 4 10 16 21 27 12 10 41 53 66 96 l45 76 72 -52 c40 -29 87 -58 104
-65z m2581 74 c29 -14 76 -42 104 -62 l50 -37 -32 -13 c-41 -17 -176 -28 -225
-19 l-36 7 0 83 0 84 43 -10 c23 -5 66 -20 96 -33z m415 -23 c13 -27 43 -71
65 -100 23 -28 41 -54 41 -57 0 -2 -22 -16 -48 -29 -27 -14 -70 -41 -95 -60
-26 -20 -51 -36 -57 -36 -5 0 -17 17 -27 38 -10 20 -38 64 -64 98 l-45 60 61
33 c34 18 79 48 101 67 21 18 40 33 41 34 2 0 14 -22 27 -48z m-3395 -128 c46
-13 51 -17 39 -31 -26 -32 -133 -94 -197 -114 -78 -24 -236 -28 -316 -6 l-50
13 45 32 c57 42 154 90 216 107 68 18 199 18 263 -1z m3846 -19 c72 -19 164
-62 224 -107 l44 -32 -49 -13 c-80 -21 -228 -19 -310 6 -68 20 -175 80 -202
113 -11 14 -8 18 20 26 55 17 70 20 143 21 39 0 98 -6 130 -14z m-4332 -191
c199 -100 317 -226 378 -404 26 -78 31 -237 8 -309 -12 -37 -22 -49 -64 -71
-54 -29 -115 -99 -115 -132 0 -17 4 -19 28 -13 43 11 91 53 120 106 24 44 31
49 71 55 24 4 75 1 113 -6 204 -36 379 -205 485 -467 39 -98 40 -111 11 -118
-73 -17 -405 -85 -414 -85 -6 0 -20 24 -33 54 -59 143 -199 236 -363 239 l-72
2 -12 60 c-27 136 -54 264 -69 329 -9 37 -36 166 -60 285 -38 182 -60 286
-102 484 -7 36 2 35 90 -9z m913 -111 c128 -176 185 -406 163 -654 -8 -95 -43
-265 -58 -281 -19 -21 -174 215 -227 346 -101 248 -105 475 -13 714 l11 27 40
-45 c21 -25 59 -73 84 -107z m2894 52 c85 -254 58 -500 -81 -765 -42 -79 -150
-232 -169 -238 -13 -5 -25 29 -45 125 -24 110 -26 133 -26 268 1 198 44 352
143 506 48 74 138 180 148 174 5 -3 18 -34 30 -70z m850 68 c1 -5 -54 -272
-122 -595 l-123 -586 -41 5 c-55 6 -146 -13 -212 -45 -86 -42 -192 -174 -192
-239 0 -11 -7 -14 -22 -10 -13 2 -119 24 -236 48 l-213 43 6 26 c12 48 105
233 149 294 125 175 321 281 480 262 48 -6 55 -11 66 -37 19 -45 92 -116 129
-124 18 -4 35 -5 37 -2 3 3 -4 23 -15 44 -23 46 -73 93 -118 112 -80 33 -92
265 -23 427 60 138 173 251 345 341 79 42 105 50 105 36z m-3434 -1319 c-7
-17 -127 -38 -136 -24 -4 6 -6 65 -4 130 4 188 41 334 110 440 l29 45 3 -290
c1 -159 0 -295 -2 -301z m2172 498 c43 -81 69 -175 82 -292 13 -119 4 -264
-15 -256 -7 2 -39 10 -71 16 l-59 12 0 303 c0 281 1 302 16 289 9 -8 30 -41
47 -72z m-3060 -13 c-22 -40 -92 -98 -104 -86 -8 7 20 59 42 78 16 14 72 47
82 49 2 0 -7 -19 -20 -41z m3935 -14 c35 -24 74 -81 63 -92 -10 -10 -75 38
-95 71 -34 55 -26 60 32 21z m-3891 -357 c76 -35 141 -97 178 -171 16 -33 30
-66 30 -73 0 -11 -49 -25 -209 -57 -64 -12 -64 -12 -93 15 -17 16 -38 28 -48
28 -15 0 -21 13 -30 58 -7 31 -20 94 -29 139 -10 46 -15 86 -12 89 15 16 159
-3 213 -28z m4028 5 c0 -11 -49 -244 -56 -265 -3 -10 -12 -18 -20 -18 -9 0
-31 -12 -49 -26 l-34 -26 -117 26 c-65 14 -126 26 -136 26 -23 0 -22 14 2 69
61 134 194 220 343 221 37 0 67 -3 67 -7z m-3180 -352 l0 -38 -112 -17 c-62
-10 -123 -20 -135 -23 -18 -4 -23 -1 -23 14 0 10 -5 24 -10 29 -8 8 33 20 132
42 79 16 144 31 146 31 1 1 2 -16 2 -38z m2260 -15 c94 -20 105 -25 108 -46 3
-19 0 -22 -20 -17 -12 3 -74 13 -135 23 l-113 17 0 28 c0 26 3 28 28 23 15 -3
74 -16 132 -28z m-2559 -26 c26 -14 24 -25 -7 -39 -58 -26 -167 -41 -292 -39
l-127 1 136 7 c196 11 265 27 256 62 -6 20 5 23 34 8z m-53 -12 c-6 -18 -82
-35 -176 -39 -44 -2 -79 -2 -76 0 4 5 212 49 237 50 11 1 17 -4 15 -11z m2782
-8 c32 -27 76 -38 205 -48 l110 -9 -87 -2 c-86 -1 -201 17 -252 40 -26 12 -31
20 -19 32 10 11 18 8 43 -13z m-2433 4 c-3 -3 -12 -4 -19 -1 -8 3 -5 6 6 6 11
1 17 -2 13 -5z m2130 0 c-3 -3 -12 -4 -19 -1 -8 3 -5 6 6 6 11 1 17 -2 13 -5z
m-2179 -11 c-10 -2 -26 -2 -35 0 -10 3 -2 5 17 5 19 0 27 -2 18 -5z m2240 0
c-10 -2 -26 -2 -35 0 -10 3 -2 5 17 5 19 0 27 -2 18 -5z m357 -8 l60 -15 -53
6 c-29 2 -62 9 -75 14 -34 13 1 11 68 -5z m-2662 -2 c-7 -2 -21 -2 -30 0 -10
3 -4 5 12 5 17 0 24 -2 18 -5z m137 -13 c13 -24 25 -20 -148 -54 -606 -121
-714 -341 -242 -495 225 -73 516 -121 925 -152 206 -16 784 -16 990 0 619 47
1042 148 1174 280 139 139 -51 278 -503 371 -138 27 -154 35 -127 63 4 4 75
-4 157 -18 434 -75 701 -185 730 -302 38 -150 -389 -307 -1026 -377 -326 -36
-430 -41 -905 -41 -503 0 -667 9 -1020 56 -572 76 -936 223 -901 363 29 114
293 224 722 300 172 30 161 30 174 6z m2233 13 c-7 -2 -21 -2 -30 0 -10 3 -4
5 12 5 17 0 24 -2 18 -5z m-3413 -7 c0 -2 -35 -16 -77 -31 -43 -15 -100 -38
-126 -52 -27 -13 -56 -22 -65 -20 -20 4 22 24 153 73 84 31 115 39 115 30z
m965 -6 c-16 -4 -41 -8 -55 -8 -22 0 -22 1 5 8 17 4 41 8 55 8 22 0 22 -1 -5
-8z m2540 0 c27 -7 27 -8 5 -8 -14 0 -38 4 -55 8 -27 7 -27 8 -5 8 14 0 39 -4
55 -8z m1150 -71 c28 -12 44 -24 37 -27 -7 -2 -48 12 -90 31 -42 19 -96 41
-119 48 -24 6 -43 16 -43 20 0 9 133 -36 215 -72z m-4623 10 c31 -32 66 -33
203 -5 111 23 151 26 267 24 75 -2 135 -4 135 -4 -1 -1 -42 -15 -92 -32 -49
-17 -114 -41 -144 -54 l-53 -23 -279 24 c-154 14 -279 28 -279 32 0 4 46 26
103 48 91 36 103 39 112 24 6 -9 18 -24 27 -34z m828 41 c-14 -4 -34 -8 -45
-8 -16 0 -15 2 5 8 14 4 34 8 45 8 16 0 15 -2 -5 -8z m2740 0 c20 -6 21 -8 5
-8 -11 0 -31 4 -45 8 -20 6 -21 8 -5 8 11 0 31 -4 45 -8z m941 -36 c50 -20 87
-40 82 -44 -4 -4 -129 -18 -276 -31 -262 -22 -269 -23 -315 -5 -39 15 -89 33
-244 88 -4 2 45 3 110 2 93 0 147 -7 261 -32 182 -40 201 -41 240 -1 17 17 31
37 31 45 0 20 9 18 111 -22z m-3754 20 c-3 -3 -12 -4 -19 -1 -8 3 -5 6 6 6 11
1 17 -2 13 -5z m699 -14 l251 -5 -606 -133 c-333 -73 -609 -133 -613 -133 -30
3 35 79 96 115 69 40 182 82 317 115 161 41 270 60 289 53 8 -4 128 -9 266
-12z m1794 5 c164 -24 431 -105 526 -161 61 -36 126 -112 97 -115 -5 0 -281
60 -614 133 l-606 133 253 5 c139 3 256 8 260 13 4 4 15 5 23 3 9 -3 36 -7 61
-11z m377 9 c-3 -3 -12 -4 -19 -1 -8 3 -5 6 6 6 11 1 17 -2 13 -5z m-3002 -34
c-55 -16 -133 -43 -174 -59 -77 -33 -113 -40 -71 -16 22 13 234 86 285 98 71
17 43 1 -40 -23z m3210 -21 c113 -37 184 -68 159 -69 -6 0 -44 14 -85 31 -41
16 -119 44 -174 60 -55 16 -82 27 -60 23 22 -3 94 -23 160 -45z m-653 -94
c337 -74 621 -139 631 -143 12 -5 -270 -72 -807 -190 l-826 -183 -825 182
c-453 101 -822 185 -820 188 3 2 283 66 623 142 l617 137 397 1 396 1 614
-135z m-3551 30 c-98 -72 -135 -146 -111 -221 14 -43 76 -114 126 -145 19 -11
34 -25 34 -30 0 -5 -25 -9 -55 -9 -47 0 -59 4 -92 33 -54 46 -72 67 -89 104
-43 98 17 202 167 288 74 42 87 29 20 -20z m5102 29 c111 -56 197 -155 197
-226 0 -65 -26 -109 -103 -175 -33 -29 -45 -33 -92 -33 -30 0 -55 4 -55 9 0 5
15 19 34 30 50 31 112 102 126 145 24 75 -13 149 -111 221 -60 44 -58 60 4 29z
m-4708 -15 c132 -11 246 -23 253 -25 8 -2 -3 -17 -30 -37 -23 -18 -52 -49 -63
-69 -19 -34 -22 -35 -45 -23 -96 50 -476 50 -592 0 -54 -23 26 84 102 136 66
46 57 46 375 18z m4685 -18 c76 -52 156 -159 103 -136 -117 50 -497 50 -593 0
-23 -12 -26 -11 -45 23 -11 20 -40 51 -63 69 -24 18 -42 34 -40 34 12 5 466
47 518 47 60 1 69 -2 120 -37z m-4414 -64 c-50 -47 -56 -57 -56 -93 0 -53 31
-99 94 -141 l48 -33 -34 0 c-39 0 -97 37 -141 89 -51 61 -27 133 67 198 73 50
85 40 22 -20z m3790 20 c94 -65 118 -137 67 -198 -44 -52 -102 -89 -141 -89
l-34 0 48 33 c63 42 94 88 94 141 0 36 -6 46 -56 93 -63 60 -51 70 22 20z
m-4429 -83 c-3 -3 -12 -4 -19 -1 -8 3 -5 6 6 6 11 1 17 -2 13 -5z m400 0 c-3
-3 -12 -4 -19 -1 -8 3 -5 6 6 6 11 1 17 -2 13 -5z m4270 0 c-3 -3 -12 -4 -19
-1 -8 3 -5 6 6 6 11 1 17 -2 13 -5z m400 0 c-3 -3 -12 -4 -19 -1 -8 3 -5 6 6
6 11 1 17 -2 13 -5z m-5138 -23 l-23 -18 26 -17 c41 -27 233 -42 366 -28 113
12 162 26 162 48 0 7 -9 16 -21 19 -11 4 -18 9 -16 11 3 3 21 -2 41 -10 107
-45 -33 -90 -279 -90 -243 0 -385 45 -282 89 44 20 53 18 26 -4z m485 0 c75
-31 -55 -55 -269 -49 -205 6 -271 30 -160 57 56 14 392 8 429 -8z m4188 7
c-54 -27 2 -55 139 -69 148 -15 352 4 379 36 8 10 6 17 -12 29 -28 20 -18 20
27 2 106 -45 -36 -90 -280 -90 -243 0 -385 45 -282 89 38 17 63 19 29 3z m482
-7 c76 -31 -55 -55 -269 -49 -207 6 -277 32 -154 58 62 13 387 6 423 -9z
m-3429 -216 l780 -173 -112 -1 c-217 -2 -578 30 -842 75 -332 56 -578 146
-641 234 -28 39 -26 53 8 45 15 -3 378 -84 807 -180z m2565 174 c0 -43 -90
-110 -213 -159 -259 -103 -867 -193 -1290 -189 l-112 1 795 178 c437 98 801
178 808 179 6 0 12 -4 12 -10z m-4231 -45 c146 -26 421 -11 492 26 19 11 24
10 27 -1 3 -8 30 -39 62 -71 l57 -56 -51 -6 c-28 -3 -155 -15 -282 -27 l-232
-21 -43 27 c-55 34 -116 92 -135 127 -19 36 -18 41 7 27 12 -6 56 -17 98 -25z
m4626 9 c116 -34 431 -26 523 12 36 16 37 14 18 -23 -19 -35 -80 -93 -135
-127 l-43 -27 -273 26 c-150 14 -278 26 -285 26 -6 0 13 23 44 51 30 27 58 59
61 70 5 14 12 18 23 13 10 -4 40 -13 67 -21z m-4707 -264 l-3 -69 -39 32 c-66
54 -96 112 -96 183 l0 61 70 -69 71 -69 -3 -69z m5337 46 c-22 -38 -101 -115
-118 -115 -4 0 -5 31 -3 68 l3 68 69 69 69 70 3 -58 c2 -48 -2 -66 -23 -102z
m-4395 65 c178 -66 512 -133 807 -161 67 -7 120 -16 117 -21 -18 -29 -485 35
-764 106 -150 38 -300 92 -300 108 0 14 40 5 140 -32z m3480 31 c0 -15 -154
-70 -300 -107 -280 -71 -746 -135 -764 -106 -3 5 51 14 120 21 178 17 418 56
564 91 128 31 293 83 320 100 19 12 60 13 60 1z m-3639 -16 c16 -9 82 -34 147
-55 l117 -40 -105 0 c-119 -1 -250 -21 -286 -45 -13 -8 -24 -24 -24 -35 0 -18
-3 -18 -87 5 -112 30 -243 75 -313 108 -44 20 -50 26 -30 27 14 1 131 12 260
24 294 29 285 29 321 11z m3976 -11 c153 -14 279 -27 280 -28 10 -9 -222 -93
-359 -131 -85 -23 -88 -23 -88 -5 0 11 -11 27 -24 35 -36 24 -167 44 -286 45
l-105 0 118 40 c64 22 129 46 145 54 15 8 30 15 34 16 4 0 133 -12 285 -26z
m-4485 -82 c219 -95 590 -178 1023 -231 94 -12 192 -24 220 -27 l49 -6 -48
-25 -48 -24 -166 21 c-482 60 -915 163 -1153 274 -41 18 -83 41 -94 50 -19 16
-16 16 50 13 55 -3 91 -13 167 -45z m4893 32 c-11 -9 -53 -32 -94 -50 -238
-111 -668 -213 -1151 -274 l-165 -21 -47 22 c-27 12 -47 24 -45 25 2 2 79 12
172 23 532 63 985 167 1185 272 23 12 57 18 100 18 61 0 64 -1 45 -15z m-4853
-129 c253 -87 643 -168 1011 -211 l147 -17 0 -79 0 -80 -27 6 c-16 3 -55 8
-88 12 -245 25 -617 94 -838 154 -161 43 -348 113 -439 163 l-58 32 0 72 0 73
80 -40 c43 -22 139 -60 212 -85z m4888 53 l0 -73 -48 -26 c-214 -120 -629
-232 -1107 -299 -116 -16 -132 -18 -217 -26 l-78 -6 0 74 0 75 148 17 c491 57
990 178 1220 296 42 21 78 39 80 40 1 0 2 -33 2 -72z m-4397 15 c-7 -2 -19 -2
-25 0 -7 3 -2 5 12 5 14 0 19 -2 13 -5z m3590 -8 c64 -6 127 -28 127 -44 0 -6
-26 -18 -57 -28 -115 -35 -419 -20 -454 23 -17 21 47 44 151 54 83 7 115 6
233 -5z m-3671 -10 c-23 -10 -32 -20 -30 -32 13 -69 538 -66 538 3 0 7 -8 18
-17 23 -11 6 -13 11 -5 11 18 0 72 -29 72 -38 0 -16 -67 -40 -142 -52 -148
-24 -453 1 -492 41 -13 12 6 31 47 46 46 17 68 15 29 -2z m451 -5 c76 -23 34
-45 -114 -61 -109 -11 -275 1 -331 24 -32 13 -33 14 -11 25 12 7 46 16 75 21
67 13 331 6 381 -9z m3376 -4 c48 -22 36 -40 -39 -60 -25 -6 -25 -6 -2 5 30
16 28 45 -5 64 -27 15 -27 16 -3 9 14 -3 36 -11 49 -18z m-541 3 c-24 -14 -22
-35 4 -53 30 -21 8 -20 -37 1 -42 20 -43 28 -7 47 31 18 69 22 40 5z m-2572
-28 c67 -11 176 -25 243 -32 66 -8 121 -16 121 -20 0 -3 -48 -32 -107 -63
l-107 -57 -211 25 c-223 27 -427 57 -422 62 1 2 54 8 115 14 62 6 136 18 165
28 46 15 52 20 52 45 -1 20 3 26 15 22 8 -2 70 -13 136 -24z m2499 2 c0 -25 6
-30 52 -45 29 -10 103 -22 165 -28 61 -6 114 -12 115 -14 5 -5 -198 -35 -420
-62 l-208 -25 -110 57 c-60 31 -109 60 -109 63 0 4 55 13 123 20 93 9 344 48
387 60 3 0 6 -11 5 -26z m-1835 -33 c199 -14 805 -14 1032 0 120 8 192 9 203
2 57 -31 -725 -53 -1140 -32 -252 13 -330 21 -313 31 17 11 42 11 218 -1z m40
-40 c91 -5 188 -10 215 -11 l50 0 -50 -16 c-62 -18 -77 -30 -73 -57 2 -14 18
-26 48 -39 l45 -18 -185 6 c-224 6 -530 25 -547 34 -7 4 31 31 90 63 102 57
102 57 172 52 39 -2 144 -9 235 -14z m1344 -37 c67 -35 102 -59 94 -63 -17
-10 -319 -29 -548 -35 l-185 -6 45 18 c30 13 46 25 48 39 4 27 -12 39 -73 57
l-50 14 160 8 c88 4 201 11 250 15 50 4 104 8 121 9 22 1 67 -18 138 -56z
m-996 10 c-10 -2 -28 -2 -40 0 -13 2 -5 4 17 4 22 1 32 -1 23 -4z m290 0 c-10
-2 -28 -2 -40 0 -13 2 -5 4 17 4 22 1 32 -1 23 -4z m-393 -17 c-57 -17 -55
-45 5 -65 63 -20 377 -20 440 0 60 20 62 48 5 66 l-40 13 40 -6 c50 -7 97 -32
92 -47 -2 -7 -28 -21 -58 -32 -77 -28 -424 -29 -511 -2 -60 18 -77 32 -60 49
13 13 83 37 107 37 11 0 2 -6 -20 -13z m343 4 c51 -6 105 -16 120 -24 l27 -14
-28 -11 c-80 -31 -300 -36 -434 -10 -63 12 -74 25 -36 40 63 24 221 33 351 19z
m-930 -90 c73 -5 284 -15 469 -21 356 -12 880 -1 1198 25 143 12 152 12 198
-7 26 -11 44 -23 40 -27 -14 -13 -411 -39 -758 -51 -360 -12 -855 -1 -1190 26
-99 8 -192 15 -207 15 -16 0 -28 4 -28 9 0 17 81 50 113 45 18 -2 92 -9 165
-14z m-83 -65 c251 -20 629 -35 895 -35 266 0 644 15 895 35 99 8 192 15 208
15 l27 0 0 -75 c0 -53 -4 -75 -12 -75 -7 0 -62 -4 -123 -10 -156 -14 -217 -19
-325 -24 -52 -3 -144 -8 -204 -12 -135 -8 -819 -8 -941 0 -49 3 -146 8 -215
11 -69 3 -136 8 -150 10 -14 2 -63 7 -110 10 -47 3 -94 8 -105 10 -11 2 -32 4
-47 4 -28 1 -28 1 -28 76 l0 75 28 0 c15 0 108 -7 207 -15z"/>
<path d="M1620 5003 c-23 -9 -70 -55 -86 -86 -8 -15 -18 -57 -21 -92 -7 -77 1
-81 65 -35 61 44 78 86 73 188 -1 32 -4 35 -31 25z m20 -57 c0 -60 -12 -87
-56 -130 -52 -51 -67 -48 -58 12 8 59 36 114 70 141 38 30 44 27 44 -23z"/>
<path d="M2156 5119 c-4 -24 -15 -34 -46 -47 l-40 -17 0 -1592 0 -1593 20 0
c27 0 70 -43 70 -70 0 -20 0 -20 840 -20 840 0 840 0 840 20 0 12 11 32 25 45
13 14 33 25 45 25 l20 0 0 1593 0 1592 -40 17 c-31 13 -42 23 -46 47 l-6 31
-838 0 -837 0 -7 -31z m1679 -14 c10 -25 25 -40 50 -51 l35 -14 0 -1575 -1
-1574 -22 -7 c-31 -9 -67 -44 -67 -66 0 -17 -33 -18 -830 -18 -797 0 -830 1
-830 18 0 22 -36 57 -67 67 l-23 6 0 1575 0 1574 35 15 c25 10 40 25 50 50
l15 35 820 0 820 0 15 -35z"/>
<path d="M2192 5076 c-6 -13 -24 -32 -41 -42 l-31 -18 0 -1544 0 -1543 50 -49
49 -50 781 0 781 0 49 50 50 49 0 1543 0 1544 -31 18 c-17 10 -35 29 -41 42
l-11 24 -797 0 -797 0 -11 -24z m305 -35 c-8 -69 -52 -156 -104 -209 -51 -50
-147 -99 -216 -108 l-47 -7 0 137 0 137 48 49 47 49 139 0 139 1 -6 -49z m485
44 c2 -3 1 -33 -4 -68 -46 -340 -228 -583 -471 -628 l-68 -13 -30 37 c-39 47
-107 87 -147 87 -38 0 -38 -3 -11 -41 25 -36 92 -75 142 -84 34 -7 40 -13 66
-69 131 -278 8 -610 -302 -811 l-27 -17 2 613 3 614 55 8 c155 22 300 163 317
310 2 23 6 48 9 55 2 9 58 12 232 12 126 0 231 -2 234 -5z m509 -51 c19 -158
163 -302 318 -321 29 -3 55 -11 57 -17 2 -6 3 -283 2 -615 l-3 -604 -84 63
c-266 201 -362 508 -240 766 26 56 32 62 66 69 50 9 117 48 142 84 27 38 27
41 -11 41 -40 0 -108 -40 -147 -87 l-30 -37 -68 13 c-157 29 -298 146 -379
315 -49 103 -89 234 -100 325 l-7 61 239 -2 239 -3 6 -51z m329 6 l50 -49 0
-137 0 -137 -47 7 c-69 9 -165 58 -216 108 -52 53 -96 140 -104 209 l-6 49
137 0 137 0 49 -50z m-779 -195 c65 -225 216 -402 390 -456 33 -10 74 -19 91
-19 20 0 28 -4 25 -12 -103 -234 -96 -412 24 -615 41 -68 165 -196 231 -238
27 -17 48 -33 48 -36 0 -3 -28 -26 -62 -51 -282 -207 -384 -518 -262 -797 13
-29 24 -55 24 -56 0 -1 -17 -3 -38 -3 -88 -1 -236 -83 -317 -175 -80 -90 -161
-283 -191 -452 -6 -38 -7 -37 -24 50 -28 142 -75 264 -133 350 -42 60 -149
154 -210 184 -60 28 -164 54 -179 44 -12 -7 -10 0 16 58 55 127 65 286 26 414
-43 140 -149 281 -287 383 -35 25 -63 48 -63 51 0 3 21 19 48 36 66 42 190
170 231 238 120 203 127 381 24 615 -3 8 5 12 25 12 47 0 147 35 201 70 77 49
171 155 213 240 42 84 85 225 95 309 l7 56 14 -65 c7 -36 22 -96 33 -135z
m-726 -375 c23 -11 54 -33 70 -50 25 -26 26 -30 10 -30 -32 0 -104 40 -126 71
-25 35 -12 37 46 9z m1424 3 c-37 -47 -96 -83 -136 -83 -25 0 30 54 81 80 53
26 74 27 55 3z m-1534 -1068 c137 -97 252 -257 289 -401 20 -78 21 -202 1
-277 -17 -67 -61 -156 -78 -161 -7 -2 -32 -9 -57 -16 -44 -12 -130 -84 -130
-109 0 -36 110 9 168 69 41 43 41 43 96 37 154 -16 311 -143 396 -321 36 -76
77 -218 88 -308 l9 -68 -237 0 -237 0 -6 54 c-16 156 -164 299 -333 323 l-44
6 0 608 c0 335 3 609 6 609 4 0 35 -20 69 -45z m1665 -563 l0 -607 -67 -13
c-161 -31 -295 -168 -310 -318 l-6 -54 -240 0 -239 0 7 55 c10 82 50 225 84
300 86 189 248 326 405 342 55 6 56 5 97 -36 58 -60 169 -106 169 -70 0 25
-86 97 -130 109 -25 7 -50 14 -57 16 -17 5 -61 94 -78 161 -20 75 -19 199 1
277 37 143 146 296 284 398 36 26 68 48 73 48 4 0 7 -273 7 -608z m-1471 -309
c-43 -54 -139 -105 -139 -73 0 14 65 63 102 77 46 16 52 16 37 -4z m1267 -10
c36 -16 81 -60 71 -69 -17 -17 -97 30 -137 80 -14 18 -13 18 10 11 14 -4 39
-14 56 -22z m-1373 -352 c108 -52 188 -161 203 -274 l7 -47 -140 0 -139 0 -47
45 -47 45 0 136 0 137 50 -5 c27 -3 78 -19 113 -37z m1577 -96 l0 -135 -47
-45 -47 -45 -139 0 -140 0 7 47 c12 90 74 192 149 245 46 33 138 67 180 68
l37 0 0 -135z"/>
<path d="M2500 4812 c0 -41 31 -119 57 -144 26 -25 90 -58 113 -58 28 0 -1
104 -43 156 -45 54 -127 84 -127 46z m87 -28 c34 -26 65 -77 77 -128 7 -27 6
-28 -21 -21 -65 16 -123 86 -123 150 0 33 23 33 67 -1z"/>
<path d="M2272 4058 c-28 -28 -3 -72 39 -66 30 4 47 33 33 56 -14 21 -55 27
-72 10z m53 -28 c0 -16 -6 -26 -18 -28 -19 -4 -32 20 -23 44 9 25 41 13 41
-16z"/>
<path d="M3398 4810 c-42 -23 -72 -61 -93 -121 -29 -81 -16 -95 53 -60 72 37
112 99 112 173 0 34 -19 36 -72 8z m57 -32 c-13 -59 -42 -103 -83 -126 -56
-31 -73 -29 -63 6 25 84 84 152 134 152 16 0 17 -5 12 -32z"/>
<path d="M3662 4058 c-28 -28 -3 -72 39 -66 30 4 47 33 33 56 -14 21 -55 27
-72 10z m53 -28 c0 -16 -6 -26 -18 -28 -19 -4 -32 20 -23 44 9 25 41 13 41
-16z"/>
<path d="M2966 4758 c-41 -70 -84 -179 -112 -284 -21 -79 -27 -129 -31 -249
-4 -136 -2 -159 20 -245 25 -95 73 -209 121 -287 l26 -42 -40 -46 c-40 -46
-126 -125 -137 -125 -3 0 -30 12 -58 26 -149 72 -328 73 -498 2 -88 -36 -90
-43 -21 -74 183 -81 355 -84 509 -9 l67 32 47 -37 c26 -20 66 -60 89 -88 l43
-51 -40 -67 c-146 -243 -171 -527 -71 -837 35 -110 101 -242 120 -242 19 0 85
132 120 242 59 184 76 393 45 542 -20 95 -66 212 -116 295 l-40 67 43 51 c23
28 63 68 89 88 l47 37 67 -32 c154 -75 326 -72 509 9 69 31 67 38 -21 74 -86
36 -163 52 -253 52 -95 0 -167 -16 -245 -54 -28 -14 -55 -26 -58 -26 -11 0
-97 79 -137 125 l-40 46 26 42 c48 79 96 192 120 286 42 164 30 373 -31 567
-31 94 -104 246 -122 251 -6 3 -23 -15 -37 -39z m79 -55 c74 -152 112 -297
122 -458 7 -124 -4 -210 -43 -325 -31 -94 -105 -235 -124 -235 -8 0 -33 36
-57 80 -124 231 -145 462 -67 734 25 85 111 281 124 281 4 0 24 -34 45 -77z
m-35 -1070 c0 -10 74 -88 123 -130 l37 -33 -85 -85 -85 -85 -85 85 -85 85 37
33 c49 42 123 120 123 130 0 4 5 7 10 7 6 0 10 -3 10 -7z m-377 -98 c32 -8 80
-27 109 -41 l51 -26 -29 -18 c-43 -27 -141 -58 -210 -65 -77 -9 -202 15 -288
54 l-61 29 59 26 c120 55 258 70 369 41z m983 0 c34 -8 88 -26 120 -40 l59
-26 -25 -14 c-42 -24 -172 -62 -236 -70 -93 -10 -235 22 -308 71 -17 11 -14
15 33 38 108 55 236 70 357 41z m-574 -337 c143 -245 165 -518 66 -813 -34
-102 -93 -225 -108 -225 -15 0 -77 129 -110 228 -96 292 -74 567 68 810 20 34
39 62 42 62 3 0 22 -28 42 -62z"/>
<path d="M2990 4520 c0 -5 5 -10 10 -10 6 0 10 5 10 10 0 6 -4 10 -10 10 -5 0
-10 -4 -10 -10z"/>
<path d="M2974 4429 c-3 -6 1 -18 10 -27 15 -15 17 -15 32 0 19 19 11 38 -16
38 -10 0 -22 -5 -26 -11z m36 -9 c0 -5 -4 -10 -10 -10 -5 0 -10 5 -10 10 0 6
5 10 10 10 6 0 10 -4 10 -10z"/>
<path d="M2958 4295 c-9 -21 -8 -28 7 -45 10 -11 26 -20 35 -20 9 0 25 9 35
20 27 30 7 70 -35 70 -23 0 -33 -6 -42 -25z m70 -11 c4 -29 -23 -51 -43 -34
-16 13 -20 42 -8 54 14 14 48 1 51 -20z"/>
<path d="M2965 3500 l-29 -30 32 -33 32 -32 32 32 32 33 -29 30 c-16 16 -32
30 -35 30 -3 0 -19 -14 -35 -30z m60 -10 c18 -20 18 -21 -3 -43 l-22 -21 -22
21 c-21 22 -21 23 -3 43 10 11 21 20 25 20 4 0 15 -9 25 -20z"/>
<path d="M2958 2675 c-9 -21 -8 -28 7 -45 10 -11 26 -20 35 -20 9 0 25 9 35
20 27 30 7 70 -35 70 -23 0 -33 -6 -42 -25z m70 -11 c4 -29 -23 -51 -43 -34
-16 13 -20 42 -8 54 14 14 48 1 51 -20z"/>
<path d="M2974 2525 c-4 -9 -2 -21 4 -27 16 -16 47 -5 47 17 0 26 -42 34 -51
10z"/>
<path d="M2278 2939 c-21 -12 -24 -49 -6 -67 18 -18 56 -14 68 7 14 27 13 37
-6 55 -18 18 -32 20 -56 5z m56 -24 c4 -12 -17 -45 -29 -45 -2 0 -10 7 -19 15
-20 20 -10 45 19 45 13 0 25 -7 29 -15z"/>
<path d="M2625 2310 c-76 -36 -108 -79 -120 -163 l-7 -48 28 7 c51 12 88 39
118 87 27 45 48 137 30 137 -5 0 -27 -9 -49 -20z m45 -9 c0 -20 -31 -94 -50
-118 -24 -31 -47 -48 -77 -57 -20 -6 -23 -4 -23 20 0 52 37 109 88 137 51 29
62 32 62 18z"/>
<path d="M3666 2934 c-19 -18 -20 -28 -6 -55 12 -21 50 -25 68 -7 18 18 14 56
-7 68 -27 14 -37 13 -55 -6z m58 -19 c4 -12 -17 -45 -29 -45 -2 0 -10 7 -19
15 -20 20 -10 45 19 45 13 0 25 -7 29 -15z"/>
<path d="M3294 2290 c4 -23 15 -59 26 -79 21 -42 83 -101 105 -101 7 0 20 -3
29 -6 34 -13 9 114 -31 158 -19 21 -71 50 -112 63 -23 7 -24 6 -17 -35z m89
-17 c38 -24 58 -58 72 -120 8 -40 -7 -43 -55 -10 -44 30 -68 63 -85 120 -14
48 -14 48 8 42 12 -4 39 -18 60 -32z"/>
<path d="M4330 4932 c0 -37 7 -70 19 -92 17 -33 92 -100 112 -100 16 0 9 113
-10 155 -21 46 -73 95 -102 95 -17 0 -19 -7 -19 -58z m84 -2 c28 -34 46 -87
46 -138 l0 -33 -31 18 c-42 24 -79 82 -86 132 -11 79 15 87 71 21z"/>
<path d="M705 4789 c32 -104 98 -159 193 -159 29 0 28 15 -8 77 -38 66 -79 95
-142 101 -49 5 -50 4 -43 -19z m96 -9 c38 -20 99 -97 99 -127 0 -16 4 -16 -56
2 -28 8 -60 25 -71 37 -23 25 -53 81 -53 98 0 16 38 12 81 -10z"/>
<path d="M642 4018 c-33 -33 6 -91 47 -69 24 13 30 31 20 59 -9 24 -47 30 -67
10z m48 -13 c17 -20 5 -45 -20 -45 -11 0 -23 7 -26 15 -6 15 11 45 26 45 4 0
13 -7 20 -15z"/>
<path d="M5182 4779 c-24 -12 -54 -36 -67 -53 -27 -36 -59 -106 -51 -113 11
-11 112 20 144 44 34 25 71 91 72 126 0 24 -44 22 -98 -4z m81 5 c9 -9 -20
-75 -45 -101 -24 -25 -98 -57 -121 -51 -40 8 56 130 116 147 42 12 43 12 50 5z"/>
<path d="M5307 4003 c-15 -15 -7 -63 13 -73 42 -22 82 34 48 68 -13 13 -50 16
-61 5z m53 -18 c17 -20 5 -45 -20 -45 -11 0 -23 7 -26 15 -6 15 11 45 26 45 4
0 13 -7 20 -15z"/>
<path d="M1240 4610 c0 -5 5 -10 10 -10 6 0 10 5 10 10 0 6 -4 10 -10 10 -5 0
-10 -4 -10 -10z"/>
<path d="M1251 4527 c-8 -10 -7 -19 4 -33 13 -18 15 -18 31 -2 14 14 15 20 4
32 -15 19 -24 20 -39 3z m29 -17 c0 -5 -4 -10 -10 -10 -5 0 -10 5 -10 10 0 6
5 10 10 10 6 0 10 -4 10 -10z"/>
<path d="M1265 4396 c-23 -34 -5 -66 36 -66 41 0 61 40 34 70 -24 27 -51 25
-70 -4z m63 -30 c-2 -15 -10 -21 -28 -21 -31 0 -40 33 -14 52 22 16 46 -1 42
-31z"/>
<path d="M4750 4590 c0 -5 5 -10 10 -10 6 0 10 5 10 10 0 6 -4 10 -10 10 -5 0
-10 -4 -10 -10z"/>
<path d="M4720 4504 c-11 -12 -10 -18 3 -32 16 -15 18 -15 34 0 13 14 14 20 3
32 -7 9 -16 16 -20 16 -4 0 -13 -7 -20 -16z m30 -14 c0 -5 -4 -10 -10 -10 -5
0 -10 5 -10 10 0 6 5 10 10 10 6 0 10 -4 10 -10z"/>
<path d="M4675 4380 c-27 -30 -7 -70 34 -70 41 0 59 32 36 66 -19 29 -46 31
-70 4z m60 -30 c0 -18 -6 -26 -23 -28 -13 -2 -25 3 -28 12 -10 26 4 48 28 44
17 -2 23 -10 23 -28z"/>
<path d="M1431 3611 c-12 -16 -21 -34 -21 -39 0 -12 53 -52 69 -52 11 0 51 57
51 72 0 6 -63 48 -73 48 -3 0 -15 -13 -26 -29z m58 -8 c20 -17 21 -19 6 -40
-19 -27 -23 -27 -49 -8 -17 13 -18 18 -6 40 16 30 21 30 49 8z"/>
<path d="M4525 3604 c-11 -8 -26 -19 -34 -23 -10 -6 -8 -15 10 -44 13 -20 28
-37 32 -37 4 0 23 10 42 23 l34 23 -25 37 c-28 41 -31 43 -59 21z m47 -29 c10
-21 8 -28 -8 -40 -26 -19 -30 -19 -49 8 -15 21 -14 23 6 40 28 23 37 22 51 -8z"/>
<path d="M872 2918 c-21 -21 -14 -57 13 -70 22 -10 29 -9 47 10 19 18 20 25
10 47 -13 27 -49 34 -70 13z m55 -42 c-8 -20 -43 -21 -51 -1 -3 8 2 22 11 30
14 15 18 15 31 1 8 -8 12 -22 9 -30z"/>
<path d="M1369 2391 c-63 -25 -115 -101 -117 -172 -3 -79 7 -89 58 -55 49 32
79 91 87 170 6 55 -1 68 -28 57z m0 -118 c-8 -28 -26 -56 -53 -80 l-41 -38 -3
49 c-4 63 11 99 62 142 l41 35 3 -32 c2 -18 -2 -52 -9 -76z"/>
<path d="M1602 2818 c-30 -30 -3 -83 39 -76 29 4 43 29 35 61 -5 21 -12 27
-34 27 -15 0 -33 -5 -40 -12z m57 -12 c24 -29 -13 -65 -44 -42 -14 10 -15 16
-6 34 13 25 33 28 50 8z"/>
<path d="M1651 2670 c-19 -11 -9 -45 14 -45 13 0 21 8 23 21 3 23 -17 37 -37
24z m19 -20 c0 -5 -5 -10 -11 -10 -5 0 -7 5 -4 10 3 6 8 10 11 10 2 0 4 -4 4
-10z"/>
<path d="M1670 2550 c0 -5 7 -10 15 -10 8 0 15 5 15 10 0 6 -7 10 -15 10 -8 0
-15 -4 -15 -10z"/>
<path d="M4337 2804 c-11 -12 -8 -59 5 -72 16 -16 53 -15 67 2 7 8 11 27 9 43
-3 24 -8 28 -38 31 -20 2 -39 0 -43 -4z m63 -19 c17 -21 5 -45 -24 -45 -27 0
-42 26 -25 46 15 18 33 18 49 -1z"/>
<path d="M4333 2653 c-18 -6 -16 -42 2 -49 8 -4 22 -1 30 6 24 20 -1 54 -32
43z m22 -23 c3 -5 1 -10 -4 -10 -6 0 -11 5 -11 10 0 6 2 10 4 10 3 0 8 -4 11
-10z"/>
<path d="M4316 2542 c-3 -6 -1 -14 5 -17 15 -10 25 3 12 16 -7 7 -13 7 -17 1z"/>
<path d="M5069 2884 c-7 -21 -6 -31 7 -45 30 -33 74 -18 74 26 0 49 -63 64
-81 19z m65 -9 c3 -8 -2 -22 -11 -30 -14 -15 -18 -15 -31 -1 -8 8 -12 22 -9
30 8 20 43 21 51 1z"/>
<path d="M4592 2311 c6 -79 33 -132 82 -162 54 -33 59 -28 54 57 l-4 77 -52
48 c-75 69 -86 66 -80 -20z m68 13 c41 -37 60 -82 60 -141 0 -38 -2 -39 -40
-16 -38 22 -70 81 -77 143 -7 61 2 63 57 14z"/>
<path d="M2800 1614 c-465 -30 -736 -88 -827 -177 -165 -158 314 -297 1027
-297 607 0 1060 101 1060 237 0 97 -223 177 -615 218 -137 14 -536 26 -645 19z
m565 -24 c341 -31 578 -91 658 -167 48 -47 29 -87 -64 -133 -363 -184 -1555
-184 -1918 0 -93 46 -112 86 -63 133 77 73 315 136 637 166 130 12 621 13 750
1z"/>
<path d="M2715 1584 c-22 -2 -92 -9 -155 -15 -232 -22 -416 -69 -476 -121 -41
-36 -43 -56 -6 -91 181 -173 1398 -201 1782 -41 44 19 90 62 90 85 0 28 -64
75 -132 98 -178 58 -379 81 -758 86 -168 1 -323 1 -345 -1z m575 -15 c277 -19
486 -59 576 -108 87 -48 85 -77 -7 -123 -306 -155 -1412 -155 -1718 0 -93 46
-94 75 -5 124 160 88 708 139 1154 107z"/>
</g>
</svg>
