<?xml version="1.0" standalone="no"?>
<!DOCTYPE svg PUBLIC "-//W3C//DTD SVG 20010904//EN"
 "http://www.w3.org/TR/2001/REC-SVG-20010904/DTD/svg10.dtd">
<svg version="1.0" xmlns="http://www.w3.org/2000/svg"
 width="230pt" height="230pt" viewBox="0 0 600.000000 600.000000"
 preserveAspectRatio="xMidYMid meet">

<g transform="translate(0.000000,600.000000) scale(0.100000,-0.100000)"
fill="rgb(120, 71, 65)" stroke="none">
<path d="M4305 5344 c-99 -58 -185 -108 -192 -111 -9 -3 -13 19 -16 84 -1 48
-3 -78 -3 -282 0 -256 2 -314 6 -186 l5 183 199 116 c110 64 195 117 189 119
-5 2 -84 -40 -174 -93 -90 -53 -176 -102 -191 -110 l-28 -15 0 79 0 79 183
106 c187 109 230 136 212 136 -5 1 -91 -47 -190 -105z"/>
<path d="M2871 5278 c-50 -84 -189 -319 -309 -523 l-218 -370 -796 -5 -796 -5
390 -660 c215 -363 392 -667 395 -675 2 -8 -170 -310 -383 -670 -212 -360
-388 -660 -391 -667 -4 -11 143 -13 785 -13 l789 0 313 -530 c172 -292 316
-527 320 -523 4 4 146 243 315 531 l307 522 790 0 c628 0 789 3 785 12 -2 7
-179 308 -391 668 -213 360 -385 662 -383 670 3 8 180 312 395 675 l390 660
-796 5 -796 5 -306 517 c-168 284 -308 520 -312 523 -3 4 -47 -62 -97 -147z
m399 -388 c161 -272 294 -498 297 -502 2 -4 -44 -7 -103 -5 l-107 2 -31 59
c-17 32 -39 67 -48 77 -20 21 -23 35 -8 42 6 3 5 4 -2 3 -7 -1 -32 29 -55 68
-42 70 -42 71 -20 77 20 6 19 7 -11 14 -33 8 -40 33 -7 27 10 -2 14 1 10 7 -8
15 -32 14 -37 -1 -2 -6 -14 7 -25 29 -12 23 -19 44 -16 47 4 3 2 6 -4 6 -14 0
-75 99 -67 111 3 5 -2 9 -10 9 -9 0 -16 9 -16 20 0 11 -5 20 -11 20 -6 0 -8 7
-5 16 3 8 2 12 -4 9 -6 -3 -10 1 -10 9 0 9 -8 16 -17 16 -9 0 -13 -3 -10 -6
10 -10 -35 -84 -46 -77 -6 3 -7 1 -4 -4 8 -13 -42 -105 -53 -98 -4 3 -7 -1 -6
-9 0 -7 -60 -117 -134 -244 l-135 -231 -108 0 c-59 0 -106 3 -104 7 20 35 511
867 549 930 28 46 54 80 58 75 5 -4 140 -231 300 -503z m-115 -198 l181 -307
-189 -3 c-103 -1 -270 -1 -371 0 l-182 3 184 313 c102 172 187 310 190 307 3
-3 87 -144 187 -313z m1978 -364 c-11 -18 -500 -847 -1088 -1843 -587 -995
-1071 -1814 -1075 -1818 -5 -6 -819 1365 -2170 3656 l-22 37 2187 0 2187 0
-19 -32z m-3546 -1368 c10 -19 31 -54 46 -78 23 -36 26 -46 16 -65 -61 -116
-223 -376 -232 -370 -6 3 -7 1 -3 -6 10 -16 -113 -223 -127 -214 -6 3 -7 1 -3
-6 10 -16 -123 -241 -139 -235 -6 3 -17 -8 -23 -23 l-13 -28 21 25 c25 32 26
14 0 -25 -11 -16 -20 -33 -20 -37 0 -5 249 -8 554 -8 l555 0 54 -92 55 -93
-771 -3 c-423 -1 -772 -1 -774 1 -3 3 265 461 639 1091 71 120 133 214 138
210 4 -5 16 -25 27 -44z m3183 -610 l381 -645 -748 -3 c-411 -1 -759 0 -773 4
-24 5 -24 6 -5 17 11 7 20 18 21 25 3 37 5 42 18 42 8 0 16 6 19 13 2 7 18 14
33 15 16 1 31 7 32 12 2 6 8 8 13 4 5 -3 9 0 9 7 0 7 7 4 16 -7 8 -10 13 -13
9 -6 -7 14 11 17 20 2 3 -5 11 -10 16 -10 6 0 7 5 4 10 -3 6 -3 10 2 11 4 0
16 2 26 4 9 2 17 -3 17 -11 0 -16 2 -16 24 -8 9 3 16 16 16 28 0 20 -5 21
-102 25 -57 1 -105 5 -107 7 -2 2 252 3 565 3 313 -1 561 -3 552 -6 -25 -6
-22 -17 7 -33 14 -7 25 -18 25 -24 0 -6 5 -4 11 4 8 11 12 12 16 3 3 -9 10
-10 24 -3 15 9 17 15 9 30 -13 25 -13 33 3 25 6 -4 3 1 -8 9 -11 9 -28 23 -37
31 -12 10 -18 11 -22 2 -3 -7 -3 0 0 14 3 16 0 32 -10 42 -9 8 -16 24 -16 34
-1 17 -1 17 -14 0 -9 -12 -16 -14 -21 -7 -3 5 -11 8 -16 5 -5 -4 -9 -2 -9 4 0
5 6 12 13 15 6 2 1 4 -12 3 -21 -2 -32 10 -68 68 -24 39 -49 82 -54 98 -6 15
-16 27 -21 27 -6 0 -8 9 -5 20 3 11 0 18 -7 17 -6 -1 -10 6 -10 16 1 9 -3 17
-10 17 -6 0 -28 31 -49 68 -20 37 -48 85 -62 107 -13 22 -24 48 -25 58 0 10
-4 16 -8 13 -5 -3 -19 14 -31 37 -12 23 -36 65 -53 92 -17 28 -34 61 -39 74
-9 21 -7 23 14 17 22 -5 25 -2 30 38 4 25 2 59 -4 75 -6 17 -8 38 -5 46 3 8 1
15 -4 15 -6 0 -10 8 -10 18 0 13 2 14 9 3 5 -8 14 -10 21 -6 10 6 9 10 -3 17
-9 5 -14 15 -10 24 3 8 9 12 14 7 5 -5 180 -299 389 -653z m-419 508 c11 -21
11 -22 -4 -9 -10 7 -17 17 -17 22 0 15 9 10 21 -13z m-2408 -500 l267 -453
-270 -3 c-148 -1 -392 -1 -541 0 l-270 3 222 375 c122 206 235 395 250 420 15
25 36 60 45 78 9 17 19 32 23 32 4 0 127 -204 274 -452z m2587 5 c145 -247
265 -451 267 -456 2 -4 -239 -7 -537 -7 l-540 1 11 22 c7 12 44 76 84 142 39
66 154 261 255 433 102 171 187 312 190 312 3 0 125 -201 270 -447z m-215 437
c3 -5 1 -10 -4 -10 -6 0 -11 5 -11 10 0 6 2 10 4 10 3 0 8 -4 11 -10z m40 -18
c-3 -3 -11 0 -18 7 -9 10 -8 11 6 5 10 -3 15 -9 12 -12z m450 -810 c-6 -7 -34
11 -29 19 3 5 11 3 19 -4 7 -6 12 -13 10 -15z m22 -17 c0 -8 -4 -12 -9 -9 -5
3 -6 10 -3 15 9 13 12 11 12 -6z"/>
<path d="M2956 5225 c-3 -9 0 -15 9 -15 9 0 12 6 9 15 -4 8 -7 15 -9 15 -2 0
-5 -7 -9 -15z"/>
<path d="M2913 5155 c-9 -25 4 -29 17 -6 7 15 7 21 0 21 -6 0 -13 -7 -17 -15z"/>
<path d="M2996 5155 c4 -8 10 -15 15 -15 4 0 6 7 3 15 -4 8 -10 15 -15 15 -4
0 -6 -7 -3 -15z"/>
<path d="M2870 5091 c-6 -12 -6 -22 -1 -26 6 -3 15 3 21 14 6 12 6 22 1 26 -6
3 -15 -3 -21 -14z"/>
<path d="M3037 5103 c-4 -6 0 -18 7 -28 8 -11 16 -14 19 -8 4 6 0 18 -7 28 -8
11 -16 14 -19 8z"/>
<path d="M2831 5017 c-6 -8 -8 -17 -4 -20 11 -12 21 -7 26 13 6 23 -5 26 -22
7z"/>
<path d="M3080 5010 c6 -11 15 -18 21 -14 6 4 6 11 -2 20 -17 21 -31 17 -19
-6z"/>
<path d="M2785 4940 c-3 -5 -2 -10 4 -10 5 0 13 5 16 10 3 6 2 10 -4 10 -5 0
-13 -4 -16 -10z"/>
<path d="M3130 4940 c0 -5 5 -10 11 -10 5 0 7 5 4 10 -3 6 -8 10 -11 10 -2 0
-4 -4 -4 -10z"/>
<path d="M2745 4870 c-3 -5 -2 -10 4 -10 5 0 13 5 16 10 3 6 2 10 -4 10 -5 0
-13 -4 -16 -10z"/>
<path d="M3170 4870 c0 -5 5 -10 11 -10 5 0 7 5 4 10 -3 6 -8 10 -11 10 -2 0
-4 -4 -4 -10z"/>
<path d="M3105 4860 c3 -5 8 -10 11 -10 2 0 4 5 4 10 0 6 -5 10 -11 10 -5 0
-7 -4 -4 -10z"/>
<path d="M3120 4813 c0 -17 8 -16 26 1 12 13 12 15 -6 13 -11 -1 -20 -7 -20
-14z"/>
<path d="M2703 4795 c-9 -25 4 -29 17 -6 7 15 7 21 0 21 -6 0 -13 -7 -17 -15z"/>
<path d="M3210 4790 c6 -11 15 -18 21 -14 6 4 6 11 -2 20 -17 21 -31 17 -19
-6z"/>
<path d="M2660 4731 c-6 -12 -6 -22 -1 -26 6 -3 15 3 21 14 6 12 6 22 1 26 -6
3 -15 -3 -21 -14z"/>
<path d="M3247 4743 c-4 -6 0 -18 7 -28 8 -11 16 -14 19 -8 4 6 0 18 -7 28 -8
11 -16 14 -19 8z"/>
<path d="M2620 4660 c-12 -23 2 -27 19 -6 8 9 8 16 2 20 -6 4 -15 -3 -21 -14z"/>
<path d="M3287 4673 c-4 -6 0 -18 7 -28 8 -11 16 -14 19 -8 4 6 0 18 -7 28 -8
11 -16 14 -19 8z"/>
<path d="M3256 4607 c3 -10 9 -15 12 -12 3 3 0 11 -7 18 -10 9 -11 8 -5 -6z"/>
<path d="M2576 4585 c-3 -8 -1 -15 3 -15 5 0 11 7 15 15 3 8 1 15 -3 15 -5 0
-11 -7 -15 -15z"/>
<path d="M3336 4585 c4 -8 10 -15 15 -15 4 0 6 7 3 15 -4 8 -10 15 -15 15 -4
0 -6 -7 -3 -15z"/>
<path d="M2535 4510 c-3 -5 -2 -10 4 -10 5 0 13 5 16 10 3 6 2 10 -4 10 -5 0
-13 -4 -16 -10z"/>
<path d="M3380 4510 c0 -5 5 -10 11 -10 5 0 7 5 4 10 -3 6 -8 10 -11 10 -2 0
-4 -4 -4 -10z"/>
<path d="M2491 4446 c-7 -8 -8 -17 -3 -20 6 -3 15 1 21 8 7 8 8 17 3 20 -6 3
-15 -1 -21 -8z"/>
<path d="M3420 4447 c0 -19 16 -31 24 -18 3 5 -1 14 -9 21 -12 10 -15 10 -15
-3z"/>
<path d="M932 4269 c2 -6 8 -10 13 -10 5 0 11 4 13 10 2 6 -4 11 -13 11 -9 0
-15 -5 -13 -11z"/>
<path d="M1000 4270 c0 -5 9 -10 20 -10 11 0 20 5 20 10 0 6 -9 10 -20 10 -11
0 -20 -4 -20 -10z"/>
<path d="M1080 4270 c0 -5 9 -10 20 -10 11 0 20 5 20 10 0 6 -9 10 -20 10 -11
0 -20 -4 -20 -10z"/>
<path d="M1160 4270 c0 -5 9 -10 20 -10 11 0 20 5 20 10 0 6 -9 10 -20 10 -11
0 -20 -4 -20 -10z"/>
<path d="M1240 4270 c0 -5 9 -10 20 -10 11 0 20 5 20 10 0 6 -9 10 -20 10 -11
0 -20 -4 -20 -10z"/>
<path d="M1320 4270 c0 -5 9 -10 20 -10 11 0 20 5 20 10 0 6 -9 10 -20 10 -11
0 -20 -4 -20 -10z"/>
<path d="M1400 4270 c0 -5 9 -10 20 -10 11 0 20 5 20 10 0 6 -9 10 -20 10 -11
0 -20 -4 -20 -10z"/>
<path d="M1480 4270 c0 -5 9 -10 20 -10 11 0 20 5 20 10 0 6 -9 10 -20 10 -11
0 -20 -4 -20 -10z"/>
<path d="M1550 4270 c0 -5 9 -10 20 -10 11 0 20 5 20 10 0 6 -9 10 -20 10 -11
0 -20 -4 -20 -10z"/>
<path d="M1630 4270 c0 -5 9 -10 20 -10 11 0 20 5 20 10 0 6 -9 10 -20 10 -11
0 -20 -4 -20 -10z"/>
<path d="M1710 4270 c0 -5 9 -10 20 -10 11 0 20 5 20 10 0 6 -9 10 -20 10 -11
0 -20 -4 -20 -10z"/>
<path d="M1790 4270 c0 -5 9 -10 20 -10 11 0 20 5 20 10 0 6 -9 10 -20 10 -11
0 -20 -4 -20 -10z"/>
<path d="M1870 4270 c0 -5 9 -10 20 -10 11 0 20 5 20 10 0 6 -9 10 -20 10 -11
0 -20 -4 -20 -10z"/>
<path d="M1950 4270 c0 -5 9 -10 20 -10 11 0 20 5 20 10 0 6 -9 10 -20 10 -11
0 -20 -4 -20 -10z"/>
<path d="M2030 4270 c0 -5 9 -10 20 -10 11 0 20 5 20 10 0 6 -9 10 -20 10 -11
0 -20 -4 -20 -10z"/>
<path d="M2110 4270 c0 -5 9 -10 20 -10 11 0 20 5 20 10 0 6 -9 10 -20 10 -11
0 -20 -4 -20 -10z"/>
<path d="M2190 4270 c0 -5 9 -10 20 -10 11 0 20 5 20 10 0 6 -9 10 -20 10 -11
0 -20 -4 -20 -10z"/>
<path d="M2270 4270 c0 -5 9 -10 20 -10 11 0 20 5 20 10 0 6 -9 10 -20 10 -11
0 -20 -4 -20 -10z"/>
<path d="M2350 4270 c0 -5 9 -10 20 -10 11 0 20 5 20 10 0 6 -9 10 -20 10 -11
0 -20 -4 -20 -10z"/>
<path d="M2430 4270 c0 -5 9 -10 20 -10 11 0 20 5 20 10 0 6 -9 10 -20 10 -11
0 -20 -4 -20 -10z"/>
<path d="M2510 4270 c0 -5 9 -10 20 -10 11 0 20 5 20 10 0 6 -9 10 -20 10 -11
0 -20 -4 -20 -10z"/>
<path d="M2590 4270 c0 -5 9 -10 20 -10 11 0 20 5 20 10 0 6 -9 10 -20 10 -11
0 -20 -4 -20 -10z"/>
<path d="M2670 4270 c0 -5 9 -10 20 -10 11 0 20 5 20 10 0 6 -9 10 -20 10 -11
0 -20 -4 -20 -10z"/>
<path d="M2750 4270 c0 -5 9 -10 20 -10 11 0 20 5 20 10 0 6 -9 10 -20 10 -11
0 -20 -4 -20 -10z"/>
<path d="M2830 4270 c0 -5 9 -10 20 -10 11 0 20 5 20 10 0 6 -9 10 -20 10 -11
0 -20 -4 -20 -10z"/>
<path d="M2910 4270 c0 -5 7 -10 15 -10 8 0 15 5 15 10 0 6 -7 10 -15 10 -8 0
-15 -4 -15 -10z"/>
<path d="M2980 4270 c0 -5 9 -10 20 -10 11 0 20 5 20 10 0 6 -9 10 -20 10 -11
0 -20 -4 -20 -10z"/>
<path d="M3060 4270 c0 -5 9 -10 20 -10 11 0 20 5 20 10 0 6 -9 10 -20 10 -11
0 -20 -4 -20 -10z"/>
<path d="M3140 4270 c0 -5 9 -10 20 -10 11 0 20 5 20 10 0 6 -9 10 -20 10 -11
0 -20 -4 -20 -10z"/>
<path d="M3220 4270 c0 -5 9 -10 20 -10 11 0 20 5 20 10 0 6 -9 10 -20 10 -11
0 -20 -4 -20 -10z"/>
<path d="M3300 4270 c0 -5 9 -10 20 -10 11 0 20 5 20 10 0 6 -9 10 -20 10 -11
0 -20 -4 -20 -10z"/>
<path d="M3380 4270 c0 -5 9 -10 20 -10 11 0 20 5 20 10 0 6 -9 10 -20 10 -11
0 -20 -4 -20 -10z"/>
<path d="M3460 4270 c0 -5 9 -10 20 -10 11 0 20 5 20 10 0 6 -9 10 -20 10 -11
0 -20 -4 -20 -10z"/>
<path d="M3540 4270 c0 -5 9 -10 20 -10 11 0 20 5 20 10 0 6 -9 10 -20 10 -11
0 -20 -4 -20 -10z"/>
<path d="M3620 4270 c0 -5 9 -10 20 -10 11 0 20 5 20 10 0 6 -9 10 -20 10 -11
0 -20 -4 -20 -10z"/>
<path d="M3700 4270 c0 -5 9 -10 20 -10 11 0 20 5 20 10 0 6 -9 10 -20 10 -11
0 -20 -4 -20 -10z"/>
<path d="M3780 4270 c0 -5 9 -10 20 -10 11 0 20 5 20 10 0 6 -9 10 -20 10 -11
0 -20 -4 -20 -10z"/>
<path d="M3860 4270 c0 -5 9 -10 20 -10 11 0 20 5 20 10 0 6 -9 10 -20 10 -11
0 -20 -4 -20 -10z"/>
<path d="M3940 4270 c0 -5 9 -10 20 -10 11 0 20 5 20 10 0 6 -9 10 -20 10 -11
0 -20 -4 -20 -10z"/>
<path d="M4020 4270 c0 -5 9 -10 20 -10 11 0 20 5 20 10 0 6 -9 10 -20 10 -11
0 -20 -4 -20 -10z"/>
<path d="M4100 4270 c0 -5 9 -10 20 -10 11 0 20 5 20 10 0 6 -9 10 -20 10 -11
0 -20 -4 -20 -10z"/>
<path d="M4180 4270 c0 -5 9 -10 20 -10 11 0 20 5 20 10 0 6 -9 10 -20 10 -11
0 -20 -4 -20 -10z"/>
<path d="M4260 4270 c0 -5 9 -10 20 -10 11 0 20 5 20 10 0 6 -9 10 -20 10 -11
0 -20 -4 -20 -10z"/>
<path d="M4340 4270 c0 -5 7 -10 15 -10 8 0 15 5 15 10 0 6 -7 10 -15 10 -8 0
-15 -4 -15 -10z"/>
<path d="M4410 4270 c0 -5 9 -10 20 -10 11 0 20 5 20 10 0 6 -9 10 -20 10 -11
0 -20 -4 -20 -10z"/>
<path d="M4490 4270 c0 -5 9 -10 20 -10 11 0 20 5 20 10 0 6 -9 10 -20 10 -11
0 -20 -4 -20 -10z"/>
<path d="M4570 4270 c0 -5 9 -10 20 -10 11 0 20 5 20 10 0 6 -9 10 -20 10 -11
0 -20 -4 -20 -10z"/>
<path d="M4650 4270 c0 -5 9 -10 20 -10 11 0 20 5 20 10 0 6 -9 10 -20 10 -11
0 -20 -4 -20 -10z"/>
<path d="M4730 4270 c0 -5 9 -10 20 -10 11 0 20 5 20 10 0 6 -9 10 -20 10 -11
0 -20 -4 -20 -10z"/>
<path d="M4810 4270 c0 -5 9 -10 20 -10 11 0 20 5 20 10 0 6 -9 10 -20 10 -11
0 -20 -4 -20 -10z"/>
<path d="M4890 4270 c0 -5 9 -10 20 -10 11 0 20 5 20 10 0 6 -9 10 -20 10 -11
0 -20 -4 -20 -10z"/>
<path d="M4972 4269 c2 -6 8 -10 13 -10 5 0 11 4 13 10 2 6 -4 11 -13 11 -9 0
-15 -5 -13 -11z"/>
<path d="M970 4207 c0 -19 16 -31 24 -18 3 5 -1 14 -9 21 -12 10 -15 10 -15
-3z"/>
<path d="M4941 4206 c-8 -10 -9 -16 -1 -21 5 -3 13 1 16 10 9 22 -1 29 -15 11z"/>
<path d="M1065 4179 c-4 -6 -5 -12 -2 -15 2 -3 7 2 10 11 7 17 1 20 -8 4z"/>
<path d="M2334 4180 l-1232 -5 930 -1576 c512 -867 937 -1576 944 -1576 7 0
11 4 8 9 -3 5 8 30 24 56 16 26 57 97 92 157 86 148 277 472 305 515 12 19 50
82 83 140 34 58 68 115 77 127 9 13 32 53 51 89 19 37 42 73 50 81 8 8 14 20
14 26 0 7 11 25 25 40 14 15 23 27 19 27 -3 0 -2 6 3 13 6 6 24 37 41 69 39
73 129 225 153 260 11 15 19 32 19 37 0 5 10 22 23 38 12 15 33 49 46 75 13
26 28 45 34 41 6 -3 7 -2 4 4 -5 8 75 158 92 173 3 3 15 23 27 45 35 66 462
794 644 1098 l22 37 -444 0 c-243 0 -528 1 -633 3 -104 1 -744 0 -1421 -3z
m2451 -47 c-961 -1632 -1813 -3068 -1821 -3067 -5 0 -91 140 -191 310 -101
170 -201 339 -223 377 -39 65 -409 693 -535 907 -34 58 -98 166 -142 240 -67
113 -726 1229 -740 1253 -2 4 822 7 1832 7 l1836 0 -16 -27z"/>
<path d="M2976 3933 c-3 -27 -2 -61 3 -78 8 -24 9 -15 10 48 1 42 -1 77 -3 77
-2 0 -6 -21 -10 -47z"/>
<path d="M2676 3810 c3 -14 17 -47 30 -75 17 -36 21 -42 17 -20 -3 17 -17 50
-30 75 -13 25 -21 34 -17 20z"/>
<path d="M3266 3771 c-28 -64 -35 -98 -12 -66 16 23 49 116 43 122 -2 2 -16
-23 -31 -56z"/>
<path d="M2346 3707 c29 -32 62 -66 74 -74 46 -33 2 23 -62 78 l-63 54 51 -58z"/>
<path d="M3567 3661 c-29 -27 -50 -52 -47 -54 6 -6 33 16 79 66 51 54 28 45
-32 -12z"/>
<path d="M2708 3451 c-113 -36 -192 -99 -269 -212 -23 -35 -67 -97 -96 -136
-29 -40 -49 -73 -44 -73 10 0 78 90 151 199 96 143 201 208 370 230 l65 8 -60
1 c-33 1 -86 -7 -117 -17z"/>
<path d="M3298 3434 c88 -43 186 -131 244 -221 22 -35 43 -61 46 -59 7 8 -54
107 -94 154 -62 72 -204 163 -251 162 -10 -1 15 -17 55 -36z"/>
<path d="M2250 3381 c30 -15 69 -31 85 -35 l30 -7 -30 19 c-27 17 -120 53
-134 52 -3 -1 19 -14 49 -29z"/>
<path d="M2750 3349 c-41 -10 -99 -31 -129 -45 -73 -36 -177 -137 -249 -242
-33 -48 -70 -93 -81 -100 -12 -7 -21 -17 -21 -23 0 -6 15 0 33 14 l34 26 74
-72 c117 -115 237 -165 449 -188 266 -29 512 43 664 194 49 49 71 66 79 58 6
-6 15 -11 19 -11 16 0 -154 220 -205 265 -67 61 -165 110 -260 129 -110 23
-310 21 -407 -5z m410 -11 c73 -31 140 -158 140 -268 0 -159 -103 -287 -263
-326 -66 -17 -143 -13 -131 7 3 6 -5 8 -21 5 -62 -11 -178 77 -226 172 -20 40
-24 61 -24 142 0 107 16 153 80 228 29 33 45 42 88 51 75 15 314 7 357 -11z
m-486 -69 c-46 -70 -68 -147 -61 -225 9 -119 87 -238 190 -289 28 -14 49 -25
46 -25 -16 0 -162 34 -199 46 -100 34 -230 124 -280 195 l-21 29 50 72 c68 98
143 170 221 213 36 19 70 35 77 35 6 0 -4 -23 -23 -51z m641 12 c88 -46 255
-234 255 -287 0 -9 -29 -45 -65 -80 -79 -77 -193 -136 -321 -164 -114 -25
-119 -24 -60 6 61 32 127 99 157 161 17 36 24 70 27 135 5 101 -9 151 -58 224
-31 45 -32 46 -9 39 13 -4 46 -19 74 -34z"/>
<path d="M2756 3297 c3 -10 9 -15 12 -12 3 3 0 11 -7 18 -10 9 -11 8 -5 -6z"/>
<path d="M3009 3282 c-13 -11 -46 -22 -73 -26 -148 -19 -214 -198 -115 -310
116 -133 333 -47 331 130 0 29 5 69 12 89 16 47 10 78 -21 110 -32 31 -98 35
-134 7z m122 -21 c48 -49 34 -114 -31 -141 -89 -37 -160 90 -83 150 37 29 79
26 114 -9z m-161 -46 c0 -79 52 -123 129 -110 l41 7 0 -38 c0 -51 -35 -119
-73 -145 l-32 -21 26 25 c30 27 53 66 45 74 -3 3 -8 -2 -12 -11 -10 -26 -25
-18 -18 10 5 19 4 25 -5 20 -6 -4 -11 -13 -11 -20 0 -7 -9 -22 -21 -34 -11
-12 -17 -27 -13 -34 4 -7 3 -8 -5 -4 -6 4 -9 15 -6 25 3 12 -1 17 -14 17 -10
0 -17 -5 -14 -11 2 -7 -3 -12 -12 -12 -8 0 -15 4 -15 8 0 14 -33 20 -41 7 -6
-9 -11 -2 -15 21 l-7 33 -14 -28 c-7 -16 -11 -22 -9 -12 3 9 2 19 -2 22 -11
11 -13 48 -2 41 13 -8 8 17 -5 27 -6 5 -5 8 3 8 7 0 11 4 8 9 -5 8 15 21 30
20 14 -1 22 26 13 43 -6 12 -6 18 0 18 6 0 8 7 5 15 -4 8 -2 15 4 15 6 0 12
-6 15 -12 2 -7 6 -1 9 15 6 30 -11 37 -32 12 -7 -8 -27 -15 -44 -15 -30 1 -30
1 -11 16 11 8 25 12 33 9 7 -2 10 -1 7 4 -5 9 15 18 48 20 13 1 17 -7 17 -34z
m-140 -91 c0 -8 -5 -12 -10 -9 -6 4 -8 11 -5 16 9 14 15 11 15 -7z m89 13 c-2
-1 -11 -8 -20 -15 -13 -9 -16 -9 -16 3 0 8 9 15 20 15 11 0 18 -1 16 -3z m-22
-182 c0 -8 -4 -12 -9 -9 -5 3 -6 10 -3 15 9 13 12 11 12 -6z"/>
<path d="M3080 3081 c0 -5 7 -12 16 -15 24 -9 28 -7 14 9 -14 17 -30 20 -30 6z"/>
<path d="M3098 3023 c7 -3 16 -2 19 1 4 3 -2 6 -13 5 -11 0 -14 -3 -6 -6z"/>
<path d="M2720 3279 c0 -5 5 -7 10 -4 6 3 10 8 10 11 0 2 -4 4 -10 4 -5 0 -10
-5 -10 -11z"/>
<path d="M3667 3355 c-20 -8 -47 -21 -60 -30 l-22 -17 25 7 c39 11 127 53 110
53 -8 1 -32 -6 -53 -13z"/>
<path d="M2090 3090 c-39 -6 -34 -7 35 -8 55 -1 75 1 65 8 -16 11 -32 11 -100
0z"/>
<path d="M3755 3059 c-19 -4 1 -7 54 -8 46 0 82 1 80 3 -8 8 -103 12 -134 5z"/>
<path d="M2265 2805 c-27 -14 -39 -22 -25 -19 38 9 107 42 90 43 -8 0 -37 -10
-65 -24z"/>
<path d="M2486 2779 c10 -12 44 -34 74 -49 185 -93 449 -110 700 -44 93 24
268 99 257 110 -3 3 -29 -7 -59 -22 -250 -127 -600 -151 -835 -57 -34 14 -81
38 -103 54 -47 34 -61 37 -34 8z"/>
<path d="M3604 2784 c31 -17 136 -55 136 -49 0 7 -133 65 -149 65 -10 -1 -5
-7 13 -16z"/>
<path d="M2349 2484 c-35 -37 -55 -62 -44 -56 26 14 120 110 114 116 -3 3 -34
-24 -70 -60z"/>
<path d="M3501 2510 c9 -13 45 -49 80 -79 l64 -56 -57 64 c-32 35 -68 71 -80
80 -23 15 -23 15 -7 -9z"/>
<path d="M2671 2419 c-32 -75 -32 -97 0 -31 17 35 29 66 25 69 -3 3 -14 -14
-25 -38z"/>
<path d="M3210 2431 c0 -16 52 -133 56 -128 6 5 -35 120 -46 131 -7 7 -10 5
-10 -3z"/>
<path d="M2945 2278 c-3 -18 -2 -51 3 -73 9 -38 10 -36 11 33 1 77 -4 92 -14
40z"/>
<path d="M1010 4137 c0 -19 16 -31 24 -18 3 5 -1 14 -9 21 -12 10 -15 10 -15
-3z"/>
<path d="M4901 4136 c-8 -10 -9 -16 -1 -21 5 -3 13 1 16 10 9 22 -1 29 -15 11z"/>
<path d="M1050 4060 c6 -11 15 -18 21 -14 6 4 6 11 -2 20 -17 21 -31 17 -19
-6z"/>
<path d="M4861 4066 c-8 -9 -8 -16 -2 -20 6 -4 15 3 21 14 12 23 -2 27 -19 6z"/>
<path d="M1087 4013 c-4 -6 0 -18 7 -28 8 -11 16 -14 19 -8 4 6 0 18 -7 28 -8
11 -16 14 -19 8z"/>
<path d="M4820 4001 c-6 -12 -6 -22 -1 -26 6 -3 15 3 21 14 6 12 6 22 1 26 -6
3 -15 -3 -21 -14z"/>
<path d="M1127 3943 c-4 -6 0 -18 7 -28 8 -11 16 -14 19 -8 4 6 0 18 -7 28 -8
11 -16 14 -19 8z"/>
<path d="M4780 3931 c-6 -12 -6 -22 -1 -26 6 -3 15 3 21 14 6 12 6 22 1 26 -6
3 -15 -3 -21 -14z"/>
<path d="M1170 3868 c0 -9 5 -20 11 -23 17 -11 20 0 4 21 -13 17 -14 17 -15 2z"/>
<path d="M4740 3858 c-12 -22 -12 -22 6 -6 10 10 15 20 12 24 -4 3 -12 -5 -18
-18z"/>
<path d="M1220 3790 c0 -5 5 -10 11 -10 5 0 7 5 4 10 -3 6 -8 10 -11 10 -2 0
-4 -4 -4 -10z"/>
<path d="M4695 3790 c-3 -5 -1 -10 4 -10 6 0 11 5 11 10 0 6 -2 10 -4 10 -3 0
-8 -4 -11 -10z"/>
<path d="M1260 3720 c0 -5 5 -10 11 -10 5 0 7 5 4 10 -3 6 -8 10 -11 10 -2 0
-4 -4 -4 -10z"/>
<path d="M4655 3720 c-3 -5 -1 -10 4 -10 6 0 11 5 11 10 0 6 -2 10 -4 10 -3 0
-8 -4 -11 -10z"/>
<path d="M1300 3650 c0 -5 5 -10 11 -10 5 0 7 5 4 10 -3 6 -8 10 -11 10 -2 0
-4 -4 -4 -10z"/>
<path d="M4615 3650 c-3 -5 -1 -10 4 -10 6 0 11 5 11 10 0 6 -2 10 -4 10 -3 0
-8 -4 -11 -10z"/>
<path d="M1336 3585 c4 -8 11 -15 16 -15 6 0 5 6 -2 15 -7 8 -14 15 -16 15 -2
0 -1 -7 2 -15z"/>
<path d="M4580 3585 c-7 -9 -8 -15 -2 -15 5 0 12 7 16 15 3 8 4 15 2 15 -2 0
-9 -7 -16 -15z"/>
<path d="M1376 3515 c4 -8 10 -15 15 -15 4 0 6 7 3 15 -4 8 -10 15 -15 15 -4
0 -6 -7 -3 -15z"/>
<path d="M4536 3515 c-3 -8 -1 -15 3 -15 5 0 11 7 15 15 3 8 1 15 -3 15 -5 0
-11 -7 -15 -15z"/>
<path d="M1416 3445 c4 -8 10 -15 15 -15 4 0 6 7 3 15 -4 8 -10 15 -15 15 -4
0 -6 -7 -3 -15z"/>
<path d="M4496 3445 c-3 -8 -1 -15 3 -15 5 0 11 7 15 15 3 8 1 15 -3 15 -5 0
-11 -7 -15 -15z"/>
<path d="M1460 3381 c0 -6 4 -13 10 -16 6 -3 7 1 4 9 -7 18 -14 21 -14 7z"/>
<path d="M4456 3373 c-6 -14 -5 -15 5 -6 7 7 10 15 7 18 -3 3 -9 -2 -12 -12z"/>
<path d="M1500 3310 c0 -5 5 -10 11 -10 5 0 7 5 4 10 -3 6 -8 10 -11 10 -2 0
-4 -4 -4 -10z"/>
<path d="M4415 3310 c-3 -5 -1 -10 4 -10 6 0 11 5 11 10 0 6 -2 10 -4 10 -3 0
-8 -4 -11 -10z"/>
<path d="M1540 3240 c0 -5 5 -10 11 -10 5 0 7 5 4 10 -3 6 -8 10 -11 10 -2 0
-4 -4 -4 -10z"/>
<path d="M4375 3240 c-3 -5 -1 -10 4 -10 6 0 11 5 11 10 0 6 -2 10 -4 10 -3 0
-8 -4 -11 -10z"/>
<path d="M4331 3176 c-8 -10 -9 -16 -1 -21 5 -3 13 1 16 10 9 22 -1 29 -15 11z"/>
<path d="M1580 3170 c0 -5 5 -10 11 -10 5 0 7 5 4 10 -3 6 -8 10 -11 10 -2 0
-4 -4 -4 -10z"/>
<path d="M1620 3100 c6 -11 15 -18 21 -14 6 4 6 11 -2 20 -17 21 -31 17 -19
-6z"/>
<path d="M4291 3106 c-8 -9 -8 -16 -2 -20 6 -4 15 3 21 14 12 23 -2 27 -19 6z"/>
<path d="M1657 3053 c-4 -6 0 -18 7 -28 8 -11 16 -14 19 -8 4 6 0 18 -7 28 -8
11 -16 14 -19 8z"/>
<path d="M4250 3041 c-6 -12 -6 -22 -1 -26 6 -3 15 3 21 14 6 12 6 22 1 26 -6
3 -15 -3 -21 -14z"/>
<path d="M1697 2983 c-4 -6 0 -18 7 -28 8 -11 16 -14 19 -8 4 6 0 18 -7 28 -8
11 -16 14 -19 8z"/>
<path d="M4210 2971 c-6 -12 -6 -22 -1 -26 6 -3 15 3 21 14 6 12 6 22 1 26 -6
3 -15 -3 -21 -14z"/>
<path d="M1740 2908 c0 -9 5 -20 11 -23 17 -11 20 0 4 21 -13 17 -14 17 -15 2z"/>
<path d="M4170 2901 c-7 -15 -7 -21 0 -21 12 0 25 28 17 36 -3 3 -10 -4 -17
-15z"/>
<path d="M1780 2837 c0 -19 16 -31 24 -18 3 5 -1 14 -9 21 -12 10 -15 10 -15
-3z"/>
<path d="M4131 2836 c-8 -10 -9 -16 -1 -21 5 -3 13 1 16 10 9 22 -1 29 -15 11z"/>
<path d="M1820 2767 c0 -19 16 -31 24 -18 3 5 -1 14 -9 21 -12 10 -15 10 -15
-3z"/>
<path d="M4091 2766 c-8 -10 -9 -16 -1 -21 5 -3 13 1 16 10 9 22 -1 29 -15 11z"/>
<path d="M1860 2697 c0 -19 16 -31 24 -18 3 5 -1 14 -9 21 -12 10 -15 10 -15
-3z"/>
<path d="M4051 2696 c-8 -10 -9 -16 -1 -21 5 -3 13 1 16 10 9 22 -1 29 -15 11z"/>
<path d="M1900 2627 c0 -19 16 -31 24 -18 3 5 -1 14 -9 21 -12 10 -15 10 -15
-3z"/>
<path d="M4011 2626 c-8 -10 -9 -16 -1 -21 5 -3 13 1 16 10 9 22 -1 29 -15 11z"/>
<path d="M1937 2573 c-4 -6 0 -18 7 -28 8 -11 16 -14 19 -8 4 6 0 18 -7 28 -8
11 -16 14 -19 8z"/>
<path d="M3970 2561 c-6 -12 -6 -22 -1 -26 6 -3 15 3 21 14 6 12 6 22 1 26 -6
3 -15 -3 -21 -14z"/>
<path d="M1980 2498 c0 -9 5 -20 11 -23 17 -11 20 0 4 21 -13 17 -14 17 -15 2z"/>
<path d="M3926 2485 c-3 -8 -1 -15 3 -15 5 0 11 7 15 15 3 8 1 15 -3 15 -5 0
-11 -7 -15 -15z"/>
<path d="M2030 2409 c7 -11 14 -19 16 -16 7 7 -7 37 -17 37 -6 0 -5 -9 1 -21z"/>
<path d="M3886 2415 c-3 -8 -1 -15 3 -15 5 0 11 7 15 15 3 8 1 15 -3 15 -5 0
-11 -7 -15 -15z"/>
<path d="M2070 2350 c0 -5 5 -10 11 -10 5 0 7 5 4 10 -3 6 -8 10 -11 10 -2 0
-4 -4 -4 -10z"/>
<path d="M3845 2350 c-3 -5 -1 -10 4 -10 6 0 11 5 11 10 0 6 -2 10 -4 10 -3 0
-8 -4 -11 -10z"/>
<path d="M2110 2280 c0 -5 5 -10 11 -10 5 0 7 5 4 10 -3 6 -8 10 -11 10 -2 0
-4 -4 -4 -10z"/>
<path d="M3805 2280 c-3 -5 -1 -10 4 -10 6 0 11 5 11 10 0 6 -2 10 -4 10 -3 0
-8 -4 -11 -10z"/>
<path d="M2150 2210 c0 -5 5 -10 11 -10 5 0 7 5 4 10 -3 6 -8 10 -11 10 -2 0
-4 -4 -4 -10z"/>
<path d="M3765 2210 c-3 -5 -1 -10 4 -10 6 0 11 5 11 10 0 6 -2 10 -4 10 -3 0
-8 -4 -11 -10z"/>
<path d="M2190 2140 c0 -5 5 -10 11 -10 5 0 7 5 4 10 -3 6 -8 10 -11 10 -2 0
-4 -4 -4 -10z"/>
<path d="M3725 2140 c-3 -5 -1 -10 4 -10 6 0 11 5 11 10 0 6 -2 10 -4 10 -3 0
-8 -4 -11 -10z"/>
<path d="M2226 2075 c4 -8 11 -15 16 -15 6 0 5 6 -2 15 -7 8 -14 15 -16 15 -2
0 -1 -7 2 -15z"/>
<path d="M3690 2075 c-7 -9 -8 -15 -2 -15 5 0 12 7 16 15 3 8 4 15 2 15 -2 0
-9 -7 -16 -15z"/>
<path d="M2266 2005 c4 -8 10 -15 15 -15 4 0 6 7 3 15 -4 8 -10 15 -15 15 -4
0 -6 -7 -3 -15z"/>
<path d="M3646 2005 c-3 -8 -1 -15 3 -15 5 0 11 7 15 15 3 8 1 15 -3 15 -5 0
-11 -7 -15 -15z"/>
<path d="M2306 1935 c4 -8 10 -15 15 -15 4 0 6 7 3 15 -4 8 -10 15 -15 15 -4
0 -6 -7 -3 -15z"/>
<path d="M3606 1935 c-3 -8 -1 -15 3 -15 5 0 11 7 15 15 3 8 1 15 -3 15 -5 0
-11 -7 -15 -15z"/>
<path d="M2350 1871 c0 -6 4 -13 10 -16 6 -3 7 1 4 9 -7 18 -14 21 -14 7z"/>
<path d="M3567 1873 c-4 -3 -7 -11 -7 -17 0 -6 5 -5 12 2 6 6 9 14 7 17 -3 3
-9 2 -12 -2z"/>
<path d="M3521 1806 c-8 -10 -9 -16 -1 -21 5 -3 13 1 16 10 9 22 -1 29 -15 11z"/>
<path d="M2390 1801 c0 -5 5 -13 10 -16 6 -3 10 -2 10 4 0 5 -4 13 -10 16 -5
3 -10 2 -10 -4z"/>
<path d="M2430 1737 c0 -19 16 -31 24 -18 3 5 -1 14 -9 21 -12 10 -15 10 -15
-3z"/>
<path d="M3481 1736 c-8 -10 -9 -16 -1 -21 5 -3 13 1 16 10 9 22 -1 29 -15 11z"/>
<path d="M2470 1667 c0 -19 16 -31 24 -18 3 5 -1 14 -9 21 -12 10 -15 10 -15
-3z"/>
<path d="M3441 1666 c-8 -10 -9 -16 -1 -21 5 -3 13 1 16 10 9 22 -1 29 -15 11z"/>
<path d="M2510 1590 c6 -11 15 -18 21 -14 6 4 6 11 -2 20 -17 21 -31 17 -19
-6z"/>
<path d="M3401 1596 c-8 -9 -8 -16 -2 -20 6 -4 15 3 21 14 12 23 -2 27 -19 6z"/>
<path d="M2547 1543 c-4 -6 0 -18 7 -28 8 -11 16 -14 19 -8 4 6 0 18 -7 28 -8
11 -16 14 -19 8z"/>
<path d="M3360 1531 c-6 -12 -6 -22 -1 -26 6 -3 15 3 21 14 6 12 6 22 1 26 -6
3 -15 -3 -21 -14z"/>
<path d="M2587 1473 c-4 -6 0 -18 7 -28 8 -11 16 -14 19 -8 4 6 0 18 -7 28 -8
11 -16 14 -19 8z"/>
<path d="M3320 1461 c-6 -12 -6 -22 -1 -26 6 -3 15 3 21 14 6 12 6 22 1 26 -6
3 -15 -3 -21 -14z"/>
<path d="M2630 1398 c0 -9 5 -20 11 -23 17 -11 20 0 4 21 -13 17 -14 17 -15 2z"/>
<path d="M3280 1391 c-7 -15 -7 -21 0 -21 12 0 25 28 17 36 -3 3 -10 -4 -17
-15z"/>
<path d="M2670 1326 c0 -17 14 -29 23 -20 8 8 -3 34 -14 34 -5 0 -9 -6 -9 -14z"/>
<path d="M3241 1326 c-8 -10 -9 -16 -1 -21 5 -3 13 1 16 10 9 22 -1 29 -15 11z"/>
<path d="M2710 1257 c0 -19 16 -31 24 -18 3 5 -1 14 -9 21 -12 10 -15 10 -15
-3z"/>
<path d="M3201 1256 c-8 -10 -9 -16 -1 -21 5 -3 13 1 16 10 9 22 -1 29 -15 11z"/>
<path d="M2750 1187 c0 -19 16 -31 24 -18 3 5 -1 14 -9 21 -12 10 -15 10 -15
-3z"/>
<path d="M3160 1185 c-8 -9 -8 -15 -2 -15 12 0 26 19 19 26 -2 2 -10 -2 -17
-11z"/>
<path d="M2796 1115 c4 -8 11 -15 16 -15 6 0 5 6 -2 15 -7 8 -14 15 -16 15 -2
0 -1 -7 2 -15z"/>
<path d="M3120 1115 c-7 -9 -8 -15 -2 -15 5 0 12 7 16 15 3 8 4 15 2 15 -2 0
-9 -7 -16 -15z"/>
<path d="M2836 1045 c4 -8 10 -15 15 -15 4 0 6 7 3 15 -4 8 -10 15 -15 15 -4
0 -6 -7 -3 -15z"/>
<path d="M3076 1045 c-3 -8 -1 -15 3 -15 5 0 11 7 15 15 3 8 1 15 -3 15 -5 0
-11 -7 -15 -15z"/>
<path d="M2876 975 c4 -8 10 -15 15 -15 4 0 6 7 3 15 -4 8 -10 15 -15 15 -4 0
-6 -7 -3 -15z"/>
<path d="M3036 975 c-3 -8 -1 -15 3 -15 5 0 11 7 15 15 3 8 1 15 -3 15 -5 0
-11 -7 -15 -15z"/>
<path d="M2920 911 c0 -6 4 -13 10 -16 6 -3 7 1 4 9 -7 18 -14 21 -14 7z"/>
<path d="M2996 904 c-5 -14 -4 -15 9 -4 17 14 19 20 6 20 -5 0 -12 -7 -15 -16z"/>
<path d="M2956 851 c-4 -5 -2 -12 3 -15 5 -4 12 -2 15 3 4 5 2 12 -3 15 -5 4
-12 2 -15 -3z"/>
<path d="M1560 2871 c-6 -12 -6 -22 -1 -26 6 -3 15 3 21 14 6 12 6 22 1 26 -6
3 -15 -3 -21 -14z"/>
<path d="M1610 2833 c1 -18 18 -35 24 -24 4 6 2 11 -4 11 -6 0 -8 5 -5 10 3 6
1 10 -4 10 -6 0 -11 -3 -11 -7z"/>
<path d="M1521 2806 c-7 -8 -8 -17 -3 -20 6 -3 15 1 21 8 7 8 8 17 3 20 -6 3
-15 -1 -21 -8z"/>
<path d="M1485 2730 c-3 -5 -2 -10 4 -10 5 0 13 5 16 10 3 6 2 10 -4 10 -5 0
-13 -4 -16 -10z"/>
<path d="M1446 2665 c-3 -8 -1 -15 3 -15 5 0 11 7 15 15 3 8 1 15 -3 15 -5 0
-11 -7 -15 -15z"/>
<path d="M1405 2600 c-3 -5 -2 -10 4 -10 5 0 13 5 16 10 3 6 2 10 -4 10 -5 0
-13 -4 -16 -10z"/>
<path d="M1365 2530 c-3 -5 -2 -10 4 -10 5 0 13 5 16 10 3 6 2 10 -4 10 -5 0
-13 -4 -16 -10z"/>
<path d="M1326 2465 c-3 -8 -1 -15 3 -15 5 0 11 7 15 15 3 8 1 15 -3 15 -5 0
-11 -7 -15 -15z"/>
<path d="M1285 2400 c-3 -5 -2 -10 4 -10 5 0 13 5 16 10 3 6 2 10 -4 10 -5 0
-13 -4 -16 -10z"/>
<path d="M1245 2330 c-3 -5 -2 -10 4 -10 5 0 13 5 16 10 3 6 2 10 -4 10 -5 0
-13 -4 -16 -10z"/>
<path d="M1210 2265 c-7 -9 -8 -15 -2 -15 5 0 12 7 16 15 3 8 4 15 2 15 -2 0
-9 -7 -16 -15z"/>
<path d="M1166 2193 c-6 -14 -5 -15 5 -6 7 7 10 15 7 18 -3 3 -9 -2 -12 -12z"/>
<path d="M1125 2130 c-3 -5 -1 -10 4 -10 6 0 11 5 11 10 0 6 -2 10 -4 10 -3 0
-8 -4 -11 -10z"/>
<path d="M1085 2061 c-6 -11 9 -23 19 -14 9 9 7 23 -3 23 -6 0 -12 -4 -16 -9z"/>
<path d="M1158 2043 c7 -3 16 -2 19 1 4 3 -2 6 -13 5 -11 0 -14 -3 -6 -6z"/>
<path d="M1147 2023 c-9 -2 -15 -9 -12 -14 9 -14 22 -11 29 6 3 8 4 14 3 14
-1 -1 -10 -3 -20 -6z"/>
<path d="M1050 2001 c-6 -12 -6 -22 -1 -26 6 -3 15 3 21 14 6 12 6 22 1 26 -6
3 -15 -3 -21 -14z"/>
<path d="M1011 1936 c-7 -8 -8 -17 -3 -20 6 -3 15 1 21 8 7 8 8 17 3 20 -6 3
-15 -1 -21 -8z"/>
<path d="M971 1866 c-7 -8 -8 -17 -3 -20 6 -3 15 1 21 8 7 8 8 17 3 20 -6 3
-15 -1 -21 -8z"/>
<path d="M935 1800 c-3 -5 1 -10 9 -10 9 0 16 5 16 10 0 6 -4 10 -9 10 -6 0
-13 -4 -16 -10z"/>
<path d="M1008 1793 c6 -2 18 -2 25 0 6 3 1 5 -13 5 -14 0 -19 -2 -12 -5z"/>
<path d="M1088 1793 c6 -2 18 -2 25 0 6 3 1 5 -13 5 -14 0 -19 -2 -12 -5z"/>
<path d="M1168 1793 c6 -2 18 -2 25 0 6 3 1 5 -13 5 -14 0 -19 -2 -12 -5z"/>
<path d="M1248 1793 c6 -2 18 -2 25 0 6 3 1 5 -13 5 -14 0 -19 -2 -12 -5z"/>
<path d="M1318 1793 c6 -2 18 -2 25 0 6 3 1 5 -13 5 -14 0 -19 -2 -12 -5z"/>
<path d="M1398 1793 c6 -2 18 -2 25 0 6 3 1 5 -13 5 -14 0 -19 -2 -12 -5z"/>
<path d="M1478 1793 c6 -2 18 -2 25 0 6 3 1 5 -13 5 -14 0 -19 -2 -12 -5z"/>
<path d="M1558 1793 c6 -2 18 -2 25 0 6 3 1 5 -13 5 -14 0 -19 -2 -12 -5z"/>
<path d="M1638 1793 c6 -2 18 -2 25 0 6 3 1 5 -13 5 -14 0 -19 -2 -12 -5z"/>
<path d="M1718 1793 c6 -2 18 -2 25 0 6 3 1 5 -13 5 -14 0 -19 -2 -12 -5z"/>
<path d="M1798 1793 c6 -2 18 -2 25 0 6 3 1 5 -13 5 -14 0 -19 -2 -12 -5z"/>
<path d="M1878 1793 c6 -2 18 -2 25 0 6 3 1 5 -13 5 -14 0 -19 -2 -12 -5z"/>
<path d="M1958 1793 c6 -2 18 -2 25 0 6 3 1 5 -13 5 -14 0 -19 -2 -12 -5z"/>
<path d="M2038 1793 c6 -2 18 -2 25 0 6 3 1 5 -13 5 -14 0 -19 -2 -12 -5z"/>
<path d="M2118 1793 c6 -2 18 -2 25 0 6 3 1 5 -13 5 -14 0 -19 -2 -12 -5z"/>
<path d="M2188 1793 c6 -2 18 -2 25 0 6 3 1 5 -13 5 -14 0 -19 -2 -12 -5z"/>
<path d="M4370 2900 c0 -5 5 -10 10 -10 6 0 10 5 10 10 0 6 -4 10 -10 10 -5 0
-10 -4 -10 -10z"/>
<path d="M4390 2805 c0 -8 4 -15 10 -15 5 0 7 7 4 15 -4 8 -8 15 -10 15 -2 0
-4 -7 -4 -15z"/>
<path d="M4430 2730 c0 -5 5 -10 11 -10 5 0 7 5 4 10 -3 6 -8 10 -11 10 -2 0
-4 -4 -4 -10z"/>
<path d="M4466 2665 c4 -8 10 -15 15 -15 4 0 6 7 3 15 -4 8 -10 15 -15 15 -4
0 -6 -7 -3 -15z"/>
<path d="M4510 2600 c0 -5 5 -10 11 -10 5 0 7 5 4 10 -3 6 -8 10 -11 10 -2 0
-4 -4 -4 -10z"/>
<path d="M4550 2530 c0 -5 5 -10 11 -10 5 0 7 5 4 10 -3 6 -8 10 -11 10 -2 0
-4 -4 -4 -10z"/>
<path d="M4586 2465 c4 -8 10 -15 15 -15 4 0 6 7 3 15 -4 8 -10 15 -15 15 -4
0 -6 -7 -3 -15z"/>
<path d="M4630 2400 c0 -5 5 -10 11 -10 5 0 7 5 4 10 -3 6 -8 10 -11 10 -2 0
-4 -4 -4 -10z"/>
<path d="M4670 2330 c0 -5 5 -10 11 -10 5 0 7 5 4 10 -3 6 -8 10 -11 10 -2 0
-4 -4 -4 -10z"/>
<path d="M4706 2265 c4 -8 11 -15 16 -15 6 0 5 6 -2 15 -7 8 -14 15 -16 15 -2
0 -1 -7 2 -15z"/>
<path d="M4750 2201 c0 -6 4 -13 10 -16 6 -3 7 1 4 9 -7 18 -14 21 -14 7z"/>
<path d="M4786 2125 c4 -8 10 -12 15 -9 11 6 2 24 -11 24 -5 0 -7 -7 -4 -15z"/>
<path d="M4820 2067 c0 -19 16 -31 24 -18 3 5 -1 14 -9 21 -12 10 -15 10 -15
-3z"/>
<path d="M4857 2013 c-4 -6 0 -18 7 -28 8 -11 16 -14 19 -8 4 6 0 18 -7 28 -8
11 -16 14 -19 8z"/>
<path d="M4900 1937 c0 -19 16 -31 24 -18 3 5 -1 14 -9 21 -12 10 -15 10 -15
-3z"/>
<path d="M3930 1868 c0 -7 11 -13 25 -13 14 0 25 4 25 8 0 5 5 5 10 2 6 -3 10
-1 10 4 0 6 -16 11 -35 11 -21 0 -35 -5 -35 -12z"/>
<path d="M4030 1866 c0 -8 -10 -16 -22 -18 -33 -5 -34 -26 -1 -22 28 3 56 30
47 45 -8 14 -24 10 -24 -5z"/>
<path d="M4077 1866 c-4 -9 -2 -16 3 -16 5 0 7 -7 4 -15 -4 -8 -10 -15 -16
-15 -5 0 -6 6 -2 13 5 7 1 7 -12 -3 -10 -8 -21 -16 -24 -18 -2 -1 24 -2 58 -1
60 2 84 14 40 21 -12 2 -28 13 -34 26 -9 19 -13 20 -17 8z"/>
<path d="M4634 1856 c1 -25 7 -26 49 -6 27 13 36 30 17 30 -5 0 -10 -4 -10 -8
0 -5 -7 -9 -15 -9 -8 0 -15 4 -15 9 0 4 -6 8 -14 8 -8 0 -13 -9 -12 -24z"/>
<path d="M4750 1869 c0 -6 -7 -8 -17 -5 -15 6 -15 4 2 -14 10 -11 19 -19 20
-18 1 2 8 13 14 26 10 18 9 22 -4 22 -8 0 -15 -5 -15 -11z"/>
<path d="M4940 1867 c0 -19 16 -31 24 -18 3 5 -1 14 -9 21 -12 10 -15 10 -15
-3z"/>
<path d="M4509 1868 c-9 -31 -6 -50 8 -55 15 -6 14 -7 -3 -14 -18 -7 -18 -8 1
-8 11 -1 26 9 34 20 12 20 11 21 -8 16 -20 -5 -27 7 -22 36 1 6 -8 11 -10 5z"/>
<path d="M4575 1860 c-3 -5 -1 -10 4 -10 6 0 11 5 11 10 0 6 -2 10 -4 10 -3 0
-8 -4 -11 -10z"/>
<path d="M4105 1850 c3 -5 13 -10 21 -10 8 0 14 5 14 10 0 6 -9 10 -21 10 -11
0 -17 -4 -14 -10z"/>
<path d="M4157 1854 c-12 -12 -8 -24 9 -24 8 0 12 -4 9 -10 -3 -5 0 -10 8 -10
19 0 16 44 -3 48 -9 1 -19 0 -23 -4z"/>
<path d="M4293 1842 c-10 -14 -14 -15 -21 -3 -7 9 -12 10 -16 2 -4 -6 -4 -11
1 -11 4 0 1 -5 -7 -10 -13 -9 -13 -11 0 -20 8 -5 24 -9 35 -9 16 1 15 2 -5 8
-24 7 -24 8 -5 18 11 6 26 8 33 6 6 -3 12 2 12 11 0 22 -14 27 -27 8z"/>
<path d="M4357 1838 c-6 -21 -2 -36 7 -27 10 11 16 49 8 49 -5 0 -12 -10 -15
-22z"/>
<path d="M4402 1844 c-15 -16 -8 -34 14 -34 8 0 13 4 9 9 -3 5 5 13 17 17 22
7 22 7 3 15 -27 10 -28 10 -43 -7z"/>
<path d="M4592 1844 c-7 -8 -8 -14 -3 -14 10 0 25 19 20 25 -2 1 -10 -3 -17
-11z"/>
<path d="M4777 1853 c-12 -11 -7 -23 7 -17 8 3 17 1 20 -5 4 -6 13 -8 21 -5 8
4 12 10 9 15 -3 5 -9 7 -14 4 -5 -3 -11 -1 -15 5 -7 12 -19 13 -28 3z"/>
<path d="M3945 1840 c-3 -5 1 -10 9 -10 9 0 16 5 16 10 0 6 -4 10 -9 10 -6 0
-13 -4 -16 -10z"/>
<path d="M4210 1820 c0 -5 5 -10 10 -10 6 0 10 5 10 10 0 6 -4 10 -10 10 -5 0
-10 -4 -10 -10z"/>
<path d="M4360 1800 c-24 -8 -23 -8 8 -9 17 -1 32 4 32 9 0 11 -5 11 -40 0z"/>
<path d="M4435 1800 c-19 -8 -19 -9 3 -9 12 -1 22 4 22 9 0 6 -1 10 -2 9 -2 0
-12 -4 -23 -9z"/>
<path d="M4970 1800 c0 -5 7 -10 16 -10 8 0 12 5 9 10 -3 6 -10 10 -16 10 -5
0 -9 -4 -9 -10z"/>
<path d="M3718 1793 c7 -3 16 -2 19 1 4 3 -2 6 -13 5 -11 0 -14 -3 -6 -6z"/>
<path d="M3788 1793 c6 -2 18 -2 25 0 6 3 1 5 -13 5 -14 0 -19 -2 -12 -5z"/>
<path d="M3868 1793 c6 -2 18 -2 25 0 6 3 1 5 -13 5 -14 0 -19 -2 -12 -5z"/>
<path d="M3948 1793 c6 -2 18 -2 25 0 6 3 1 5 -13 5 -14 0 -19 -2 -12 -5z"/>
<path d="M4028 1793 c6 -2 18 -2 25 0 6 3 1 5 -13 5 -14 0 -19 -2 -12 -5z"/>
<path d="M4108 1793 c6 -2 18 -2 25 0 6 3 1 5 -13 5 -14 0 -19 -2 -12 -5z"/>
<path d="M4188 1793 c6 -2 18 -2 25 0 6 3 1 5 -13 5 -14 0 -19 -2 -12 -5z"/>
<path d="M4588 1793 c7 -3 16 -2 19 1 4 3 -2 6 -13 5 -11 0 -14 -3 -6 -6z"/>
<path d="M4658 1793 c6 -2 18 -2 25 0 6 3 1 5 -13 5 -14 0 -19 -2 -12 -5z"/>
<path d="M4738 1793 c6 -2 18 -2 25 0 6 3 1 5 -13 5 -14 0 -19 -2 -12 -5z"/>
<path d="M4818 1793 c6 -2 18 -2 25 0 6 3 1 5 -13 5 -14 0 -19 -2 -12 -5z"/>
<path d="M4898 1793 c6 -2 18 -2 25 0 6 3 1 5 -13 5 -14 0 -19 -2 -12 -5z"/>
<path d="M1718 5274 c-84 -75 -159 -142 -167 -149 -11 -11 10 -50 124 -234 75
-122 141 -221 146 -221 5 0 -1 17 -14 38 -157 250 -240 387 -241 397 0 6 51
58 114 115 184 165 202 182 197 187 -3 2 -74 -57 -159 -133z"/>
<path d="M610 3193 c0 -170 -1 -179 -21 -191 -12 -7 -18 -16 -15 -19 3 -3 12
0 21 7 13 11 15 -1 15 -109 0 -74 4 -121 10 -121 6 0 10 45 10 116 l0 116 63
-74 c34 -40 79 -94 99 -118 21 -25 38 -40 38 -35 0 6 -39 58 -87 116 -49 58
-94 112 -100 121 -11 12 2 25 82 83 53 38 100 74 105 80 9 11 -19 38 -192 183
l-28 24 0 -179z m112 66 c46 -39 87 -74 91 -78 6 -6 -164 -141 -178 -141 -3 0
-5 65 -5 145 0 80 2 145 4 145 3 0 42 -32 88 -71z"/>
<path d="M5010 3064 c0 -196 4 -304 10 -304 6 0 10 104 10 291 0 229 3 290 13
286 6 -2 94 -39 194 -82 l183 -77 3 -211 3 -212 -1 218 0 219 -207 88 -208 88
0 -304z"/>
<path d="M1822 1353 c-2 -54 -8 -63 -30 -41 -7 7 -12 8 -12 2 0 -6 9 -19 20
-29 19 -17 20 -32 22 -374 2 -351 3 -352 8 -118 l5 238 115 -96 c63 -52 119
-95 125 -95 5 1 1 8 -10 18 -12 9 -69 57 -128 106 l-107 89 0 105 c0 99 1 104
18 90 121 -103 216 -178 225 -178 13 0 22 -8 -125 114 l-117 97 -4 62 -3 62
-2 -52z"/>
<path d="M3932 1353 c-2 -54 -8 -63 -30 -41 -7 7 -12 8 -12 2 0 -6 9 -19 20
-29 19 -17 20 -31 20 -226 0 -198 -1 -209 -20 -221 -26 -16 -26 -32 0 -18 19
10 20 6 23 -127 l3 -138 2 146 2 146 112 94 c62 52 121 101 131 109 18 15 12
21 -111 123 l-131 108 -4 62 -3 62 -2 -52z m138 -198 c52 -43 96 -81 98 -86 2
-6 -137 -130 -210 -188 -17 -13 -18 -3 -18 184 0 188 1 197 18 183 9 -8 60
-50 112 -93z"/>
</g>
</svg>
