<svg height="22pt" viewBox="-63 0 479 480" width="22pt" xmlns="http://www.w3.org/2000/svg" xmlns:xlink="http://www.w3.org/1999/xlink"><linearGradient id="a"><stop offset="0" stop-color="#12c2e9"/><stop offset=".5" stop-color="#c471ed"/><stop offset="1" stop-color="#f64f59"/></linearGradient><linearGradient id="b" gradientUnits="userSpaceOnUse" x1="176.5" x2="176.5" xlink:href="#a" y1="536.552" y2="-51.912"/><linearGradient id="c" gradientUnits="userSpaceOnUse" x1="144.5" x2="144.5" xlink:href="#a" y1="538.536" y2="-53.896"/><linearGradient id="d" gradientUnits="userSpaceOnUse" x1="232.5" x2="232.5" xlink:href="#a" y1="541.824" y2="-54.448"/><linearGradient id="e" gradientUnits="userSpaceOnUse" x1="56.5" x2="56.5" xlink:href="#a" y1="537.656" y2="-58.616"/><path d="m312.5 0h-208c-19.261719.0351562-35.765625 13.792969-39.265625 32.734375-16.253906 3.027344-28.972656 15.746094-32 32-18.941406 3.5-32.699219 20.003906-32.734375 39.265625v336c.027344 22.082031 17.917969 39.972656 40 40h208c19.261719-.035156 35.765625-13.792969 39.265625-32.734375 16.253906-3.027344 28.972656-15.746094 32-32 18.941406-3.5 32.699219-20.003906 32.734375-39.265625v-336c-.027344-22.082031-17.917969-39.9726562-40-40zm-40 440c0 13.253906-10.746094 24-24 24h-208c-13.253906 0-24-10.746094-24-24v-336c0-13.253906 10.746094-24 24-24h208c13.253906 0 24 10.746094 24 24zm32-32c-.042969 10.132812-6.445312 19.148438-16 22.527344v-326.527344c-.027344-22.082031-17.917969-39.972656-40-40h-198.527344c3.378906-9.554688 12.394532-15.957031 22.527344-16h208c13.253906 0 24 10.746094 24 24zm32-32c-.042969 10.132812-6.445312 19.148438-16 22.527344v-326.527344c-.027344-22.082031-17.917969-39.972656-40-40h-198.527344c3.378906-9.554688 12.394532-15.957031 22.527344-16h208c13.253906 0 24 10.746094 24 24zm0 0" fill="url(#b)"/><path d="m188.5 192c-17.785156-.039062-34.367188 8.984375-44 23.9375-9.632812-14.953125-26.214844-23.976562-44-23.9375-28.484375-.1875-51.746094 22.714844-52 51.199219 0 27.792969 66.792969 108.800781 96 108.800781s96-81.007812 96-108.800781c-.253906-28.484375-23.515625-51.386719-52-51.199219zm-44 144c-17.945312 0-80-72-80-92.800781 0-19.882813 16.117188-36 36-36s36 16.117187 36 36c0 4.417969 3.582031 8 8 8s8-3.582031 8-8c0-19.882813 16.117188-36 36-36s36 16.117187 36 36c0 20.800781-62.054688 92.800781-80 92.800781zm0 0" fill="url(#c)"/><path d="m248.5 416h-8v-8c0-4.417969-3.582031-8-8-8s-8 3.582031-8 8v8h-8c-4.417969 0-8 3.582031-8 8s3.582031 8 8 8h8v8c0 4.417969 3.582031 8 8 8s8-3.582031 8-8v-8h8c4.417969 0 8-3.582031 8-8s-3.582031-8-8-8zm0 0" fill="url(#d)"/><path d="m48.5 136c0 4.417969 3.582031 8 8 8s8-3.582031 8-8v-8h8c4.417969 0 8-3.582031 8-8s-3.582031-8-8-8h-8v-8c0-4.417969-3.582031-8-8-8s-8 3.582031-8 8v8h-8c-4.417969 0-8 3.582031-8 8s3.582031 8 8 8h8zm0 0" fill="url(#e)"/></svg>