<svg id="Layer_1" height="25" viewBox="0 0 128 128" width="25" xmlns="http://www.w3.org/2000/svg" data-name="Layer 1"><path d="m82.823 100.592a36.593 36.593 0 1 1 25.177-63.136 48 48 0 1 0 0 53.088 36.456 36.456 0 0 1 -25.177 10.048z" fill="#ffd92d"/><path d="m30.323 84.533 11.02-10.264-11.02-10.263 11.02-10.264-11.02-10.264 11.02-10.263-5.343-4.978a47.98 47.98 0 0 0 .006 71.531l5.337-4.968z" fill="#715d56"/><path d="m26.288 51.395h4.861v4.861h-4.861z" fill="#54e260" transform="matrix(.707 -.707 .707 .707 -29.649 36.072)"/><path d="m26.288 71.744h4.861v4.861h-4.861z" fill="#54e260" transform="matrix(.707 -.707 .707 .707 -44.038 42.032)"/><path d="m96.149 48.9c0 3.344-6.054 13.7-6.054 13.7s-6.054-10.356-6.054-13.7a6.054 6.054 0 0 1 12.108 0z" fill="#54e260"/><path d="m81.887 59.371c0 3.343-6.054 13.7-6.054 13.7s-6.054-10.356-6.054-13.7a6.054 6.054 0 0 1 12.108 0z" fill="#54e260"/><path d="m59.338 60.85h-.484v-.484a1.75 1.75 0 0 0 -3.5 0v.484h-.483a1.75 1.75 0 0 0 0 3.5h.483v.483a1.75 1.75 0 0 0 3.5 0v-.483h.484a1.75 1.75 0 1 0 0-3.5z" fill="#ffd92d"/><path d="m96.149 76.083h-.484v-.483a1.75 1.75 0 0 0 -3.5 0v.483h-.483a1.75 1.75 0 1 0 0 3.5h.483v.484a1.75 1.75 0 0 0 3.5 0v-.484h.484a1.75 1.75 0 0 0 0-3.5z" fill="#ffd92d"/><g fill="#6c2b00"><path d="m75.833 33.769a1.75 1.75 0 0 0 -1.75 1.75v16.252a7.814 7.814 0 0 0 -6.054 7.6c0 3.634 5.243 12.785 6.294 14.583a1.749 1.749 0 0 0 3.021 0c1.056-1.799 6.293-10.954 6.293-14.584a7.813 7.813 0 0 0 -6.054-7.6v-16.251a1.749 1.749 0 0 0 -1.75-1.75zm4.3 25.6c0 1.587-2.191 6.223-4.3 10.127-2.113-3.9-4.3-8.538-4.3-10.127a4.3 4.3 0 0 1 8.608 0z"/><path d="m53.451 20a1.749 1.749 0 0 0 .531-.082c.264-.084.527-.165.792-.244a1.75 1.75 0 0 0 -1-3.354q-.428.128-.852.262a1.75 1.75 0 0 0 .529 3.418z"/><path d="m106.79 89.274a34.85 34.85 0 1 1 -18.445-59.674v13.247a1.75 1.75 0 0 0 1.755 1.753 4.308 4.308 0 0 1 4.3 4.3c0 1.587-2.191 6.222-4.3 10.125-2.113-3.9-4.3-8.538-4.3-10.125a1.75 1.75 0 0 0 -3.5 0c0 3.633 5.243 12.785 6.293 14.582a1.749 1.749 0 0 0 3.022 0c1.042-1.797 6.285-10.949 6.285-14.582a7.812 7.812 0 0 0 -6.054-7.6v-10.951a34.721 34.721 0 0 1 14.945 8.376 1.75 1.75 0 0 0 2.662-2.239 49.685 49.685 0 0 0 -41.448-22.236 50.311 50.311 0 0 0 -8.212.675 1.75 1.75 0 1 0 .575 3.453 46.623 46.623 0 0 1 7.637-.628 46.141 46.141 0 0 1 29.967 11.02 38.343 38.343 0 1 0 0 70.46 46.269 46.269 0 0 1 -62.007-68.63l2.81 2.617-9.645 8.983a1.75 1.75 0 0 0 0 2.561l4.849 4.516a1.75 1.75 0 1 0 2.386-2.56l-3.474-3.237 9.645-8.983a1.749 1.749 0 0 0 0-2.56l-3.936-3.666a46.926 46.926 0 0 1 9.1-5.837 1.75 1.75 0 0 0 -1.538-3.145 49.755 49.755 0 1 0 63.289 72.224 1.75 1.75 0 0 0 -2.662-2.239z"/><path d="m57.1 66.583a1.75 1.75 0 0 0 1.75-1.75v-.483h.484a1.75 1.75 0 1 0 0-3.5h-.484v-.484a1.75 1.75 0 0 0 -3.5 0v.484h-.483a1.75 1.75 0 0 0 0 3.5h.483v.483a1.75 1.75 0 0 0 1.75 1.75z"/><path d="m93.915 81.817a1.749 1.749 0 0 0 1.75-1.75v-.484h.484a1.75 1.75 0 0 0 0-3.5h-.484v-.483a1.75 1.75 0 0 0 -3.5 0v.483h-.483a1.75 1.75 0 1 0 0 3.5h.483v.484a1.75 1.75 0 0 0 1.75 1.75z"/><path d="m43.093 74.27a1.752 1.752 0 0 0 -.557-1.281l-9.645-8.983 9.645-8.984a1.75 1.75 0 0 0 -2.386-2.56l-11.02 10.264a1.749 1.749 0 0 0 0 2.56l9.645 8.984-9.645 8.983a1.75 1.75 0 0 0 0 2.561l11.02 10.263a1.75 1.75 0 0 0 2.386-2.56l-9.645-8.984 9.645-8.983a1.751 1.751 0 0 0 .557-1.28z"/></g></svg>