<?xml version="1.0" standalone="no"?>
<!DOCTYPE svg PUBLIC "-//W3C//DTD SVG 20010904//EN"
 "http://www.w3.org/TR/2001/REC-SVG-20010904/DTD/svg10.dtd">
<svg version="1.0" xmlns="http://www.w3.org/2000/svg"
 width="730pt" height="50pt" viewBox="0 0 1280.000000 600.000000"
 preserveAspectRatio="xMidYMid meet">

<g transform="translate(0.000000,600.000000) scale(0.100000,-0.100000)"
fill="rgb(120, 71, 65)" stroke="none">
<path d="M2100 5744 c-224 -40 -456 -163 -625 -329 -235 -231 -367 -565 -351
-885 15 -317 123 -573 335 -793 398 -414 1040 -482 1523 -161 205 137 387 373
463 603 46 141 58 217 59 381 1 168 -13 259 -61 400 -134 392 -471 687 -893
781 -103 22 -334 24 -450 3z m400 -15 c349 -47 678 -282 855 -611 95 -178 139
-355 138 -558 -2 -303 -119 -589 -330 -806 -96 -99 -124 -122 -215 -181 -180
-115 -397 -179 -622 -182 -438 -7 -853 244 -1057 639 -85 164 -118 299 -126
506 -5 120 -2 155 16 245 34 158 73 261 152 399 99 173 348 391 529 464 242
98 404 119 660 85z"/>
<path d="M2270 5707 c-3 -2 -42 -7 -87 -11 -45 -3 -92 -10 -105 -15 -13 -5
-26 -9 -30 -10 -4 -1 -13 -3 -20 -5 -7 -2 -35 -10 -63 -17 -137 -35 -369 -177
-465 -284 -97 -109 -147 -180 -205 -294 -44 -86 -52 -109 -80 -216 -80 -303
-32 -622 131 -881 105 -168 225 -286 385 -381 99 -58 113 -65 199 -96 134 -49
214 -62 390 -61 147 0 176 3 268 27 56 15 119 34 140 43 184 78 349 196 452
323 19 24 40 48 45 55 23 25 97 150 123 208 70 155 94 257 100 431 9 261 -46
461 -185 672 -150 226 -400 407 -648 469 -110 28 -332 55 -345 43z m-95 -35
c-6 -4 -26 -20 -47 -35 -52 -38 -98 -134 -98 -206 l-1 -56 -98 -48 -98 -48
-137 40 c-75 22 -141 43 -147 47 -21 13 129 126 263 198 48 25 89 46 90 46 2
-1 16 4 32 10 31 12 166 46 206 53 44 7 44 7 35 -1z m261 -18 c94 -49 138
-112 150 -214 24 -206 -194 -364 -382 -276 -146 68 -204 237 -129 375 33 60
55 81 119 115 70 37 172 37 242 0z m94 11 c98 -15 276 -85 375 -148 68 -42
184 -140 179 -149 -3 -5 -11 -8 -17 -8 -7 0 -71 -18 -142 -40 l-129 -41 -98
48 -97 48 -1 51 c0 96 -48 179 -135 236 l-30 19 30 -5 c17 -3 46 -8 65 -11z
m-481 -360 c11 -25 30 -58 41 -72 11 -14 19 -28 17 -29 -5 -5 -221 57 -231 66
-8 8 117 79 141 80 7 0 21 -20 32 -45z m641 10 c39 -19 70 -37 70 -40 0 -3
-117 -41 -224 -72 -15 -4 -13 3 13 40 17 25 31 48 31 51 0 16 21 56 30 56 6 0
42 -16 80 -35z m364 -121 l-38 -136 -19 23 c-41 51 -104 116 -145 149 -47 37
-45 42 24 59 21 5 55 14 74 20 110 32 135 38 138 30 2 -5 -13 -70 -34 -145z
m-1371 112 c71 -19 131 -37 133 -39 3 -2 -10 -16 -28 -29 -44 -34 -106 -95
-144 -141 l-30 -38 -37 128 c-38 132 -42 153 -29 153 4 0 65 -16 135 -34z
m1544 -94 c91 -127 161 -295 191 -463 l10 -54 -21 30 c-62 85 -133 127 -227
131 l-55 2 -49 94 -48 93 32 115 c18 63 39 131 47 150 l14 34 25 -27 c14 -15
50 -62 81 -105z m-1693 55 c11 -34 30 -95 43 -136 29 -92 29 -93 -2 -141 -14
-22 -34 -62 -44 -88 -17 -41 -22 -47 -46 -44 -41 5 -146 -26 -189 -56 -21 -14
-49 -42 -62 -61 -28 -42 -30 -30 -10 66 21 96 66 215 117 306 47 83 147 216
164 217 6 0 19 -28 29 -63z m482 -57 c77 -22 154 -47 171 -55 76 -38 191 -37
270 3 21 11 104 39 185 62 l147 43 48 -40 c58 -49 146 -141 160 -168 9 -16 0
-55 -37 -180 -27 -88 -58 -187 -70 -220 -27 -72 -22 -140 15 -224 13 -31 43
-118 65 -194 l41 -138 -37 -50 c-43 -59 -167 -169 -190 -169 -28 0 -267 71
-329 98 -86 38 -196 38 -280 0 -33 -15 -120 -44 -193 -66 l-133 -39 -42 30
c-58 42 -167 157 -174 185 -3 12 -1 39 5 60 19 72 81 268 102 327 25 69 23
152 -7 208 -9 17 -38 104 -64 191 l-47 160 28 40 c55 79 182 190 209 181 9 -2
79 -23 157 -45z m-373 -298 c46 -162 47 -149 -2 -114 -24 17 -58 36 -77 42
-29 10 -34 15 -28 33 11 37 64 137 72 137 4 0 20 -44 35 -98z m1422 28 c19
-38 35 -74 35 -79 0 -5 -16 -15 -35 -21 -20 -7 -55 -27 -79 -45 l-43 -32 36
123 c20 68 39 124 43 124 4 0 24 -31 43 -70z m-1503 -116 c146 -49 223 -229
157 -368 -91 -194 -333 -218 -466 -46 -38 50 -43 62 -49 127 -7 78 8 139 49
195 24 32 91 81 132 96 45 16 125 14 177 -4z m1693 -1 c66 -24 136 -93 158
-158 24 -69 22 -161 -4 -210 -53 -101 -143 -158 -249 -159 -154 -1 -270 116
-270 275 0 189 183 315 365 252z m-1983 -471 c40 -40 123 -72 187 -72 l47 0
29 -62 c16 -35 38 -76 48 -91 19 -28 19 -29 -1 -105 -11 -42 -31 -112 -44
-156 l-24 -78 -43 48 c-60 68 -127 173 -171 268 -36 77 -90 261 -90 302 1 18
1 18 15 -1 8 -11 29 -35 47 -53z m2128 -50 c-35 -146 -76 -237 -166 -373 -42
-63 -110 -137 -117 -128 -2 2 -13 37 -25 77 -12 39 -31 103 -43 141 l-21 69
48 96 47 96 42 0 c78 0 143 27 199 83 29 29 52 47 54 39 2 -6 -6 -51 -18 -100z
m-1749 -57 c-28 -96 -39 -121 -48 -112 -14 14 -73 132 -73 145 0 5 13 12 28
15 15 3 50 21 77 41 28 19 51 35 51 35 1 1 -15 -55 -35 -124z m1381 65 c21
-11 44 -20 53 -20 8 0 15 -6 15 -14 0 -20 -71 -158 -78 -151 -6 6 -71 214 -72
229 0 5 10 1 23 -8 12 -9 39 -25 59 -36z m-1242 -451 c-14 -4 -65 -19 -115
-34 -115 -35 -135 -39 -135 -29 0 5 12 50 26 99 14 50 30 108 36 131 l11 41
101 -101 c96 -96 100 -101 76 -107z m1269 70 c22 -74 35 -136 30 -137 -5 -2
-37 5 -72 16 -34 11 -91 28 -127 37 -36 9 -68 19 -72 22 -5 2 14 22 40 43 27
21 73 66 102 99 29 34 55 59 57 57 2 -2 21 -64 42 -137z m-636 43 c60 -27 108
-72 137 -129 20 -39 25 -63 25 -123 -1 -88 -21 -136 -84 -193 -54 -49 -89 -65
-154 -73 -85 -10 -145 9 -210 67 -67 60 -92 116 -92 209 1 191 202 320 378
242z m-337 -77 c-19 -24 -39 -60 -46 -80 -6 -19 -13 -35 -16 -35 -9 0 -154 75
-154 80 0 3 55 22 123 42 67 20 123 36 124 37 2 1 -12 -19 -31 -44z m674 -35
c0 -3 -34 -23 -76 -44 -61 -30 -78 -35 -85 -24 -5 7 -9 18 -9 24 0 7 -16 35
-35 64 -19 29 -35 53 -35 54 0 2 54 -13 120 -32 66 -20 120 -38 120 -42z m190
-50 c158 -47 144 -39 123 -63 -10 -11 -54 -47 -98 -80 -118 -88 -270 -158
-415 -192 -103 -23 -109 -21 -57 25 58 51 95 127 99 202 l4 58 94 48 c92 47
96 48 135 36 22 -7 74 -22 115 -34z m-1015 -5 l90 -45 1 -54 c3 -87 56 -182
129 -228 l30 -19 -44 5 c-130 17 -349 101 -430 166 -22 16 -43 30 -47 30 -15
0 -119 98 -113 105 4 3 29 12 55 20 27 7 85 25 129 38 44 14 87 25 95 26 8 1
56 -19 105 -44z"/>
<path d="M2214 5639 c-58 -31 -94 -68 -120 -124 -46 -96 -24 -207 55 -277 106
-95 240 -93 336 5 118 121 96 292 -49 385 -56 36 -164 41 -222 11z m204 -25
c216 -107 138 -428 -103 -428 -201 0 -304 243 -163 383 74 74 174 91 266 45z"/>
<path d="M2165 5091 c-405 -116 -529 -628 -222 -917 179 -169 426 -198 648
-78 66 36 177 155 211 226 152 313 -17 687 -348 772 -80 21 -212 19 -289 -3z
m325 -23 c363 -132 475 -585 212 -860 -110 -116 -231 -169 -387 -169 -157 0
-281 55 -389 172 -107 115 -158 273 -137 423 13 95 67 214 131 287 67 78 185
146 295 169 68 15 203 4 275 -22z"/>
<path d="M2230 5040 c-155 -29 -275 -122 -347 -267 -34 -69 -38 -84 -41 -175
-7 -168 40 -285 157 -390 89 -81 188 -117 316 -118 134 0 234 40 333 134 150
142 189 361 98 551 -58 120 -150 203 -274 246 -66 23 -177 32 -242 19z m265
-43 c180 -84 285 -243 285 -433 0 -297 -290 -523 -575 -449 -140 37 -249 127
-312 260 -69 146 -55 315 38 454 41 61 109 121 179 157 71 36 113 44 220 41
90 -2 113 -7 165 -30z"/>
<path d="M1362 4789 c-95 -47 -147 -144 -136 -254 20 -204 276 -285 421 -133
67 70 83 180 39 274 -54 116 -209 170 -324 113z m228 -28 c119 -72 144 -234
52 -342 -45 -52 -101 -78 -168 -79 -65 0 -113 20 -158 65 -74 74 -92 162 -52
250 60 132 205 179 326 106z"/>
<path d="M3052 4784 c-85 -42 -132 -121 -132 -219 0 -95 48 -172 135 -218 59
-30 155 -29 217 2 59 30 79 52 112 117 101 202 -127 420 -332 318z m210 -10
c68 -35 128 -130 128 -202 -1 -122 -106 -232 -221 -232 -103 0 -179 49 -219
142 -66 155 59 327 228 313 29 -3 67 -12 84 -21z"/>
<path d="M2260 3959 c-98 -19 -178 -112 -187 -216 -10 -110 53 -215 152 -253
43 -17 144 -15 187 3 96 40 154 137 145 244 -12 154 -143 253 -297 222z m161
-37 c98 -51 146 -165 113 -265 -54 -161 -241 -213 -371 -102 -55 46 -77 104
-71 187 10 164 181 257 329 180z"/>
<path d="M10252 5745 c-611 -112 -1036 -667 -982 -1282 43 -486 363 -884 835
-1038 110 -36 297 -59 415 -51 315 22 576 141 791 362 107 111 157 180 219
303 87 175 115 304 115 536 -1 151 -4 182 -27 276 -100 396 -373 697 -765 845
-158 60 -426 81 -601 49z m397 -16 c191 -29 422 -135 565 -259 164 -144 269
-292 343 -484 78 -204 95 -396 58 -641 -29 -197 -174 -465 -335 -622 -27 -26
-172 -140 -205 -160 -313 -195 -755 -226 -1081 -77 -29 13 -55 24 -58 24 -20
0 -194 120 -260 179 -131 118 -205 215 -281 371 -25 50 -81 218 -90 265 -26
149 -30 321 -9 430 25 137 62 244 126 365 234 443 723 686 1227 609z"/>
<path d="M10305 5690 c-285 -39 -530 -176 -720 -400 -36 -43 -65 -81 -65 -85
0 -3 -13 -25 -29 -48 -116 -170 -183 -455 -161 -686 11 -116 13 -126 47 -241
67 -224 211 -426 412 -577 64 -49 262 -153 291 -153 10 0 21 -4 24 -9 3 -5 20
-12 38 -15 18 -3 44 -9 58 -12 382 -88 786 28 1060 305 222 224 334 507 329
827 -5 283 -121 558 -322 763 -211 215 -463 326 -762 335 -77 3 -167 1 -200
-4z m30 -45 c-111 -54 -256 -121 -300 -138 -58 -23 -295 -107 -302 -107 -26 0
121 106 212 153 75 38 154 72 205 86 62 17 189 39 225 39 25 0 19 -5 -40 -33z
m227 -13 c56 -27 131 -62 166 -77 43 -20 58 -31 47 -35 -20 -7 -633 -6 -640 2
-3 3 23 18 57 33 35 16 108 50 163 76 55 27 101 49 102 49 1 0 48 -22 105 -48z
m80 34 c173 -31 341 -104 479 -208 44 -33 78 -62 76 -64 -2 -2 -26 5 -53 15
-27 11 -107 41 -178 67 -71 25 -203 82 -295 125 -175 83 -179 91 -29 65z
m-432 -193 c66 -18 103 -36 152 -76 45 -36 88 -117 89 -166 1 -33 1 -34 9 -11
4 14 13 43 19 65 27 102 154 185 319 209 28 4 33 2 28 -12 -4 -9 -55 -135
-114 -279 l-107 -263 -146 0 c-108 0 -148 3 -152 13 -3 6 -51 122 -107 257
-56 135 -106 255 -110 267 -8 20 -7 21 28 16 20 -2 62 -12 92 -20z m446 2
c-93 -39 -139 -78 -177 -149 l-21 -39 -29 51 c-34 59 -79 96 -163 134 l-61 27
255 0 255 0 -59 -24z m-543 -96 c24 -57 74 -176 110 -265 37 -88 67 -167 67
-175 0 -8 -45 -59 -99 -113 l-100 -99 -218 91 c-120 50 -243 101 -273 114 -30
12 -57 24 -59 25 -7 5 42 43 94 73 116 67 234 74 320 19 52 -33 65 -37 42 -11
-57 63 -72 180 -35 279 20 56 96 179 104 170 2 -2 23 -51 47 -108z m787 46
c46 -71 80 -166 80 -224 0 -49 -16 -96 -52 -148 -28 -41 -25 -61 3 -26 23 27
111 63 155 63 48 0 132 -23 182 -52 47 -26 102 -67 102 -76 0 -8 -8 -12 -314
-139 l-229 -95 -104 104 -104 104 99 240 c127 303 132 314 136 314 2 0 23 -29
46 -65z m-980 -51 c-83 -85 -201 -201 -375 -373 -3 -2 7 25 20 60 13 35 41
110 61 167 21 56 42 109 48 117 6 8 49 28 96 45 47 16 119 43 160 59 41 16 79
30 85 30 5 1 -38 -47 -95 -105z m1225 17 l99 -36 22 -60 c70 -187 102 -280 98
-284 -5 -5 -417 404 -445 441 l-20 27 73 -26 c40 -15 118 -43 173 -62z m-1177
-13 c-17 -26 -48 -142 -48 -180 0 -13 6 -46 14 -72 15 -48 14 -48 -7 -41 -12
4 -51 9 -87 12 -52 4 -80 0 -139 -20 l-73 -24 173 173 c96 96 175 174 178 174
2 0 -3 -10 -11 -22z m1157 -158 c146 -146 172 -177 139 -161 -22 11 -62 25
-88 32 -47 12 -154 8 -190 -7 -16 -6 -18 -4 -11 12 4 10 10 51 13 89 4 66 -7
115 -43 198 -4 9 -5 17 -3 17 2 0 84 -81 183 -180z m-1529 -16 c-64 -188 -102
-278 -193 -463 -56 -114 -61 -112 -38 18 21 118 52 212 105 313 41 80 150 242
157 235 1 -2 -12 -48 -31 -103z m1757 24 c111 -149 196 -367 211 -544 l6 -69
-31 65 c-116 248 -151 327 -178 405 -11 33 -32 91 -46 129 -40 110 -36 112 38
14z m-1495 -420 l222 -92 -2 -150 -3 -149 -70 -29 c-234 -98 -459 -188 -466
-188 -16 0 -9 50 16 126 27 80 58 136 96 171 32 29 107 62 144 64 l30 1 -35
10 c-19 5 -58 21 -87 35 -82 39 -152 158 -169 282 l-7 52 54 -21 c30 -11 154
-62 277 -112z m1532 123 c0 -31 -35 -153 -57 -197 -38 -77 -90 -123 -169 -149
l-68 -22 45 -7 c124 -20 216 -141 244 -323 l7 -42 -199 81 c-109 44 -234 96
-278 114 l-80 32 -3 143 c-1 78 1 146 6 151 9 9 530 227 545 228 4 0 7 -4 7
-9z m-678 -108 l108 -108 0 -150 0 -150 -103 -103 -102 -102 -155 0 -155 0
-102 102 -103 103 0 150 0 150 107 107 108 108 145 0 145 0 107 -107z m-1202
-255 l-1 -343 -35 70 c-18 39 -54 116 -79 171 l-46 102 30 66 c17 36 45 96 63
134 17 37 33 69 33 72 9 28 28 70 31 70 3 0 4 -154 4 -342z m2036 51 l23 -57
-33 -68 c-18 -38 -50 -107 -71 -154 -45 -100 -55 -113 -56 -79 -1 30 -1 597 0
624 1 19 86 -148 137 -266z m-2003 162 c15 -72 102 -174 173 -201 l29 -12 -40
-19 c-54 -25 -131 -112 -154 -173 l-20 -51 -1 65 c-5 232 -4 420 1 420 4 0 9
-13 12 -29z m1847 -218 l-1 -248 -22 52 c-34 81 -81 139 -138 172 l-52 29 39
20 c68 35 120 96 149 175 10 26 19 47 21 47 2 0 4 -111 4 -247z m175 -115
c-17 -166 -88 -361 -180 -495 -45 -66 -105 -142 -105 -132 0 2 14 40 30 83 17
43 44 119 61 169 28 81 188 437 197 437 2 0 1 -28 -3 -62z m-2170 -35 c21 -43
52 -107 70 -143 18 -36 56 -131 84 -210 29 -80 58 -163 66 -184 8 -22 13 -41
11 -43 -6 -7 -113 140 -143 197 -56 107 -94 215 -124 355 -9 42 -12 105 -5
105 2 0 21 -35 41 -77z m801 -115 l102 -103 -85 -200 c-46 -110 -97 -231 -112
-270 -16 -38 -33 -70 -37 -70 -16 1 -90 121 -107 173 -33 100 -17 205 40 265
31 32 18 36 -20 7 -104 -82 -275 -61 -409 50 l-30 26 158 67 c88 36 206 87
264 111 58 25 112 45 120 45 9 1 61 -45 116 -101z m903 -4 c141 -59 262 -110
270 -114 20 -11 -67 -72 -149 -105 -109 -45 -219 -32 -292 33 -26 22 -22 10
15 -49 29 -47 32 -60 32 -128 0 -65 -5 -86 -33 -146 -40 -83 -81 -140 -93
-128 -5 5 -58 128 -119 273 l-110 265 102 102 c57 57 107 103 112 103 5 0 124
-48 265 -106z m-396 -339 c54 -129 104 -252 112 -275 l14 -40 -28 0 c-74 0
-216 64 -270 121 -31 33 -61 93 -61 123 0 14 -4 28 -10 31 -5 3 -10 -1 -10
-11 0 -77 -70 -168 -163 -213 -62 -30 -182 -59 -194 -47 -5 5 126 335 199 504
l19 42 148 0 147 0 97 -235z m642 98 c-15 -37 -36 -93 -47 -123 -47 -130 -55
-145 -79 -157 -29 -15 -304 -113 -315 -113 -5 0 97 106 226 235 129 129 236
233 238 231 2 -2 -9 -35 -23 -73z m-1549 -165 c129 -128 232 -233 230 -235 -2
-2 -19 3 -37 11 -19 8 -68 27 -109 42 -41 14 -105 38 -142 52 l-67 25 -29 81
c-16 45 -35 99 -42 121 -7 22 -16 45 -20 50 -11 14 -30 85 -23 85 4 0 111
-104 239 -232z m1493 197 c-16 -17 -257 -259 -297 -299 l-51 -49 25 69 c27 73
33 159 15 207 -17 44 -15 45 44 29 46 -13 65 -13 122 -3 38 7 84 21 103 31 38
19 46 22 39 15z m-1491 -51 c39 -4 71 -1 102 10 24 8 46 14 47 12 2 -2 -4 -20
-13 -42 -20 -48 -13 -140 16 -217 11 -29 20 -54 20 -56 0 -2 -74 72 -165 164
-91 92 -165 169 -165 170 0 2 23 -6 51 -16 28 -11 76 -22 107 -25z m676 -218
c10 -39 92 -115 159 -146 34 -17 55 -31 47 -31 -56 -6 -460 -3 -460 4 0 4 6 7
13 7 54 1 182 99 207 160 15 36 26 38 34 6z m-544 -149 c120 -43 166 -63 363
-156 48 -22 92 -41 97 -41 6 0 10 -4 10 -8 0 -5 -44 -3 -97 4 -153 21 -320 82
-432 158 -29 20 -56 36 -60 36 -3 0 -26 18 -51 40 l-45 40 45 -14 c25 -8 101
-34 170 -59z m1249 52 c-80 -70 -224 -155 -329 -194 -123 -46 -332 -83 -316
-57 4 7 11 12 15 12 5 0 67 27 137 60 71 34 138 65 149 70 11 5 72 28 135 50
63 23 135 50 160 60 61 25 78 25 49 -1z m-444 -134 c-145 -70 -268 -125 -280
-125 -6 0 -86 36 -176 79 l-164 80 345 0 345 0 -70 -34z"/>
<path d="M10350 5150 c0 -6 42 -10 105 -10 63 0 105 4 105 10 0 6 -42 10 -105
10 -63 0 -105 -4 -105 -10z"/>
<path d="M10350 5090 c0 -5 16 -10 35 -10 19 0 35 5 35 10 0 6 -16 10 -35 10
-19 0 -35 -4 -35 -10z"/>
<path d="M10490 5090 c0 -5 16 -10 35 -10 19 0 35 5 35 10 0 6 -16 10 -35 10
-19 0 -35 -4 -35 -10z"/>
<path d="M10403 5023 c32 -2 81 -2 110 0 29 2 3 3 -58 3 -60 0 -84 -1 -52 -3z"/>
<path d="M10427 5463 c-26 -26 12 -80 47 -67 21 8 30 42 16 59 -13 15 -51 20
-63 8z m51 -26 c4 -21 -25 -34 -40 -19 -8 8 -8 16 2 27 16 19 34 15 38 -8z"/>
<path d="M10040 4985 c-41 -41 -72 -77 -69 -79 3 -3 38 28 79 69 41 41 72 77
69 79 -3 3 -38 -28 -79 -69z"/>
<path d="M10130 4985 c-13 -14 -19 -25 -13 -25 5 0 20 11 33 25 13 14 19 25
13 25 -5 0 -20 -11 -33 -25z"/>
<path d="M10120 4895 c-41 -41 -70 -75 -64 -75 5 0 43 34 84 75 41 41 70 75
64 75 -5 0 -43 -34 -84 -75z"/>
<path d="M10030 4885 c-13 -14 -19 -25 -13 -25 5 0 20 11 33 25 13 14 19 25
13 25 -5 0 -20 -11 -33 -25z"/>
<path d="M10860 4975 c41 -41 79 -75 84 -75 6 0 -23 34 -64 75 -41 41 -79 75
-84 75 -6 0 23 -34 64 -75z"/>
<path d="M10770 4985 c13 -14 28 -25 33 -25 6 0 0 11 -13 25 -13 14 -28 25
-33 25 -6 0 0 -11 13 -25z"/>
<path d="M10710 4964 c0 -5 34 -43 75 -84 41 -41 75 -70 75 -64 0 5 -34 43
-75 84 -41 41 -75 70 -75 64z"/>
<path d="M10850 4914 c0 -13 48 -59 55 -52 3 2 -9 17 -25 33 -17 16 -30 24
-30 19z"/>
<path d="M9812 5203 c-6 -11 -6 -28 -1 -41 7 -18 15 -23 36 -20 22 2 29 9 31
32 5 43 -47 66 -66 29z m56 -20 c5 -17 -26 -29 -40 -15 -6 6 -7 15 -3 22 9 14
37 9 43 -7z"/>
<path d="M11040 5205 c-26 -32 13 -81 48 -59 34 22 22 74 -18 74 -10 0 -23 -7
-30 -15z m50 -25 c0 -13 -7 -20 -20 -20 -13 0 -20 7 -20 20 0 13 7 20 20 20
13 0 20 -7 20 -20z"/>
<path d="M9874 4565 c0 -60 1 -84 3 -52 2 32 2 81 0 110 -2 29 -3 3 -3 -58z"/>
<path d="M9933 4635 c0 -22 2 -30 4 -17 2 12 2 30 0 40 -3 9 -5 -1 -4 -23z"/>
<path d="M9994 4565 c0 -60 1 -84 3 -52 2 32 2 81 0 110 -2 29 -3 3 -3 -58z"/>
<path d="M9933 4495 c0 -22 2 -30 4 -17 2 12 2 30 0 40 -3 9 -5 -1 -4 -23z"/>
<path d="M10910 4565 c0 -63 4 -105 10 -105 6 0 10 42 10 105 0 63 -4 105 -10
105 -6 0 -10 -42 -10 -105z"/>
<path d="M10970 4635 c0 -19 5 -35 10 -35 6 0 10 16 10 35 0 19 -4 35 -10 35
-5 0 -10 -16 -10 -35z"/>
<path d="M11030 4565 c0 -63 4 -105 10 -105 6 0 10 42 10 105 0 63 -4 105 -10
105 -6 0 -10 -42 -10 -105z"/>
<path d="M10970 4495 c0 -19 5 -35 10 -35 6 0 10 16 10 35 0 19 -4 35 -10 35
-5 0 -10 -16 -10 -35z"/>
<path d="M10384 4701 c-74 -45 -99 -119 -66 -194 69 -155 292 -107 292 63 0
115 -129 190 -226 131z m151 -15 c61 -40 81 -120 45 -183 -28 -50 -66 -73
-122 -73 -151 0 -192 202 -53 266 36 17 96 12 130 -10z"/>
<path d="M9568 4599 c-38 -21 -11 -74 34 -67 30 4 38 46 12 65 -21 15 -24 15
-46 2z m45 -23 c8 -19 -15 -37 -32 -26 -17 10 -7 40 13 40 7 0 16 -6 19 -14z"/>
<path d="M11302 4602 c-18 -12 -23 -49 -7 -62 8 -6 24 -10 37 -8 30 4 38 46
12 65 -21 15 -25 16 -42 5z m44 -23 c3 -6 0 -17 -7 -25 -18 -17 -44 -2 -36 20
7 18 33 21 43 5z"/>
<path d="M10060 4314 c0 -5 34 -43 75 -84 41 -41 75 -70 75 -64 0 5 -34 43
-75 84 -41 41 -75 70 -75 64z"/>
<path d="M10030 4245 c13 -14 28 -25 33 -25 6 0 0 11 -13 25 -13 14 -28 25
-33 25 -6 0 0 -11 13 -25z"/>
<path d="M10040 4155 c41 -41 79 -75 84 -75 6 0 -23 34 -64 75 -41 41 -79 75
-84 75 -6 0 23 -34 64 -75z"/>
<path d="M10110 4174 c0 -13 48 -59 55 -52 3 2 -9 17 -25 33 -17 16 -30 24
-30 19z"/>
<path d="M10780 4245 c-41 -41 -72 -77 -69 -79 3 -3 38 28 79 69 41 41 72 77
69 79 -3 3 -38 -28 -79 -69z"/>
<path d="M10870 4255 c-13 -14 -21 -27 -18 -30 2 -3 15 6 28 20 13 14 21 27
18 30 -2 3 -15 -6 -28 -20z"/>
<path d="M10860 4155 c-41 -41 -70 -75 -64 -75 5 0 43 34 84 75 41 41 70 75
64 75 -5 0 -43 -34 -84 -75z"/>
<path d="M10770 4155 c-13 -14 -21 -27 -18 -30 2 -3 15 6 28 20 13 14 21 27
18 30 -2 3 -15 -6 -28 -20z"/>
<path d="M10403 4103 c32 -2 81 -2 110 0 29 2 3 3 -58 3 -60 0 -84 -1 -52 -3z"/>
<path d="M10368 4043 c12 -2 30 -2 40 0 9 3 -1 5 -23 4 -22 0 -30 -2 -17 -4z"/>
<path d="M10508 4043 c12 -2 30 -2 40 0 9 3 -1 5 -23 4 -22 0 -30 -2 -17 -4z"/>
<path d="M10403 3983 c32 -2 81 -2 110 0 29 2 3 3 -58 3 -60 0 -84 -1 -52 -3z"/>
<path d="M11034 3963 c-5 -19 -2 -30 11 -40 11 -7 22 -13 25 -13 3 0 14 6 25
13 13 10 16 21 11 40 -5 22 -12 27 -36 27 -24 0 -31 -5 -36 -27z m53 1 c8 -21
-13 -42 -28 -27 -13 13 -5 43 11 43 6 0 13 -7 17 -16z"/>
<path d="M9820 3980 c-17 -17 -18 -24 -10 -41 16 -29 38 -34 59 -15 22 20 17
52 -10 67 -14 7 -23 5 -39 -11z m47 -16 c9 -23 -13 -40 -32 -24 -12 10 -13 16
-4 26 15 18 28 18 36 -2z"/>
<path d="M10432 3728 c-32 -32 2 -79 43 -60 39 18 27 72 -15 72 -9 0 -21 -5
-28 -12z m48 -28 c0 -23 -35 -28 -43 -6 -7 18 1 26 25 26 11 0 18 -7 18 -20z"/>
<path d="M6210 5414 c-25 -2 -94 -11 -155 -20 -969 -136 -1771 -863 -2004
-1815 -52 -215 -65 -330 -65 -579 0 -249 13 -364 65 -579 168 -686 635 -1270
1270 -1585 236 -118 472 -192 739 -233 159 -24 519 -24 680 0 800 122 1471
607 1824 1318 118 236 192 472 233 739 24 160 24 520 0 680 -41 267 -115 503
-233 739 -352 709 -1025 1197 -1819 1317 -97 14 -443 26 -535 18z m450 -24
c47 -6 91 -10 98 -10 22 0 13 -54 -22 -125 -39 -83 -102 -145 -184 -183 -49
-23 -70 -27 -152 -27 -82 0 -103 4 -152 27 -110 51 -197 159 -214 266 -5 32
-3 42 7 43 8 0 73 7 144 14 134 13 326 11 475 -5z m-644 -47 c24 -109 81 -196
165 -252 77 -51 123 -65 224 -65 107 1 176 28 254 100 60 56 103 127 121 202
7 27 16 42 26 42 21 0 12 -55 -22 -130 -33 -73 -65 -112 -127 -159 -216 -163
-520 -91 -635 151 -38 79 -50 138 -28 138 9 0 18 -12 22 -27z m972 -21 c7 -22
-28 -132 -62 -197 -38 -74 -152 -191 -226 -232 -242 -136 -526 -98 -720 97
-42 43 -89 101 -107 135 -34 65 -66 165 -61 191 3 17 79 43 129 44 24 0 27 -5
34 -45 16 -112 120 -241 236 -295 179 -82 357 -51 497 87 64 63 104 134 118
209 3 22 8 42 10 45 6 11 147 -26 152 -39z m-1184 -60 c8 -34 25 -81 36 -104
11 -23 19 -42 17 -43 -1 -1 -56 -19 -122 -39 -142 -45 -187 -64 -322 -132
-212 -108 -389 -237 -563 -413 -343 -347 -540 -750 -615 -1261 -17 -118 -13
-488 8 -602 l13 -78 -51 0 c-28 0 -77 -5 -109 -11 -31 -7 -59 -10 -61 -7 -15
15 -36 245 -36 398 -1 253 18 423 71 625 188 718 686 1307 1360 1606 78 34
351 131 356 125 1 0 9 -29 18 -64z m1302 37 c827 -253 1458 -943 1644 -1794
59 -268 69 -498 35 -815 -13 -120 -14 -123 -49 -116 -17 4 -68 10 -114 13 -69
5 -82 9 -78 22 44 150 44 558 1 785 -69 361 -227 703 -452 981 -84 103 -267
282 -363 354 -201 150 -422 267 -640 338 -80 26 -146 48 -148 49 -2 1 5 19 16
41 19 38 35 83 46 136 8 33 14 33 102 6z m-71 -229 c213 -63 491 -204 657
-334 80 -63 108 -86 163 -135 93 -83 164 -161 278 -306 56 -70 167 -244 167
-260 0 -3 -15 2 -32 13 -18 11 -233 130 -478 265 -245 134 -465 256 -490 270
-25 13 -157 86 -295 162 -137 75 -253 140 -257 144 -4 4 19 29 51 56 32 28 75
73 95 101 42 57 34 56 141 24z m-1272 -60 c-86 -101 -173 -240 -214 -340 l-32
-79 -196 -107 c-190 -104 -247 -136 -638 -352 -101 -55 -183 -99 -183 -97 0 8
61 107 109 179 244 362 617 657 1021 808 103 39 180 66 193 67 4 1 -23 -35
-60 -79z m136 44 c14 -19 55 -64 93 -99 68 -63 69 -64 46 -76 -13 -7 -88 -48
-168 -92 -80 -43 -170 -93 -200 -109 -30 -17 -70 -39 -87 -50 -19 -11 -33 -15
-33 -9 0 23 94 199 145 271 54 76 161 200 173 200 4 0 18 -16 31 -36z m229
-193 c20 -10 56 -25 80 -32 23 -7 41 -16 40 -19 -2 -4 -117 -186 -257 -404
l-255 -396 -127 0 c-76 0 -130 4 -134 10 -4 6 -6 74 -6 153 0 146 15 257 50
358 20 59 12 53 213 162 45 25 139 77 208 116 69 39 131 70 138 71 7 0 29 -8
50 -19z m982 -191 c201 -111 408 -225 460 -255 81 -45 337 -186 645 -356 l80
-44 -605 -3 c-475 -2 -607 1 -616 10 -7 7 -125 189 -263 403 l-251 390 33 13
c17 7 50 21 72 32 22 10 49 17 60 15 11 -2 184 -95 385 -205z m-306 -260 l253
-395 -645 -3 c-355 -1 -647 0 -649 2 -4 4 170 278 379 598 37 57 79 123 93
148 l25 45 145 0 145 -1 254 -394z m-1304 126 c-33 -89 -45 -175 -45 -348 l0
-178 -472 0 c-260 0 -473 2 -473 4 0 2 60 37 133 77 72 41 296 164 497 276
200 111 366 200 368 199 1 -2 -2 -15 -8 -30z m-36 -568 c7 -35 45 -188 58
-233 l11 -40 -138 -215 c-76 -118 -139 -216 -140 -218 -1 -1 -30 5 -65 14 -74
19 -149 13 -206 -17 -21 -10 -42 -15 -46 -11 -5 5 -37 55 -72 113 -34 57 -123
203 -196 324 -73 121 -144 236 -156 255 -13 19 -24 38 -24 42 0 5 218 8 485 8
l485 0 4 -22z m244 0 c-8 -13 -46 -71 -83 -130 -38 -60 -72 -108 -75 -108 -11
0 -69 208 -70 248 0 9 31 12 121 12 l121 0 -14 -22z m1603 -346 l235 -367 -42
-38 c-55 -48 -81 -91 -95 -155 l-11 -52 -119 0 -119 0 0 48 c0 122 -70 301
-162 416 -150 187 -358 286 -598 286 -270 0 -504 -129 -651 -358 l-27 -43 -43
72 c-46 79 -119 241 -119 264 0 8 20 45 43 82 24 38 65 101 90 141 l47 72 667
0 668 0 236 -368z m983 336 c-9 -18 -52 -89 -94 -158 -42 -69 -108 -177 -147
-240 -174 -287 -196 -321 -202 -317 -78 42 -163 55 -239 34 l-54 -15 -42 67
c-336 524 -410 638 -418 649 -8 9 113 12 601 12 l612 0 -17 -32z m-3781 -45
c19 -32 120 -199 226 -372 l191 -313 -36 -40 c-52 -58 -68 -101 -68 -188 0
-85 24 -147 74 -195 17 -16 30 -33 30 -38 0 -8 -239 -387 -244 -387 -1 0 -24
21 -52 46 -27 26 -73 60 -101 76 -29 17 -54 33 -54 36 -3 12 -5 1432 -2 1432
1 0 17 -26 36 -57z m3812 -645 c-1 -387 -2 -711 -3 -720 -1 -10 -17 -25 -34
-34 -18 -9 -63 -41 -100 -70 l-67 -54 -50 78 c-27 42 -84 129 -124 192 l-75
115 34 37 c51 57 67 102 67 188 0 87 -16 131 -69 189 l-35 39 124 204 c68 111
161 264 207 338 46 74 92 150 103 168 10 17 20 32 21 32 1 0 1 -316 1 -702z
m126 421 c47 -140 83 -298 100 -434 20 -171 12 -471 -17 -632 -6 -30 -10 -33
-62 -44 -31 -6 -73 -17 -94 -25 l-38 -13 1 707 1 707 35 -75 c19 -41 53 -127
74 -191z m-3991 -447 l0 -699 -81 24 c-45 12 -87 23 -94 23 -8 0 -16 20 -21
53 -55 388 -26 729 91 1066 37 106 91 231 100 231 3 0 5 -314 5 -698z m2088
492 c193 -40 371 -159 473 -318 22 -32 39 -63 39 -68 0 -4 -297 -8 -660 -8
-363 0 -660 4 -660 8 0 20 81 132 130 181 177 177 436 255 678 205z m-974
-131 c16 -38 53 -112 82 -165 l54 -98 -31 -92 c-17 -51 -33 -123 -36 -165 l-6
-73 -118 0 -117 0 -11 52 c-14 62 -39 105 -90 151 l-38 34 135 212 c75 116
139 211 142 211 3 0 18 -30 34 -67z m1465 -312 c-103 -172 -635 -1030 -639
-1030 -4 0 -536 858 -639 1030 l-23 39 662 0 662 0 -23 -39z m-975 -518 c174
-281 316 -514 316 -517 0 -20 -179 15 -265 51 -332 140 -521 493 -449 841 9
42 25 99 36 125 19 42 22 46 33 30 7 -10 155 -248 329 -530z m1070 375 c71
-349 -117 -701 -449 -841 -86 -36 -265 -71 -265 -51 0 3 147 244 328 535 l327
530 22 -48 c12 -26 29 -83 37 -125z m-1925 105 c100 -36 173 -143 173 -253 0
-238 -288 -361 -461 -197 -131 125 -99 356 62 439 75 38 141 41 226 11z m2580
0 c142 -51 213 -229 147 -368 -100 -212 -404 -207 -496 8 -69 160 30 344 203
376 49 9 86 5 146 -16z m-2149 -311 c0 -27 9 -84 20 -128 87 -343 386 -575
740 -575 268 0 504 131 651 359 l28 44 15 -24 c54 -83 146 -321 146 -380 0 -9
-26 -60 -57 -112 l-58 -95 -725 0 -725 -1 -210 346 c-115 190 -212 350 -213
355 -2 6 16 28 41 50 58 50 84 92 98 157 l11 52 119 0 119 0 0 -48z m1769 -4
c15 -65 40 -107 99 -158 37 -34 44 -44 36 -58 -6 -9 -73 -120 -149 -245 l-138
-228 -24 81 c-28 98 -64 184 -109 266 l-34 62 31 92 c17 53 33 125 36 167 l6
73 118 0 117 0 11 -52z m-2316 -222 c34 0 80 2 102 7 l40 7 107 -177 c59 -98
154 -256 212 -350 l105 -173 -413 0 -413 0 -21 86 c-21 85 -56 165 -93 213
-11 13 -19 28 -19 34 0 6 26 51 59 101 32 50 88 137 124 193 l66 101 41 -20
c27 -13 63 -21 103 -22z m2892 -143 c66 -103 122 -190 123 -195 2 -5 -8 -24
-22 -43 -41 -53 -84 -152 -102 -232 l-16 -73 -349 0 -349 0 -2 78 c-1 42 -2
88 -2 102 -1 15 58 123 149 273 l150 247 40 -7 c70 -14 160 -7 201 14 22 11
44 21 49 22 6 0 64 -83 130 -186z m-3615 -20 c304 -84 495 -384 436 -683 -29
-146 -119 -294 -227 -373 l-36 -26 -47 59 c-25 33 -46 63 -46 68 1 4 21 23 46
42 95 74 154 203 154 335 0 209 -139 383 -341 426 -52 11 -189 8 -221 -5 -13
-6 -19 4 -32 63 -9 38 -16 74 -16 79 0 10 67 30 115 34 58 6 161 -3 215 -19z
m4353 6 c20 -5 37 -14 37 -20 0 -5 -7 -41 -16 -79 l-15 -69 -32 7 c-18 4 -75
7 -127 7 -103 0 -145 -12 -227 -67 -66 -44 -111 -97 -150 -177 -33 -65 -38
-84 -41 -165 -7 -157 48 -276 172 -373 l28 -23 -47 -65 -46 -65 -28 19 c-79
56 -173 177 -206 264 -47 124 -53 285 -14 400 41 125 135 250 243 323 123 84
329 120 469 83z m-4415 -174 c88 -21 137 -49 204 -116 162 -162 167 -405 11
-579 -50 -55 -78 -74 -94 -64 -6 3 13 27 45 56 36 32 66 70 86 112 29 59 53
170 46 212 -2 10 -7 37 -10 58 -19 100 -107 210 -207 260 -68 33 -156 47 -224
35 -72 -11 -85 -11 -85 5 0 8 18 18 48 24 69 14 109 14 180 -3z m4380 -1 c19
-4 32 -12 32 -21 0 -12 -8 -14 -37 -8 -103 19 -200 7 -282 -35 -54 -27 -131
-105 -163 -165 -80 -151 -42 -357 88 -473 32 -29 51 -53 45 -56 -16 -11 -45 9
-96 66 -125 139 -148 314 -64 479 32 64 113 143 181 178 95 48 171 57 296 35z
m-4320 -69 c91 -41 174 -132 202 -221 35 -115 21 -223 -41 -325 -29 -47 -96
-109 -117 -109 -17 0 -106 150 -177 295 -49 100 -145 346 -145 371 0 11 75 22
140 19 58 -1 91 -9 138 -30z m4295 26 c21 -5 41 -11 43 -14 10 -10 -82 -251
-141 -372 -77 -156 -161 -295 -179 -295 -24 0 -111 95 -141 155 -27 55 -30 69
-30 160 0 93 2 104 32 160 84 160 254 243 416 206z m-1404 -248 l1 -63 -60 0
-59 0 52 87 c58 97 64 95 66 -24z m-1588 -89 c21 -25 698 -1138 694 -1142 -1
-2 -54 29 -116 69 -63 39 -127 79 -144 89 -43 24 -1071 660 -1191 736 l-101
64 8 43 c4 23 8 68 9 99 l0 57 414 1 c373 0 415 -1 427 -16z m1439 10 c0 -5
-348 -580 -535 -884 -28 -47 -79 -129 -111 -182 -32 -54 -61 -98 -64 -98 -6 0
-710 1154 -710 1164 0 3 320 6 710 6 391 0 710 -3 710 -6z m150 -23 c0 -47
-29 -183 -54 -259 -64 -187 -179 -364 -345 -533 -149 -150 -267 -244 -419
-333 -15 -9 -6 6 372 629 164 270 305 498 314 508 11 12 30 17 74 17 57 0 58
0 58 -29z m710 -28 c1 -32 5 -77 9 -101 l8 -42 -206 -129 c-156 -97 -1024
-634 -1062 -657 -4 -2 55 58 130 134 75 75 162 173 193 217 121 170 197 351
219 520 6 50 13 96 15 103 3 9 81 12 349 12 l345 0 0 -57z m-2904 -320 c140
-87 292 -181 337 -210 45 -29 89 -55 97 -60 8 -4 110 -66 225 -138 116 -71
306 -188 423 -260 116 -71 212 -134 212 -138 0 -4 -21 -5 -47 -3 -27 3 -77 8
-113 11 -236 19 -507 94 -730 201 -238 114 -437 258 -634 459 -115 117 -113
111 -77 181 16 33 33 71 36 87 4 15 9 27 11 27 2 0 119 -71 260 -157z m2934
141 c0 -9 16 -48 35 -86 l36 -70 -28 -36 c-42 -56 -189 -200 -274 -269 -311
-253 -716 -425 -1109 -472 -111 -13 -210 -19 -210 -12 0 9 64 49 710 449 333
206 655 405 715 443 61 38 113 69 118 69 4 0 7 -7 7 -16z m-3004 -453 c176
-146 366 -262 569 -345 620 -252 1323 -213 1889 106 206 116 337 216 506 388
l125 127 55 -57 c30 -31 66 -64 79 -73 22 -15 23 -17 9 -39 -9 -13 -63 -71
-121 -129 -461 -464 -1081 -721 -1727 -713 -97 1 -280 13 -290 18 -3 2 -27 6
-55 10 -178 22 -443 101 -642 191 -141 65 -351 193 -462 282 -143 115 -371
335 -371 358 1 6 21 26 47 45 25 19 59 51 76 73 l31 38 94 -101 c52 -55 136
-136 188 -179z"/>
<path d="M5548 5165 c-715 -287 -1236 -888 -1413 -1630 -45 -190 -60 -324 -59
-540 1 -186 11 -312 24 -299 5 5 5 36 0 69 -8 60 -6 439 3 505 24 170 68 362
112 480 9 25 25 70 36 100 34 95 124 270 202 392 265 413 648 730 1100 908 59
24 107 47 107 51 0 5 -1 9 -2 8 -2 0 -51 -20 -110 -44z"/>
<path d="M7123 5202 c4 -5 41 -22 84 -37 405 -143 791 -438 1071 -817 163
-221 303 -529 371 -818 47 -195 61 -341 56 -570 -2 -118 -7 -230 -11 -247 -4
-20 -2 -33 4 -33 22 0 37 332 22 498 -39 437 -170 806 -408 1147 -220 317
-512 573 -856 749 -141 72 -347 152 -333 128z"/>
<path d="M5050 3231 c-112 -36 -174 -119 -174 -231 0 -137 96 -234 234 -234
138 0 234 97 234 234 0 95 -44 169 -128 212 -43 22 -128 32 -166 19z m138 -23
c79 -24 144 -118 144 -207 0 -194 -234 -296 -376 -163 -84 79 -88 231 -8 315
64 67 142 85 240 55z"/>
<path d="M7630 3231 c-112 -36 -174 -119 -174 -231 0 -137 96 -234 234 -234
138 0 234 97 234 234 0 95 -44 169 -128 212 -43 22 -128 32 -166 19z m138 -23
c82 -25 142 -113 142 -208 0 -163 -163 -269 -311 -202 -197 89 -165 372 48
421 39 9 64 7 121 -11z"/>
<path d="M8035 1369 c-363 -369 -870 -613 -1385 -667 -190 -20 -477 -12 -630
17 -189 37 -264 57 -405 108 -305 110 -584 283 -812 507 -51 49 -96 87 -100
82 -4 -4 33 -46 82 -93 386 -367 867 -588 1395 -641 101 -10 384 -6 495 7 441
51 872 238 1210 522 130 109 249 229 229 229 -5 0 -41 -32 -79 -71z"/>
</g>
</svg>
