<?xml version="1.0" standalone="no"?>
<!DOCTYPE svg PUBLIC "-//W3C//DTD SVG 20010904//EN"
 "http://www.w3.org/TR/2001/REC-SVG-20010904/DTD/svg10.dtd">
<svg version="1.0" xmlns="http://www.w3.org/2000/svg"
 width="200pt" height="200pt" viewBox="0 0 600.000000 600.000000"
 preserveAspectRatio="xMidYMid meet">

<g transform="translate(0.000000,600.000000) scale(0.100000,-0.100000)"
fill="rgb(120, 71, 65)" stroke="none">
<path d="M1954 5853 c-24 -47 -30 -74 -32 -144 l-4 -87 53 -102 c64 -123 73
-183 40 -248 -12 -23 -25 -57 -29 -76 -7 -34 -13 -25 -176 272 -93 169 -171
309 -173 311 -15 19 -4 -54 57 -373 38 -203 70 -375 70 -385 -1 -29 -48 36
-60 82 -29 120 -130 249 -236 303 -84 42 -137 113 -153 202 -16 86 -55 -22
-47 -129 6 -88 21 -118 104 -217 93 -111 96 -118 85 -245 l-8 -105 -275 220
c-151 121 -276 215 -278 210 -1 -5 90 -157 203 -337 112 -181 203 -330 201
-333 -10 -10 -70 33 -84 61 -28 53 -125 141 -193 174 -35 18 -92 36 -126 42
-34 5 -78 17 -97 26 -43 21 -111 88 -127 126 -36 87 -37 -45 -1 -139 30 -77
64 -114 160 -170 130 -77 172 -127 172 -208 0 -19 7 -51 15 -71 8 -20 14 -37
13 -38 -2 -1 -151 42 -333 96 -181 54 -334 98 -338 99 -19 0 17 -29 306 -256
166 -130 307 -242 312 -247 6 -6 -5 -8 -33 -4 -26 3 -64 19 -95 41 -95 64
-239 89 -351 61 -43 -11 -87 -15 -117 -12 -50 6 -136 45 -158 71 -25 30 -31 5
-10 -37 33 -64 74 -112 127 -146 39 -25 68 -33 157 -46 140 -19 189 -43 228
-110 16 -28 40 -62 54 -77 l26 -27 -24 -5 c-23 -5 -655 -76 -673 -76 -41 0 60
-31 387 -120 207 -57 377 -107 377 -111 0 -16 -74 -22 -131 -11 -108 20 -268
-17 -346 -80 -79 -63 -172 -84 -262 -58 -49 14 -52 3 -8 -35 97 -84 196 -102
352 -61 143 37 171 34 247 -26 22 -17 55 -36 74 -43 l34 -11 -311 -175 c-189
-106 -304 -175 -292 -177 16 -2 596 70 753 94 l35 5 -28 -25 c-15 -14 -46 -30
-70 -36 -102 -27 -123 -37 -189 -83 -38 -26 -80 -65 -94 -85 -14 -20 -40 -59
-58 -87 -25 -38 -48 -58 -95 -82 -35 -18 -78 -33 -96 -33 -51 0 -50 -16 2 -34
60 -21 182 -21 230 -1 21 9 72 43 115 76 96 74 138 93 192 85 23 -4 69 -9 104
-12 34 -4 62 -8 62 -10 0 -2 -95 -125 -211 -275 -115 -149 -209 -275 -207
-279 2 -5 156 81 343 191 187 109 342 194 343 189 7 -18 -27 -58 -82 -99 -98
-73 -158 -176 -182 -314 -19 -106 -53 -157 -154 -230 -25 -18 -25 -18 39 -13
69 5 170 48 208 88 12 13 40 57 63 98 23 41 53 90 67 108 29 39 90 72 135 72
18 0 52 9 74 19 l42 19 -9 -31 c-4 -18 -44 -169 -89 -336 -44 -167 -79 -308
-77 -314 2 -6 111 135 243 311 212 286 239 319 242 293 3 -29 -28 -104 -48
-116 -19 -12 -51 -144 -53 -217 -1 -44 5 -102 17 -148 18 -71 18 -78 3 -131
-9 -31 -28 -72 -42 -93 -14 -20 -25 -41 -25 -47 0 -21 100 43 148 95 58 64 67
87 82 215 16 136 39 183 111 227 32 19 65 45 74 57 8 11 16 19 19 16 4 -4 96
-652 96 -676 0 -7 4 -13 9 -13 5 0 50 170 101 377 51 208 95 382 99 386 4 4
13 -10 20 -32 9 -31 9 -51 0 -86 -23 -92 15 -261 76 -337 75 -93 101 -185 76
-272 -6 -22 -8 -42 -5 -45 9 -9 63 59 89 114 41 84 42 135 5 264 -40 142 -38
177 19 261 22 34 41 71 41 81 0 11 3 19 8 19 4 -1 85 -134 181 -296 96 -162
178 -297 183 -300 12 -7 13 -19 -52 396 -33 210 -60 384 -60 388 0 3 10 -3 21
-14 25 -22 49 -74 49 -104 0 -38 54 -133 109 -192 30 -33 84 -76 121 -98 41
-24 76 -54 92 -78 26 -39 58 -120 58 -147 0 -32 18 -13 29 29 14 56 14 159 0
209 -5 21 -39 73 -73 116 -91 111 -110 152 -101 215 4 28 10 75 14 104 l6 53
278 -205 c153 -114 281 -206 284 -206 12 0 -16 47 -209 358 -110 178 -198 325
-195 328 10 10 66 -26 84 -53 69 -104 209 -189 331 -203 110 -12 173 -51 245
-150 18 -25 18 -25 13 32 -6 75 -49 170 -97 213 -21 19 -74 53 -118 75 -98 49
-148 96 -156 147 -6 37 -25 101 -39 134 -6 14 9 13 111 -11 102 -25 139 -30
122 -17 -2 2 -74 20 -159 41 -85 21 -159 41 -165 45 -5 4 -25 8 -44 10 -37 2
-61 16 -61 35 0 6 5 4 10 -4 8 -12 10 -11 8 5 -1 11 14 54 33 95 20 41 44 96
53 123 10 26 19 47 22 47 5 0 244 -163 339 -231 39 -28 81 -58 95 -67 87 -59
261 -185 258 -187 -2 -2 -46 7 -98 20 -52 14 -102 25 -110 25 -36 0 18 -19
116 -41 98 -21 104 -24 109 -51 11 -49 -5 -86 -72 -171 -36 -45 -74 -95 -84
-112 -19 -30 -25 -90 -11 -112 13 -21 61 -33 109 -26 l46 6 -7 -61 c-8 -70
-23 -120 -42 -142 -8 -10 -12 -44 -12 -95 0 -71 3 -83 26 -107 21 -23 24 -33
18 -68 -5 -32 -18 -53 -59 -93 -40 -40 -59 -68 -76 -117 -84 -238 -146 -348
-241 -427 -207 -173 -460 -296 -733 -355 -139 -30 -483 -33 -622 -5 -176 36
-378 112 -525 198 l-55 32 25 -28 c14 -15 72 -68 129 -118 407 -351 929 -525
1462 -487 569 41 1082 309 1436 750 240 298 385 644 433 1030 15 122 12 371
-5 503 -87 667 -513 1257 -1118 1550 -62 30 -129 61 -149 68 -21 7 -38 15 -38
19 0 3 58 41 128 85 74 46 120 81 111 83 -9 2 -129 -18 -265 -43 -196 -37
-261 -45 -303 -40 -84 10 -86 15 -23 45 81 38 170 123 216 209 45 82 87 115
185 147 l66 22 -30 12 c-16 6 -59 14 -96 17 -103 9 -161 -13 -261 -98 -98 -84
-129 -101 -177 -101 -48 0 -181 14 -181 19 0 2 88 129 195 283 107 154 195
282 195 286 0 12 -30 -6 -348 -215 -177 -116 -323 -211 -326 -211 -3 0 0 13 5
30 6 16 38 53 72 82 103 90 153 185 167 319 11 97 34 143 107 209 l58 52 -57
-5 c-63 -6 -147 -44 -191 -85 -16 -15 -54 -76 -84 -135 -63 -123 -101 -160
-178 -170 -25 -4 -59 -14 -76 -23 -17 -8 -33 -14 -35 -11 -2 2 28 153 66 337
39 183 69 337 67 343 -1 5 -20 -17 -41 -49 -22 -33 -123 -183 -225 -334 -160
-237 -186 -271 -189 -247 -2 18 10 56 32 101 59 119 72 253 36 356 -34 95 -22
197 31 271 12 17 19 33 16 36 -11 10 -93 -45 -136 -92 -59 -64 -72 -103 -81
-231 -10 -140 -31 -191 -91 -229 -23 -15 -55 -41 -70 -58 -21 -23 -30 -27 -33
-16 -3 8 -33 160 -67 339 -34 179 -63 327 -65 329 -9 10 -16 -19 -64 -270 -65
-338 -62 -325 -72 -269 -4 25 -26 82 -48 127 -31 64 -54 94 -100 134 -75 65
-112 135 -115 219 -1 33 -5 63 -8 66 -2 3 -18 -21 -33 -53z m500 -328 c69
-366 65 -345 52 -345 -7 0 -6 -3 2 -8 18 -12 12 -64 -8 -57 -13 4 -12 3 1 -7
11 -9 14 -19 8 -33 -12 -30 -11 -32 14 -31 16 1 23 -5 25 -23 3 -19 0 -22 -13
-17 -9 3 -68 6 -131 6 -67 0 -114 4 -114 10 0 5 8 7 18 3 15 -5 15 -4 -1 9
-17 13 -17 15 -3 27 9 7 13 17 10 22 -3 5 0 9 5 9 20 0 11 16 -9 17 -17 2 -20
-2 -14 -19 7 -23 -14 -42 -31 -28 -7 6 -11 2 -11 -11 0 -12 5 -18 13 -15 7 3
13 -1 13 -8 0 -12 -44 -28 -53 -20 -2 2 33 193 77 424 49 253 84 413 88 402 4
-9 32 -147 62 -307z m-475 125 c8 -14 29 -43 46 -65 52 -64 83 -119 106 -187
20 -60 20 -69 8 -170 -12 -100 -11 -110 8 -170 12 -35 21 -64 20 -64 -1 -1
-22 -4 -47 -8 l-45 -6 -42 79 c-24 43 -43 88 -43 101 0 12 14 56 31 98 28 71
30 81 20 129 -6 29 -33 96 -61 148 -43 83 -50 104 -50 153 0 31 6 75 12 97
l13 40 5 -75 c3 -41 11 -86 19 -100z m8 133 c2 -15 5 -36 7 -46 1 -10 10 -27
19 -38 10 -11 15 -25 11 -31 -4 -6 -3 -8 3 -5 6 4 21 -5 34 -20 13 -14 17 -22
9 -18 -13 7 -13 6 -2 -7 10 -13 10 -17 0 -21 -7 -3 0 -6 15 -6 16 -1 26 3 22
9 -12 19 2 10 26 -17 16 -19 17 -22 4 -11 -15 12 -25 14 -35 7 -11 -8 -12 -12
-2 -16 6 -2 10 -9 6 -14 -3 -5 0 -9 5 -9 6 0 11 -14 11 -31 0 -22 5 -32 20
-36 11 -3 20 -10 20 -15 0 -5 -4 -6 -10 -3 -13 8 -13 3 2 -32 6 -15 10 -34 9
-40 -1 -7 4 -13 10 -13 7 0 9 -3 6 -7 -4 -3 -2 -12 4 -20 6 -7 7 -13 2 -13 -5
0 -8 -26 -8 -57 2 -56 19 -110 40 -125 6 -5 6 -8 -1 -8 -18 0 -23 -34 -7 -48
7 -7 11 -17 9 -21 -3 -4 -7 -20 -10 -35 -8 -44 -14 -43 -37 9 -17 38 -21 64
-18 119 8 185 5 229 -22 286 -14 30 -50 87 -79 125 -67 88 -80 120 -80 191 0
58 9 67 17 17z m841 -40 c-31 -55 -33 -62 -29 -138 13 -246 2 -295 -90 -408
-58 -71 -72 -98 -83 -168 -6 -32 -9 -36 -29 -31 -30 7 -33 14 -47 105 -12 72
-11 83 5 113 10 18 42 49 71 68 77 51 95 92 105 238 9 129 23 169 86 238 19
22 37 40 39 40 2 0 -10 -26 -28 -57z m50 30 c-7 -16 -15 -32 -20 -37 -10 -13
-9 -115 1 -141 5 -12 4 -25 -2 -33 -7 -10 -7 -12 2 -10 7 2 17 -7 22 -19 5
-14 5 -23 -1 -23 -5 0 -7 -9 -5 -20 2 -11 -2 -20 -8 -20 -7 0 -6 -4 3 -10 10
-6 11 -10 3 -10 -7 0 -12 -6 -10 -12 1 -7 -6 -12 -15 -12 -10 1 -14 -4 -11
-12 3 -8 9 -11 14 -8 5 3 9 0 9 -5 0 -6 -6 -11 -14 -11 -10 0 -19 -20 -27 -57
-7 -32 -18 -61 -23 -65 -6 -4 -7 -8 -3 -8 4 0 -6 -15 -22 -32 -31 -33 -38 -52
-23 -61 4 -2 2 -3 -4 -1 -6 1 -18 -6 -27 -17 -12 -14 -13 -19 -4 -19 7 0 13
-11 13 -26 l0 -26 -17 21 c-27 33 -31 25 -9 -19 20 -40 16 -51 -9 -27 -11 10
-12 9 -6 -1 4 -8 0 -19 -11 -28 -11 -9 -13 -12 -5 -8 9 4 12 2 9 -7 -3 -8 -12
-15 -21 -17 -13 -3 -17 4 -17 30 1 46 32 110 85 172 24 29 54 75 66 101 26 59
36 194 21 277 -13 68 1 127 44 189 32 46 38 49 22 12z m-1066 -348 c251 -453
242 -435 221 -450 -12 -9 -22 -10 -30 -3 -7 5 -17 7 -24 3 -8 -6 -7 -10 2 -17
10 -7 6 -8 -13 -5 -16 2 -25 0 -22 -5 4 -6 -2 -8 -12 -6 -11 2 -18 10 -16 16
1 7 -2 12 -7 12 -5 0 -18 3 -28 7 -17 7 -17 6 0 -11 32 -32 18 -53 -32 -47 -7
2 -10 -2 -7 -7 5 -8 -33 -26 -41 -19 -3 4 -153 792 -153 807 0 7 2 11 4 9 2
-2 73 -130 158 -284z m1438 208 c-56 -257 -120 -564 -120 -576 0 -17 -24 -26
-52 -19 -14 3 -15 7 -5 23 15 23 4 34 -20 19 -16 -10 -16 -11 0 -6 21 7 21 2
0 -31 -17 -26 -17 -26 3 -21 14 4 20 0 20 -13 0 -11 -7 -17 -18 -16 -10 1 -18
5 -18 9 0 4 -7 8 -16 8 -14 0 -15 2 -3 17 13 15 12 16 -8 11 -13 -4 -23 -2
-23 3 0 5 -7 9 -15 9 -8 0 -15 5 -15 12 0 6 -3 8 -7 4 -22 -22 0 -54 50 -72 9
-3 17 -14 18 -23 0 -10 2 -11 6 -3 9 22 25 13 18 -10 -3 -13 -3 -18 2 -12 4 6
18 16 31 23 19 10 21 15 11 27 -10 13 -10 17 2 25 20 13 31 11 22 -3 -4 -7 -6
-21 -5 -30 2 -10 -2 -18 -8 -18 -7 0 -9 -7 -6 -16 3 -8 2 -12 -4 -9 -6 3 -10
-1 -10 -9 0 -9 4 -16 9 -16 9 0 -2 -66 -12 -76 -3 -3 -33 9 -67 26 -34 17 -67
29 -73 27 -6 -2 34 -27 89 -56 55 -29 140 -82 188 -117 63 -47 91 -63 99 -55
8 8 6 11 -5 11 -9 0 -18 7 -22 15 -3 9 0 15 9 15 8 0 15 4 15 9 0 5 10 13 22
17 12 3 29 13 37 21 7 8 22 13 31 10 11 -3 17 1 16 12 -1 10 94 79 279 202
154 102 281 185 283 183 5 -3 -12 -29 -170 -256 -185 -267 -216 -308 -233
-308 -8 0 -15 -5 -15 -11 0 -5 5 -7 11 -3 7 4 7 -1 -1 -16 -7 -12 -21 -25 -31
-27 -12 -3 -19 -14 -19 -28 0 -12 -8 -29 -17 -36 -15 -13 -16 -12 -11 9 4 14
2 20 -5 15 -6 -3 -25 11 -43 33 -18 21 -36 35 -40 31 -4 -4 6 -22 22 -40 46
-49 97 -117 92 -123 -3 -2 -53 -9 -111 -14 -128 -11 -258 -33 -354 -60 -40
-11 -97 -20 -127 -20 -127 0 -209 -33 -301 -120 -33 -31 -94 -78 -135 -105
-41 -26 -104 -70 -138 -97 -35 -27 -65 -48 -66 -46 -2 2 -8 25 -15 52 -19 77
-49 126 -120 197 -78 78 -143 107 -260 115 -152 12 -307 -43 -406 -143 -30
-31 -53 -58 -50 -61 3 -3 23 13 45 35 114 119 280 176 446 152 155 -22 290
-143 329 -297 l16 -63 -88 -84 -88 -84 80 44 c44 25 83 45 87 45 12 0 9 -236
-3 -286 -10 -38 -21 -52 -65 -85 -46 -33 -56 -47 -69 -93 -9 -29 -12 -62 -9
-72 10 -28 35 -54 52 -54 9 0 5 8 -12 21 -52 41 -24 139 57 196 58 40 69 76
72 233 1 63 3 125 4 136 1 17 19 28 96 58 52 20 97 36 99 36 2 0 6 -84 8 -187
4 -215 12 -243 80 -284 73 -44 96 -142 45 -189 -14 -13 -16 -20 -7 -20 27 0
50 32 50 71 0 62 -26 112 -76 148 -65 46 -77 80 -82 244 -2 75 -1 157 2 181 6
39 10 44 45 55 54 16 59 14 54 -16 l-5 -28 17 30 c9 16 18 31 21 34 2 2 29
-23 59 -56 30 -34 74 -70 99 -82 145 -67 342 -7 397 122 l12 28 23 -22 c24
-22 35 -14 12 9 -48 48 260 -39 444 -124 89 -42 85 -31 87 -231 5 -384 -144
-735 -428 -1007 -115 -111 -195 -168 -338 -240 -176 -88 -351 -133 -558 -142
-613 -29 -1174 359 -1370 949 -94 283 -92 607 7 885 119 338 359 613 676 776
303 155 644 196 957 114 81 -21 152 -33 125 -22 -8 4 -25 11 -38 15 -19 8 -21
12 -12 30 7 11 18 18 25 15 17 -6 39 19 32 37 -3 8 1 14 9 14 7 0 11 -3 9 -7
-2 -3 0 -12 6 -20 6 -11 9 -6 9 18 0 17 4 31 9 30 9 -3 11 2 11 25 0 8 -3 7
-10 -3 -5 -8 -13 -11 -17 -6 -4 4 3 16 16 27 13 10 20 19 16 19 -4 0 5 21 21
47 37 63 323 493 328 493 2 0 0 -17 -4 -37z m-1930 -202 c10 -21 48 -61 83
-89 128 -100 175 -181 187 -327 7 -87 33 -163 60 -180 16 -10 12 -23 -15 -41
-23 -15 -26 -14 -95 41 -39 33 -73 68 -76 82 -4 13 -3 47 1 76 20 137 7 175
-100 297 -31 36 -61 76 -67 90 -18 47 -28 124 -21 159 l7 36 8 -53 c4 -29 17
-70 28 -91z m13 46 c-3 -5 -2 -7 4 -4 5 4 23 -7 39 -24 16 -17 54 -43 84 -59
54 -27 104 -70 82 -70 -6 0 -16 8 -21 18 -10 16 -10 16 -11 0 0 -10 -5 -18
-11 -18 -5 0 -7 -4 -4 -10 3 -5 11 -10 16 -10 6 0 7 5 3 12 -4 7 -3 8 5 4 6
-4 9 -12 6 -17 -4 -5 -1 -9 5 -9 6 0 9 -4 5 -9 -3 -5 -1 -12 4 -16 6 -3 7 -13
4 -22 -4 -11 -3 -14 5 -9 8 5 12 0 12 -14 0 -12 4 -18 10 -15 6 4 10 3 8 -2
-4 -17 26 -95 39 -100 10 -4 11 -9 2 -19 -7 -8 -9 -29 -5 -51 11 -63 14 -87
15 -104 1 -9 7 -19 15 -22 13 -5 26 3 75 44 11 10 12 8 6 -10 -4 -12 -2 -21 4
-21 6 0 11 -6 11 -14 0 -8 5 -18 10 -21 6 -4 10 7 10 25 0 19 -4 29 -10 25
-12 -8 -9 17 3 26 5 4 -3 9 -18 13 -21 5 -24 10 -16 20 6 7 8 17 4 22 -4 5 5
-3 21 -17 16 -15 30 -38 31 -52 2 -14 6 -34 9 -45 5 -15 1 -24 -14 -32 -14 -8
-20 -8 -20 0 0 7 -14 -3 -31 -20 -31 -30 -32 -30 -52 -13 -34 31 -57 98 -66
196 -13 139 -61 219 -187 318 -68 54 -103 110 -111 182 l-4 42 20 -44 c12 -23
18 -48 14 -54z m862 -7 c3 -5 -1 -10 -10 -10 -9 0 -13 5 -10 10 3 6 8 10 10
10 2 0 7 -4 10 -10z m1443 -49 c-62 -39 -93 -84 -113 -161 -40 -158 -105 -247
-224 -309 -74 -38 -114 -73 -152 -131 -14 -21 -18 -23 -33 -11 -20 17 -20 32
1 126 19 88 37 104 140 128 92 21 122 49 187 176 60 117 89 149 171 187 68 32
78 30 23 -5z m17 -31 c-21 -21 -42 -37 -45 -35 -4 3 -7 -1 -7 -8 1 -24 -16
-98 -24 -103 -5 -3 -6 -11 -2 -17 13 -21 14 -49 1 -41 -7 5 -9 1 -6 -13 4 -16
1 -20 -15 -19 -11 1 -22 -5 -25 -13 -3 -10 0 -12 12 -8 21 8 21 -19 0 -61 -15
-31 -30 -45 -22 -19 3 6 -4 20 -14 29 -17 17 -18 17 -16 -7 1 -14 5 -25 9 -25
4 0 9 -8 11 -18 6 -20 -45 -96 -56 -85 -3 3 -6 -1 -6 -9 0 -9 -6 -18 -13 -21
-9 -3 -13 4 -12 23 0 16 5 26 11 23 6 -2 14 5 17 16 3 13 13 21 26 21 31 0 28
35 -4 38 -13 1 -27 -4 -31 -10 -5 -8 -2 -9 9 -5 10 3 17 2 17 -3 0 -6 -4 -11
-10 -11 -5 -1 -14 -2 -19 -3 -17 -2 -62 -46 -57 -55 3 -4 -7 -7 -22 -5 -24 2
-25 1 -9 -10 23 -18 22 -29 -2 -16 -47 25 -67 -2 -36 -47 13 -19 13 -22 -1
-27 -9 -3 -17 1 -20 12 -3 9 -10 26 -15 37 -8 18 -9 18 -3 -2 6 -24 -24 -85
-38 -77 -4 3 -8 0 -8 -5 0 -6 10 -11 23 -12 21 0 21 -1 2 -9 -19 -8 -19 -9 3
-9 13 -1 20 -5 17 -11 -3 -5 0 -10 7 -10 9 0 9 -3 -2 -10 -13 -8 -13 -10 -1
-10 11 0 10 -4 -4 -14 -16 -12 -24 -9 -67 21 -53 39 -54 42 -33 82 20 39 63
73 145 117 39 20 86 54 106 76 42 47 87 138 108 222 20 77 43 114 95 153 59
45 73 41 26 -7z m-2381 -360 c237 -189 304 -247 293 -255 -8 -5 -12 -16 -9
-24 3 -10 -1 -12 -17 -8 -15 4 -21 1 -21 -11 0 -15 -40 -42 -63 -42 -4 0 -5 6
-1 13 4 7 3 9 -2 4 -5 -5 -9 -14 -9 -20 -1 -7 -7 -11 -14 -9 -7 1 -9 -2 -6 -9
5 -8 10 -8 18 0 6 6 15 11 21 11 5 0 -7 -16 -28 -35 -21 -19 -42 -35 -47 -35
-4 0 -9 -6 -11 -14 -2 -11 -423 650 -437 686 -6 18 16 1 333 -252z m403 48 c2
-18 0 -20 -7 -8 -12 18 -13 30 -2 30 4 0 9 -10 9 -22z m-37 -8 c0 -5 -4 -10
-10 -10 -5 0 -10 5 -10 10 0 6 5 10 10 10 6 0 10 -4 10 -10z m1159 -9 c20 -13
6 -41 -21 -41 -21 0 -21 0 -2 15 16 13 17 16 4 25 -18 12 0 13 19 1z m-2018
-96 c11 -4 19 -11 19 -16 0 -6 3 -8 8 -6 4 3 27 1 52 -3 29 -5 36 -8 18 -9
-20 -1 -26 -5 -22 -16 4 -8 10 -12 15 -9 5 3 9 -1 9 -8 0 -8 3 -9 8 -3 11 17
55 17 48 0 -2 -7 2 -16 10 -19 9 -3 12 -1 9 4 -3 6 -4 10 0 10 3 0 9 -10 14
-23 5 -12 27 -32 50 -42 22 -11 41 -23 42 -27 1 -5 2 -14 3 -20 1 -7 8 -12 15
-10 7 1 10 -2 7 -6 -3 -5 3 -17 13 -26 11 -10 25 -31 31 -47 7 -16 16 -26 21
-24 4 3 13 -4 19 -15 6 -11 17 -20 26 -20 12 0 12 4 4 20 -6 11 -7 20 -3 21 4
0 19 2 31 3 15 2 26 -3 29 -13 2 -9 11 -28 19 -43 18 -34 18 -47 -1 -22 -16
21 -16 20 -20 -13 -1 -14 3 -23 11 -23 8 0 14 -5 14 -11 0 -5 -4 -7 -10 -4 -5
3 -10 1 -10 -4 0 -6 5 -11 11 -11 7 0 9 -10 4 -27 -6 -24 -5 -25 12 -12 16 13
17 12 4 -3 -11 -15 -16 -16 -40 -4 -43 23 -67 56 -111 151 -23 50 -53 103 -68
119 -42 44 -137 103 -205 125 -87 29 -123 54 -157 108 -42 65 -37 74 11 25 23
-23 50 -44 60 -47z m-29 -48 c18 -14 51 -30 73 -37 151 -48 254 -132 299 -245
34 -85 57 -118 107 -155 38 -27 38 -28 21 -48 l-17 -20 -89 26 c-82 25 -91 30
-108 64 -11 20 -23 64 -28 96 -4 33 -13 68 -18 78 -19 35 -72 78 -164 134 -83
50 -95 61 -124 115 -18 33 -36 74 -39 90 -5 24 -1 20 24 -22 17 -28 45 -63 63
-76z m951 98 c-7 -21 -13 -19 -13 6 0 11 4 18 10 14 5 -3 7 -12 3 -20z m1127
-5 c0 -5 -2 -10 -4 -10 -3 0 -8 5 -11 10 -3 6 -1 10 4 10 6 0 11 -4 11 -10z
m-102 -10 c2 -3 15 -6 30 -9 11 -2 -21 -21 -36 -21 -7 0 -11 4 -8 9 3 4 -7 6
-22 3 -24 -5 -25 -3 -14 10 10 13 38 17 50 8z m-1025 -37 c-7 -2 -19 -2 -25 0
-7 3 -2 5 12 5 14 0 19 -2 13 -5z m-43 -25 c0 -10 -2 -18 -5 -18 -2 0 -9 8
-14 18 -8 14 -6 19 5 19 7 0 14 -9 14 -19z m-723 -14 c-3 -3 -12 -4 -19 -1 -8
3 -5 6 6 6 11 1 17 -2 13 -5z m2460 -18 c-6 -13 -20 -29 -29 -35 -15 -9 -18
-8 -18 11 0 12 3 18 7 15 9 -9 34 13 27 24 -3 5 1 9 9 9 12 0 13 -4 4 -24z
m-2397 -30 c0 -3 -4 -8 -10 -11 -5 -3 -10 -1 -10 4 0 6 5 11 10 11 6 0 10 -2
10 -4z m176 -118 c9 -17 10 -28 4 -28 -5 0 -10 7 -10 15 0 8 -17 34 -37 57
-35 41 -36 42 -4 13 18 -16 39 -42 47 -57z m2174 67 c0 -8 -4 -15 -10 -15 -5
0 -7 7 -4 15 4 8 8 15 10 15 2 0 4 -7 4 -15z m-47 -9 c4 -10 1 -13 -8 -9 -8 3
-12 9 -9 14 7 12 11 11 17 -5z m975 -15 c9 -5 -4 -10 -37 -14 -73 -9 -103 -29
-176 -116 -98 -118 -202 -181 -301 -181 -69 0 -140 -19 -183 -50 -38 -28 -39
-28 -56 -10 -16 18 -14 23 39 99 65 91 90 103 178 82 101 -23 146 -7 259 91
41 36 84 70 97 77 46 24 156 38 180 22z m-948 -30 c0 -4 -6 -8 -14 -8 -8 0
-12 6 -9 14 5 13 23 9 23 -6z m932 -6 c-18 -8 -36 -14 -40 -14 -24 4 -42 -3
-42 -16 0 -9 -6 -12 -17 -8 -11 4 -14 3 -9 -5 5 -8 2 -10 -8 -6 -18 7 -21 -7
-5 -23 8 -8 7 -13 -2 -18 -8 -5 -10 -4 -5 3 4 7 1 12 -8 12 -8 0 -18 -4 -21
-10 -3 -5 -1 -10 5 -10 19 0 -18 -43 -40 -47 -28 -4 -26 2 21 59 52 62 115 96
179 97 23 0 22 -1 -8 -14z m-3038 -73 c3 -5 -1 -9 -9 -9 -8 0 -15 4 -15 9 0 4
4 8 9 8 6 0 12 -4 15 -8z m85 -42 c4 0 17 -17 28 -38 l22 -37 -20 -25 -21 -25
6 28 c4 15 2 27 -4 27 -5 0 -10 -4 -10 -10 0 -5 -5 -10 -10 -10 -7 0 -7 6 0
19 12 23 13 52 3 50 -21 -3 -33 3 -33 17 0 11 5 14 16 10 9 -3 19 -6 23 -6z
m-485 -131 c204 -60 377 -111 384 -114 10 -4 10 -9 1 -27 -11 -21 -12 -21 -25
-3 -8 10 -14 14 -14 9 0 -6 5 -15 11 -21 15 -15 3 -47 -12 -37 -7 4 -9 3 -6
-3 10 -16 -16 -58 -38 -61 -26 -5 -34 -13 -17 -19 13 -5 16 -35 5 -47 -5 -4
-15 -26 -24 -48 l-15 -40 -315 247 c-173 136 -323 256 -334 267 l-20 20 24 -7
c14 -4 191 -56 395 -116z m3246 65 c0 -26 -7 -29 -30 -14 -13 8 -12 10 3 10 9
0 17 5 17 10 0 7 -6 7 -20 0 -11 -6 -20 -15 -20 -21 0 -6 -5 -7 -11 -4 -15 10
29 55 47 48 8 -3 14 -16 14 -29z m-54 -35 c10 -11 13 -19 7 -17 -6 2 -10 -1
-9 -7 0 -5 5 -9 9 -7 5 1 6 -2 2 -7 -8 -14 -35 -2 -35 16 0 8 -6 13 -12 10 -7
-2 -12 -11 -10 -21 3 -14 -19 -22 -50 -17 -4 0 -26 -6 -49 -14 -23 -8 -52 -15
-65 -15 -13 0 -27 -7 -31 -15 -7 -12 -10 -11 -21 5 -11 19 -9 20 35 20 51 0
156 43 182 73 18 22 24 21 47 -4z m-76 -70 c0 -4 -6 -9 -13 -12 -8 -3 -14 0
-14 7 0 7 6 13 14 13 7 0 13 -4 13 -8z m31 -6 c13 -16 12 -17 -3 -4 -17 13
-22 21 -14 21 2 0 10 -8 17 -17z m-261 -10 c-14 -2 -32 -7 -40 -10 -8 -3 -21
-7 -29 -9 -8 -1 -27 -12 -43 -24 -30 -22 -50 -23 -24 -1 31 26 93 50 126 49
26 0 28 -2 10 -5z m250 -7 c0 -2 -7 -6 -15 -10 -8 -3 -15 -1 -15 4 0 6 7 10
15 10 8 0 15 -2 15 -4z m495 -35 c-6 -5 -55 -38 -110 -73 l-100 -65 -52 18
c-28 9 -76 23 -107 30 -31 7 -54 15 -51 17 5 5 385 79 415 81 8 1 10 -2 5 -8z
m-620 -22 c-4 -5 -12 -9 -18 -8 -9 0 -8 2 1 6 6 2 9 10 6 15 -4 7 -2 8 5 4 6
-4 9 -12 6 -17z m-82 -6 c-13 -2 -35 -2 -50 0 -16 2 -5 4 22 4 28 0 40 -2 28
-4z m157 -37 c722 -123 1340 -654 1564 -1342 43 -134 62 -208 76 -299 5 -38
13 -88 16 -110 11 -75 14 -319 4 -417 -20 -208 -89 -467 -173 -651 -120 -261
-348 -551 -573 -729 -130 -103 -374 -253 -374 -231 0 5 -4 2 -8 -5 -23 -35
-350 -144 -537 -178 -154 -29 -528 -27 -685 3 -320 61 -611 190 -858 378 -101
78 -152 121 -152 129 0 3 34 -11 76 -30 216 -100 433 -146 689 -146 332 0 628
85 892 258 230 150 306 244 391 486 43 122 65 161 113 200 37 31 42 41 46 85
l5 50 67 -4 c61 -4 70 -2 121 30 35 21 55 40 55 52 0 13 12 22 40 30 l40 11
-47 12 c-26 7 -86 38 -134 71 -79 53 -91 58 -117 49 -15 -6 -30 -9 -32 -6 -2
2 4 43 13 91 13 68 20 87 32 85 9 -2 14 -12 12 -25 -2 -12 2 -24 7 -28 7 -4 8
0 5 10 -4 10 -2 15 6 13 7 -2 14 2 17 9 8 23 -41 36 -123 34 -64 -1 -86 2 -98
14 -34 34 -15 84 75 195 87 109 91 117 87 218 -3 78 -6 90 -30 117 -15 16 -40
52 -55 80 l-28 50 3 183 c3 209 0 219 -77 315 -248 309 -617 524 -1016 593
-112 19 -357 26 -450 13 -38 -5 -86 -12 -105 -13 -19 -2 -42 -6 -50 -9 -8 -3
-46 -13 -85 -22 -38 -10 -104 -30 -145 -46 -41 -15 -82 -29 -90 -31 -8 -2 -18
-7 -22 -13 -4 -5 -10 -7 -13 -3 -16 16 11 47 88 104 256 189 547 314 862 370
188 33 479 33 675 0z m-991 -60 c-2 -2 -39 -18 -82 -35 -42 -17 -110 -47 -150
-67 l-72 -36 35 36 c43 46 118 83 190 95 67 11 85 12 79 7z m-2611 -47 c2 -4
11 -5 20 -2 13 4 14 3 3 -5 -11 -8 -8 -13 15 -26 16 -8 25 -15 21 -16 -13 0
-49 21 -82 48 -29 24 -29 25 -5 17 14 -4 26 -11 28 -16z m271 7 c-2 -2 -26 -6
-54 -9 -32 -4 -43 -3 -30 3 19 8 93 14 84 6z m97 -4 c-5 -8 -76 -4 -76 4 0 2
18 4 41 4 22 0 38 -4 35 -8z m-395 -18 c7 -8 31 -25 53 -36 35 -18 61 -22 176
-23 176 -2 219 -18 329 -119 73 -67 125 -96 175 -96 16 0 21 -26 8 -46 -10
-16 -179 -36 -202 -24 -25 13 -66 64 -87 107 -24 52 -89 89 -176 102 -154 23
-178 30 -226 66 -27 19 -56 46 -65 60 -18 27 -6 35 15 9z m512 -15 c20 -11 37
-22 37 -25 0 -2 -9 0 -20 6 -11 6 -20 8 -20 4 0 -3 -7 0 -16 7 -9 8 -33 19
-53 26 l-36 12 35 -6 c19 -3 52 -14 73 -24z m-350 14 c-18 -2 -48 -2 -65 0
-18 2 -4 4 32 4 36 0 50 -2 33 -4z m-36 -39 c-3 -3 -12 -4 -19 -1 -8 3 -5 6 6
6 11 1 17 -2 13 -5z m161 -1 c-15 -2 -42 -2 -60 0 -18 2 -6 4 27 4 33 0 48 -2
33 -4z m85 -10 c-7 -2 -19 -2 -25 0 -7 3 -2 5 12 5 14 0 19 -2 13 -5z m44 -9
c-3 -3 -12 -4 -19 -1 -8 3 -5 6 6 6 11 1 17 -2 13 -5z m54 -20 c17 -8 48 -31
70 -51 21 -19 39 -32 39 -27 0 5 7 -2 16 -14 8 -12 20 -20 25 -16 5 3 8 0 7
-8 -2 -7 17 -23 42 -35 24 -13 39 -23 32 -23 -27 0 -79 34 -132 85 -30 30 -75
65 -100 79 -49 28 -48 36 1 10z m280 -31 c22 -16 37 -34 34 -41 -3 -8 -5 -20
-5 -28 0 -8 -9 -14 -21 -14 -14 0 -19 5 -16 14 4 9 -2 17 -13 21 -11 4 -17 12
-13 21 3 8 -1 14 -11 14 -10 0 -13 5 -9 17 4 10 2 14 -4 10 -5 -3 -23 -2 -39
3 -27 8 -26 8 14 9 33 1 54 -6 83 -26z m1843 -138 c9 -14 26 -26 39 -26 14 -1
17 -3 6 -6 -9 -2 -21 -14 -26 -26 -10 -22 -11 -21 -47 15 -20 20 -36 43 -36
52 0 26 45 20 64 -9z m136 4 c-6 -11 -18 -23 -26 -26 -7 -3 -12 -9 -9 -13 6
-10 -21 -7 -31 3 -4 4 0 7 9 7 10 0 27 11 39 25 26 30 32 32 18 4z m47 15 c-3
-3 -12 -4 -19 -1 -8 3 -5 6 6 6 11 1 17 -2 13 -5z m111 0 c12 -4 22 -10 22
-14 0 -17 -67 -95 -99 -117 -73 -49 -195 -59 -280 -22 -46 19 -141 105 -141
127 0 10 57 22 100 22 19 0 29 -9 42 -38 47 -101 203 -96 246 8 15 36 21 40
52 40 19 0 45 -3 58 -6z m-2141 -30 c-3 -3 -12 -4 -19 -1 -8 3 -5 6 6 6 11 1
17 -2 13 -5z m1931 -71 c-10 -2 -28 -2 -40 0 -13 2 -5 4 17 4 22 1 32 -1 23
-4z m-688 -18 c0 -8 -13 -21 -30 -30 -38 -19 -39 -8 -2 22 33 27 32 27 32 8z
m-1257 -16 c-4 -16 -8 -17 -14 -7 -5 7 -9 8 -9 3 0 -6 4 -15 9 -20 6 -6 5 -32
0 -65 -5 -30 -10 -93 -9 -139 0 -81 0 -83 -23 -77 -155 41 -811 225 -807 226
6 2 817 97 842 99 12 1 15 -5 11 -20z m2814 -95 c52 -30 51 -37 -2 -26 -26 5
-41 15 -46 30 -11 28 -5 28 48 -4z m65 -55 c42 -11 155 -98 237 -182 52 -54
53 -56 30 -61 -32 -8 -384 -64 -385 -63 -1 1 3 43 8 92 5 50 6 123 2 164 l-6
74 39 -7 c21 -4 55 -12 75 -17z m-2912 -180 c0 -5 -7 -5 -17 -2 -9 4 -14 2
-10 -4 3 -5 -3 -17 -14 -26 -10 -9 -20 -12 -20 -7 -1 6 -2 15 -3 22 0 6 -7 13
-15 16 -10 3 -12 0 -8 -12 4 -9 2 -16 -3 -16 -6 0 -10 7 -10 16 0 11 -6 14
-21 9 -21 -7 -47 -13 -62 -14 -5 -1 -5 -5 -2 -11 8 -13 -5 -13 -25 0 -13 9
-13 10 0 11 8 0 4 4 -10 8 -18 5 -9 8 30 8 31 0 69 7 84 15 22 12 38 13 67 5
22 -5 39 -13 39 -18z m-263 4 c-10 -3 -14 -9 -10 -16 5 -9 3 -9 -8 0 -8 6 -35
13 -59 16 -31 2 -22 4 25 4 39 0 62 -1 52 -4z m-127 -11 c0 -4 -14 -8 -32 -9
-18 0 -34 -6 -36 -12 -2 -6 -8 -9 -13 -6 -7 5 -63 -18 -79 -32 -2 -2 2 -9 10
-14 11 -8 10 -9 -7 -4 -29 8 -51 -4 -32 -16 10 -6 8 -9 -7 -9 -12 0 -43 -10
-70 -21 -44 -20 -46 -23 -29 -35 18 -13 17 -14 -8 -14 -16 0 -25 5 -23 13 1 6
1 9 -1 5 -7 -12 -45 -9 -78 7 -29 13 -29 13 33 14 72 1 115 16 183 67 66 48
189 92 189 66z m134 -63 c-6 -11 -54 -12 -54 -1 0 4 13 7 30 8 16 1 27 -3 24
-7z m-121 -6 c-7 -2 -19 -2 -25 0 -7 3 -2 5 12 5 14 0 19 -2 13 -5z m3637 -45
c46 -57 90 -141 90 -172 0 -17 -6 -18 -67 -11 -85 9 -142 33 -174 74 -13 18
-41 52 -63 77 -21 24 -37 45 -35 45 3 1 170 32 201 38 3 0 25 -23 48 -51z
m-3321 30 c-5 -40 21 -53 40 -20 6 9 11 11 11 5 0 -7 8 -13 18 -14 14 0 14 -2
-3 -9 -32 -14 -117 -10 -150 6 -16 8 -21 12 -10 8 66 -19 75 -18 75 10 0 14 5
26 10 26 6 0 10 -6 9 -12z m-137 -29 c71 -26 94 -30 156 -27 71 3 72 3 72 -22
0 -21 -13 -32 -77 -69 -93 -53 -114 -51 -209 13 -58 40 -73 46 -118 46 -29 0
-86 -9 -127 -21 -115 -32 -165 -34 -230 -10 -30 12 -64 28 -75 36 -16 12 -11
12 31 -1 66 -20 139 -13 206 22 142 72 241 81 371 33z m8 21 c8 -5 11 -10 5
-10 -5 0 -17 5 -25 10 -8 5 -10 10 -5 10 6 0 17 -5 25 -10z m3227 -66 c106
-124 106 -123 168 -139 32 -8 79 -15 103 -15 43 0 43 0 40 -32 l-3 -33 -105 0
c-126 1 -168 16 -255 95 -65 59 -124 89 -174 90 -31 0 -33 2 -26 27 4 16 7 29
8 29 7 6 176 29 189 26 10 -2 34 -24 55 -48z m-3662 6 c-3 -5 -14 -10 -23 -9
-14 0 -13 2 3 9 27 11 27 11 20 0z m688 -154 c4 -23 6 -27 48 -130 16 -39 26
-72 24 -75 -7 -7 -796 -111 -820 -108 -12 1 131 87 350 210 l370 207 12 -42
c7 -23 14 -51 16 -62z m2799 89 c53 -19 158 -107 140 -119 -7 -4 -12 -1 -12 7
0 19 -34 49 -45 40 -4 -5 -6 -3 -2 2 3 6 -3 16 -14 23 -11 7 -19 8 -19 2 0 -5
-4 -10 -10 -10 -5 0 -10 9 -10 20 0 15 -7 20 -25 20 -15 0 -25 -6 -25 -14 0
-9 -7 -13 -20 -11 -11 2 -20 0 -20 -6 0 -5 -8 -9 -17 -10 -10 0 -13 -3 -7 -5
7 -3 10 -14 7 -24 -3 -11 -10 -17 -16 -13 -6 3 -7 1 -3 -6 13 -21 69 -39 89
-29 10 5 23 7 30 4 7 -2 2 -8 -10 -11 -13 -4 -20 -11 -17 -16 3 -5 -2 -9 -11
-9 -20 0 -95 49 -95 63 0 8 10 49 26 105 5 16 31 15 86 -3z m18 -39 c0 -3 -4
-8 -10 -11 -5 -3 -10 -1 -10 4 0 6 5 11 10 11 6 0 10 -2 10 -4z m367 -140 c80
-1 93 -3 93 -18 0 -16 -15 -24 -60 -33 -12 -2 -30 -7 -41 -10 -14 -5 -19 -2
-19 11 0 13 -3 14 -14 5 -12 -10 -20 -9 -40 4 -14 10 -26 22 -26 27 0 5 -4 7
-9 4 -7 -5 -40 15 -75 45 -5 5 15 -1 45 -13 39 -15 79 -21 146 -22z m-324 17
c-7 -2 -19 -2 -25 0 -7 3 -2 5 12 5 14 0 19 -2 13 -5z m76 -33 c24 -17 40 -30
35 -30 -5 0 -29 14 -53 30 -24 17 -40 30 -35 30 5 0 29 -14 53 -30z m-23 -13
c75 -49 234 -74 332 -52 l32 7 0 -69 c0 -76 24 -139 79 -207 17 -21 31 -47 31
-58 0 -18 -2 -17 -32 5 -18 13 -150 106 -293 207 -143 100 -264 187 -270 193
-22 21 83 -1 121 -26z m101 -23 c-3 -3 -12 -4 -19 -1 -8 3 -5 6 6 6 11 1 17
-2 13 -5z m40 -10 c-3 -3 -12 -4 -19 -1 -8 3 -5 6 6 6 11 1 17 -2 13 -5z m93
-10 c0 -2 -19 -4 -42 -3 -35 1 -38 2 -18 8 23 7 60 4 60 -5z m90 0 c0 -2 -15
-4 -32 -3 -27 0 -29 2 -13 8 18 8 45 4 45 -5z m-3155 -81 c5 -15 4 -16 -6 -5
-7 6 -23 12 -35 12 -30 0 -79 -43 -79 -69 0 -12 -3 -21 -7 -21 -5 0 -13 0 -20
0 -6 0 -3 7 8 15 10 8 16 15 13 15 -13 0 -70 -27 -70 -33 2 -21 0 -27 -11 -24
-6 1 -14 -6 -16 -15 -3 -14 3 -18 23 -18 15 0 24 -4 20 -10 -3 -5 -21 -10 -38
-10 -18 0 -52 -9 -76 -20 -52 -24 -47 -24 -55 -4 -6 15 -4 15 11 3 15 -12 16
-12 10 3 -3 9 -1 18 5 20 8 3 8 9 0 24 -10 16 -11 17 -12 2 0 -10 -6 -15 -12
-13 -7 3 -27 -4 -45 -15 -30 -18 -31 -21 -22 -50 6 -16 13 -30 16 -30 3 0 3 7
-1 15 -3 8 -2 15 3 15 4 0 13 10 20 23 6 12 9 14 7 5 -3 -10 -1 -18 4 -18 6 0
10 -5 10 -11 0 -6 -6 -9 -14 -6 -8 3 -16 -2 -19 -15 -8 -28 -31 -17 -35 15
l-3 27 -30 -27 c-16 -15 -29 -32 -29 -36 0 -4 -11 -25 -25 -45 -22 -32 -23
-38 -10 -48 13 -9 11 -14 -9 -33 -16 -15 -26 -19 -31 -11 -4 7 1 14 14 17 24
6 28 23 6 23 -8 0 -20 -9 -27 -20 -7 -11 -18 -20 -25 -20 -7 0 -10 -7 -7 -15
4 -8 1 -15 -6 -15 -6 0 -8 6 -5 13 4 6 0 4 -8 -5 -9 -11 -27 -18 -48 -17 l-34
1 30 11 c78 30 110 61 174 169 41 68 206 178 268 178 35 0 74 19 115 55 44 40
101 49 113 18z m-72 -38 c-3 -9 -8 -14 -10 -11 -3 3 -2 9 2 15 9 16 15 13 8
-4z m57 -18 c0 6 14 10 30 11 17 0 28 -4 25 -9 -4 -5 -1 -9 4 -9 6 0 11 -9 11
-20 0 -15 -14 -28 -52 -45 -92 -43 -208 -28 -179 22 8 16 10 14 16 -10 5 -20
11 -25 20 -17 6 5 16 6 20 2 5 -4 5 1 2 10 -3 9 1 22 9 28 10 9 14 9 14 1 0
-6 7 -11 16 -11 14 0 14 3 4 15 -7 9 -10 18 -6 22 3 3 6 0 6 -7 0 -11 3 -11
12 -2 9 9 16 8 30 -5 11 -10 18 -11 18 -5 0 7 -4 12 -9 12 -5 0 -12 7 -15 16
-5 14 -4 15 9 4 8 -7 15 -8 15 -3z m110 -90 c0 -9 -79 -114 -107 -142 -17 -17
-18 -17 -179 0 -76 9 -120 -9 -214 -85 -36 -28 -78 -59 -95 -68 -37 -19 -191
-31 -181 -13 4 6 22 11 39 11 55 1 109 34 202 127 115 114 155 134 295 144
103 7 154 21 195 52 18 15 21 15 33 0 6 -9 12 -21 12 -26z m2560 -32 c11 -18
26 -61 33 -96 22 -104 53 -137 203 -212 74 -37 111 -73 145 -139 28 -55 19
-69 -14 -20 -29 45 -89 84 -155 102 -69 18 -134 49 -188 90 -41 31 -61 57 -97
128 -42 81 -89 137 -141 167 -15 9 -15 12 -2 31 l15 21 91 -20 c81 -18 93 -24
110 -52z m-2495 -50 c26 -33 74 -87 107 -121 l59 -61 -348 -203 c-191 -112
-359 -211 -373 -219 -21 -14 -23 -14 -15 -1 15 25 518 670 520 668 1 -2 24
-30 50 -63z m2342 2 c17 -19 45 -65 62 -101 17 -37 52 -87 77 -112 46 -47 156
-105 224 -119 42 -9 86 -30 96 -47 6 -10 3 -9 -9 0 -9 8 -22 10 -28 6 -8 -4
-9 -3 -5 4 4 7 3 12 -3 12 -5 0 -12 -6 -14 -12 -4 -9 -6 -8 -6 2 -1 9 -9 16
-18 16 -28 1 -47 8 -55 19 -5 6 -8 4 -8 -4 0 -11 -4 -10 -20 4 -12 10 -26 15
-37 11 -9 -4 -14 -4 -10 0 6 6 -29 44 -41 44 -3 0 -10 -7 -17 -16 -11 -16 -12
-16 -18 0 -4 9 -3 14 2 11 5 -3 12 -1 15 4 11 18 -17 24 -29 7 -11 -14 -14
-14 -18 -2 -3 8 -1 17 6 20 7 2 4 5 -5 5 -10 1 -18 6 -18 12 0 5 -8 9 -17 8
-35 -3 -54 1 -48 11 3 5 12 7 20 3 8 -3 15 -1 15 5 0 8 -24 23 -40 23 -3 1
-10 5 -16 10 -21 17 -22 -3 -3 -36 26 -43 85 -90 92 -72 3 7 6 5 6 -5 1 -17
51 -48 120 -73 20 -8 29 -14 21 -14 -23 -1 -118 46 -171 85 -26 19 -64 57 -84
85 -22 31 -51 57 -75 68 -22 10 -37 21 -34 24 7 6 47 -16 79 -45 20 -17 21
-17 32 12 13 34 -6 71 -35 65 -12 -2 -18 3 -19 16 -1 11 2 17 6 14 5 -2 7 6 6
18 -1 12 -3 30 -4 40 -1 14 -6 17 -22 12 -16 -5 -19 -4 -14 5 6 9 4 11 -5 5
-7 -4 -16 -2 -21 6 -7 11 -9 10 -9 -3 0 -10 -4 -18 -10 -18 -14 0 -12 11 6 31
15 16 19 17 44 4 15 -8 41 -29 57 -48z m-93 -8 c-3 -5 -10 -7 -15 -4 -10 7
-10 6 -14 -43 -2 -25 1 -32 11 -28 8 3 14 1 14 -4 0 -6 -5 -10 -11 -10 -5 0
-7 -5 -3 -12 4 -6 3 -8 -3 -5 -6 4 -20 22 -31 40 -19 33 -19 34 -1 59 13 18
26 24 39 21 11 -3 17 -9 14 -14z m66 -20 c0 -6 -4 -7 -10 -4 -5 3 -10 11 -10
16 0 6 5 7 10 4 6 -3 10 -11 10 -16z m-2900 -3 c0 -3 -13 -20 -30 -38 -32 -34
-38 -29 -17 15 6 15 20 27 30 27 9 0 17 -2 17 -4z m2779 -66 c12 -22 21 -42
21 -46 -1 -4 4 -10 10 -14 14 -9 390 -613 385 -619 -3 -3 -194 136 -573 417
l-113 84 28 21 c15 11 62 51 103 88 43 38 82 65 93 63 9 -1 15 2 11 7 -3 5
-10 7 -15 4 -13 -9 -11 9 3 23 18 18 22 15 47 -28z m-2856 -5 c-3 -9 -8 -14
-10 -11 -3 3 -2 9 2 15 9 16 15 13 8 -4z m868 -114 c25 -20 33 -61 12 -61 -7
0 -13 5 -13 10 0 6 -7 10 -15 10 -22 0 -19 -11 11 -43 17 -18 32 -26 42 -22
25 9 -27 -42 -66 -67 -18 -11 -39 -17 -48 -14 -8 3 -12 2 -9 -3 4 -8 -24 -23
-45 -24 -3 0 -11 -7 -19 -15 -11 -10 -16 -11 -21 -1 -11 17 -41 3 -34 -16 3
-8 1 -15 -6 -15 -6 0 -8 6 -5 13 4 6 -1 3 -9 -7 -9 -11 -16 -16 -16 -10 0 5
-7 0 -15 -10 -8 -11 -15 -16 -15 -11 0 5 7 17 17 27 14 15 14 18 1 18 -8 0
-23 -9 -33 -20 -10 -11 -14 -20 -9 -20 5 0 2 -5 -6 -11 -13 -9 -12 -10 2 -5
10 3 20 1 23 -5 4 -5 11 -7 16 -4 5 4 9 1 9 -5 0 -6 -10 -10 -22 -8 -35 5 -81
-46 -76 -84 3 -19 0 -32 -9 -35 -25 -10 -14 -25 14 -18 22 5 25 4 15 -8 -7 -8
-9 -17 -5 -20 3 -4 1 -7 -6 -7 -13 0 -41 -24 -41 -34 0 -3 7 -6 16 -6 8 0 12
-5 9 -11 -4 -6 -13 -8 -21 -5 -14 5 -18 -4 -15 -35 1 -9 -7 -19 -19 -22 -11
-3 -20 -10 -20 -17 0 -6 5 -8 10 -5 6 3 10 4 10 1 0 -6 -65 -46 -75 -46 -4 0
11 20 33 44 41 45 72 121 72 178 0 65 89 226 147 265 53 36 113 101 119 129 4
20 18 37 42 51 45 27 45 27 73 4z m58 -44 c8 -10 7 -14 -4 -14 -8 0 -15 6 -15
14 0 7 2 13 4 13 2 0 9 -6 15 -13z m55 -40 c17 -12 17 -17 -6 -102 -20 -78
-27 -92 -56 -111 -18 -12 -51 -25 -75 -29 -88 -13 -101 -18 -141 -59 -22 -22
-61 -79 -85 -124 -57 -105 -116 -156 -206 -176 l-30 -6 30 16 c39 21 93 73
110 104 7 15 23 55 35 90 47 140 104 207 224 264 86 41 166 107 166 136 0 14
13 13 34 -3z m1671 -43 c86 -64 96 -90 75 -179 -26 -107 -6 -158 115 -302 51
-61 65 -103 64 -193 -1 -59 -2 -62 -10 -30 -30 114 -29 113 -130 211 -124 120
-154 178 -163 314 -5 73 -12 101 -36 150 -29 56 -30 60 -14 72 10 7 19 13 21
13 2 0 37 -25 78 -56z m-1543 -33 c51 -27 116 -57 143 -67 28 -9 52 -19 54
-20 3 -3 -99 -141 -398 -541 -58 -78 -107 -140 -109 -138 -5 4 209 815 214
815 2 0 45 -22 96 -49z m1423 33 c28 -29 48 -76 35 -84 -8 -5 -7 -9 4 -13 9
-4 16 -15 16 -26 0 -18 -3 -19 -31 -9 -32 11 -45 7 -34 -12 4 -6 16 -8 27 -4
14 4 18 2 14 -5 -4 -6 0 -11 8 -11 9 0 16 -8 16 -18 0 -25 -11 -34 -26 -21 -7
6 -20 9 -28 7 -24 -5 -3 -29 30 -33 16 -2 30 -4 32 -4 7 -2 -20 -41 -29 -41
-6 0 -7 5 -3 11 4 7 1 10 -7 7 -16 -6 -19 -55 -4 -81 7 -13 18 -16 42 -11 36
7 44 -7 18 -32 -13 -14 -15 -14 -15 0 0 19 -16 21 -26 4 -4 -6 2 -17 12 -25
10 -8 18 -18 17 -23 -3 -11 82 -100 96 -100 14 0 14 17 0 25 -6 4 -8 14 -4 23
7 20 -27 52 -46 42 -11 -6 -14 -1 -14 21 -1 16 1 29 3 29 2 0 32 -31 67 -68
35 -37 74 -73 87 -80 13 -7 29 -21 35 -31 10 -16 8 -17 -15 -13 l-27 4 27 -28
c59 -63 65 -72 71 -110 l6 -39 -23 51 c-28 62 -81 116 -144 148 -92 47 -191
179 -212 283 -9 41 -22 66 -50 97 -30 33 -39 51 -42 86 -2 38 0 45 14 44 10
-1 16 2 15 7 -2 8 50 47 65 48 4 1 14 -6 23 -15z m828 -41 c-13 -2 -33 -2 -45
0 -13 2 -3 4 22 4 25 0 35 -2 23 -4z m-954 -85 c6 -40 35 -228 65 -418 31
-189 54 -346 52 -348 -2 -2 -89 140 -193 315 -262 440 -247 412 -231 417 65
21 87 26 99 23 8 -2 10 -1 4 1 -5 3 14 13 44 23 29 10 59 16 65 12 6 -3 7 -2
3 3 -7 7 50 40 74 43 4 1 12 -32 18 -71z m1065 53 c17 -11 33 -18 37 -15 5 3
16 -10 25 -28 l16 -33 -28 26 c-16 15 -45 36 -64 48 -19 11 -30 21 -25 21 6 0
23 -9 39 -19z m-2105 -67 c17 -4 31 -9 31 -13 0 -11 -49 -11 -55 -1 -4 6 -11
7 -17 4 -6 -4 -7 -9 0 -13 13 -8 -4 -51 -20 -50 -10 0 -10 2 0 6 15 6 16 33 1
33 -5 0 -8 -4 -5 -9 4 -5 1 -11 -5 -13 -6 -2 -13 -24 -15 -48 -2 -25 -6 -57
-8 -72 -2 -16 0 -28 5 -28 6 0 7 -5 3 -11 -5 -8 -8 -8 -13 0 -5 8 -12 6 -23
-6 -17 -19 -50 -93 -42 -93 3 0 0 -9 -6 -20 -8 -15 -8 -20 1 -20 8 0 6 -7 -4
-18 -19 -21 -22 -42 -7 -42 6 0 10 9 10 20 0 23 10 26 28 8 8 -8 12 -9 12 -1
0 6 -6 13 -12 16 -10 3 -8 9 4 24 14 15 15 22 6 31 -9 9 -9 12 -1 12 17 0 27
-39 14 -54 -6 -7 -8 -16 -4 -19 10 -11 -28 -47 -49 -47 -10 0 -18 -5 -18 -11
0 -6 7 -8 16 -5 12 4 14 1 9 -14 -5 -15 -2 -20 12 -20 17 -1 17 -1 1 -11 -10
-5 -18 -16 -18 -24 0 -7 -3 -15 -7 -18 -5 -2 -3 -2 4 -1 6 2 16 -3 22 -10 9
-10 7 -15 -8 -19 -18 -4 -19 -8 -9 -35 7 -17 17 -28 22 -25 6 3 5 0 -1 -8 -18
-18 -16 -39 5 -55 15 -12 16 -13 0 -14 -14 0 -29 -34 -32 -72 -1 -4 -7 -13
-15 -20 -12 -11 -13 -10 -6 7 24 60 29 116 15 173 -8 31 -15 100 -15 152 0
107 19 181 63 238 19 26 27 49 30 95 4 46 11 70 30 94 27 36 26 36 71 27z m68
-34 c2 -22 -12 -27 -20 -7 -3 7 -6 5 -6 -5 -1 -10 4 -18 10 -18 5 0 7 -4 4
-10 -3 -5 -1 -10 6 -10 8 0 8 -4 1 -12 -6 -7 -11 -17 -11 -23 -2 -22 -63 -95
-79 -94 -15 1 -15 2 1 6 9 2 17 9 17 14 0 6 -5 7 -10 4 -6 -3 -17 0 -25 8 -8
9 -20 17 -27 20 -7 2 -10 8 -6 12 4 4 15 0 24 -10 15 -15 19 -15 23 -3 3 9 21
28 39 43 24 20 30 30 22 40 -7 9 -7 20 1 39 14 31 34 34 36 6z m59 4 c19 -5
23 -18 34 -99 12 -90 12 -95 -9 -124 -12 -17 -41 -42 -64 -56 -53 -30 -92 -71
-107 -109 -6 -17 -17 -81 -25 -142 -15 -123 -31 -159 -99 -223 -45 -43 -46
-35 -3 25 l32 46 1 141 c1 198 16 246 111 349 59 64 92 126 93 171 0 29 3 30
36 21z m619 -71 c57 -94 57 -124 -4 -215 -36 -53 -41 -68 -41 -117 0 -32 13
-100 30 -161 27 -93 29 -110 20 -155 -6 -27 -20 -66 -31 -85 l-20 -35 7 33
c14 78 6 131 -34 215 -77 160 -85 232 -38 359 25 67 28 88 24 153 -5 75 -4 77
34 84 3 0 28 -34 53 -76z m-101 -29 c0 -63 -3 -78 -18 -86 -12 -7 -14 -13 -8
-17 7 -4 7 -12 3 -20 -7 -11 -11 -9 -20 8 -9 16 -9 21 0 21 6 0 8 7 5 16 -3 8
-2 13 3 10 5 -3 11 7 13 23 3 18 0 29 -6 28 -6 -1 -10 8 -9 21 3 26 -9 28 -33
5 -13 -13 -19 -14 -22 -5 -2 7 -12 17 -23 22 -15 8 -19 7 -19 -4 0 -10 6 -13
18 -10 16 5 16 4 -1 -9 -14 -11 -15 -16 -5 -21 11 -5 11 -7 0 -12 -10 -5 -10
-9 -1 -20 7 -8 11 -37 10 -64 -1 -37 3 -52 16 -60 16 -10 15 -11 -5 -6 l-24 5
5 -87 c6 -105 31 -176 88 -252 23 -30 46 -66 51 -80 18 -49 28 -122 18 -139
-7 -12 -9 -3 -10 33 0 68 -18 120 -55 164 -48 55 -81 129 -100 218 -14 67 -14
88 -4 142 12 56 11 70 -5 114 -19 54 -14 125 9 134 30 12 111 20 120 12 5 -4
9 -42 9 -84z m-156 71 c1 -1 -34 -151 -79 -333 -58 -239 -85 -332 -95 -332 -8
0 -14 -7 -14 -15 0 -8 5 -15 10 -15 10 0 4 -43 -8 -65 -3 -5 -7 -20 -8 -33 -4
-35 -11 -37 -18 -5 -3 15 -28 192 -56 393 -27 201 -52 377 -55 392 l-4 27 162
-6 c89 -3 163 -7 165 -8z m-474 -10 c3 -8 1 -15 -4 -15 -6 0 -10 7 -10 15 0 8
2 15 4 15 2 0 6 -7 10 -15z m-804 -55 c0 -5 -7 -10 -16 -10 -8 0 -12 5 -9 10
3 6 10 10 16 10 5 0 9 -4 9 -10z m2016 -29 c-4 -6 -14 -7 -23 -4 -15 6 -14 7
3 13 22 9 29 6 20 -9z m-1257 -75 c-2 -2 -14 -9 -26 -15 -18 -9 -23 -9 -23 1
0 8 12 15 27 16 14 1 25 0 22 -2z m2494 -14 c-31 -17 -32 -18 -13 -30 28 -17
53 -16 46 3 -3 8 -1 15 5 15 6 0 7 5 3 12 -4 7 -3 8 4 4 7 -4 12 -14 12 -21 0
-8 6 -12 14 -9 8 3 17 0 22 -7 4 -8 3 -10 -4 -5 -12 7 -16 -4 -13 -34 1 -12
-13 -15 -76 -14 -77 1 -78 2 -81 29 -4 32 24 68 47 60 9 -2 23 0 31 5 8 5 20
10 25 9 6 0 -5 -8 -22 -17z m118 -65 c-8 -8 -6 -16 6 -29 14 -16 14 -18 0 -18
-34 0 -47 11 -36 31 5 10 6 19 2 19 -4 0 -1 4 7 9 18 12 35 2 21 -12z m78 -26
c11 -7 9 -11 -8 -20 -14 -8 -21 -8 -21 -1 0 5 6 10 13 10 8 0 7 4 -3 10 -8 5
-10 10 -5 10 6 0 16 -4 24 -9z m-112 -24 c41 -12 42 -14 26 -30 -11 -11 -13
-17 -5 -17 7 0 12 5 12 10 0 6 4 10 9 10 5 0 8 -8 7 -17 0 -10 5 -17 12 -15 8
1 11 -2 7 -8 -3 -6 -11 -8 -16 -5 -5 4 -9 2 -9 -3 0 -5 -13 -7 -30 -4 -16 2
-30 8 -30 13 0 5 -5 9 -11 9 -8 0 -8 -5 1 -15 7 -8 9 -15 4 -16 -5 0 0 -4 11
-9 17 -7 14 -9 -14 -9 -30 -1 -32 1 -20 16 13 15 12 15 -8 5 -34 -18 -62 -14
-89 13 -26 26 -26 60 0 77 17 12 97 9 143 -5z"/>
<path d="M2410 5171 c0 -5 7 -11 14 -14 10 -4 13 -1 9 9 -6 15 -23 19 -23 5z"/>
<path d="M2457 5156 c-4 -10 -1 -13 8 -9 8 3 12 9 9 14 -7 12 -11 11 -17 -5z"/>
<path d="M2333 5153 c-10 -4 -9 -9 3 -20 17 -18 30 -11 17 10 -4 8 -14 12 -20
10z"/>
<path d="M2490 5140 c-13 -8 -12 -10 3 -10 9 0 17 5 17 10 0 12 -1 12 -20 0z"/>
<path d="M2394 5110 c0 -16 4 -30 8 -30 5 0 6 10 2 22 -6 19 -5 21 8 11 15
-13 28 -8 28 10 0 5 -6 7 -14 4 -7 -3 -18 -1 -23 4 -6 6 -9 -2 -9 -21z"/>
<path d="M2268 5103 c5 -21 7 -23 10 -9 2 10 0 22 -6 28 -6 6 -7 0 -4 -19z"/>
<path d="M2465 5110 c3 -5 8 -10 11 -10 2 0 4 5 4 10 0 6 -5 10 -11 10 -5 0
-7 -4 -4 -10z"/>
<path d="M2350 5101 c0 -6 5 -11 10 -11 6 0 5 -6 -2 -14 -7 -8 -17 -11 -22 -8
-5 3 -6 0 -2 -6 3 -5 0 -13 -6 -15 -7 -3 2 -3 21 0 24 4 32 3 27 -5 -4 -7 -2
-12 3 -12 14 0 14 17 0 25 -6 4 -8 13 -5 20 3 8 -2 19 -10 25 -10 9 -14 9 -14
1z"/>
<path d="M2457 5079 c7 -7 15 -10 18 -7 3 3 -2 9 -12 12 -14 6 -15 5 -6 -5z"/>
<path d="M2400 5064 c0 -13 18 -39 24 -34 2 3 -2 14 -10 24 -8 11 -14 16 -14
10z"/>
<path d="M2458 5043 c7 -3 16 -2 19 1 4 3 -2 6 -13 5 -11 0 -14 -3 -6 -6z"/>
<path d="M2917 5100 c-3 -11 -1 -20 4 -20 5 0 9 5 9 10 0 6 11 3 25 -6 23 -15
25 -15 25 2 0 9 -3 14 -7 11 -3 -4 -16 -1 -29 8 -20 13 -22 12 -27 -5z"/>
<path d="M2913 5045 c0 -14 3 -22 8 -19 5 3 9 11 9 19 0 8 -4 16 -9 19 -5 3
-8 -5 -8 -19z"/>
<path d="M3000 5060 c8 -5 20 -10 25 -10 6 0 3 5 -5 10 -8 5 -19 10 -25 10 -5
0 -3 -5 5 -10z"/>
<path d="M2985 4970 c3 -5 8 -10 11 -10 2 0 4 5 4 10 0 6 -5 10 -11 10 -5 0
-7 -4 -4 -10z"/>
<path d="M2390 4939 c0 -5 5 -7 10 -4 6 3 10 8 10 11 0 2 -4 4 -10 4 -5 0 -10
-5 -10 -11z"/>
<path d="M2451 4941 c-9 -6 -6 -8 13 -8 14 0 23 3 20 8 -7 11 -15 11 -33 0z"/>
<path d="M3396 4735 c-8 -22 -8 -22 7 -28 9 -3 13 2 12 14 -2 26 -11 33 -19
14z"/>
<path d="M3372 4684 c2 -9 12 -22 23 -28 11 -6 23 -15 27 -21 4 -6 8 -2 8 8 0
10 -8 17 -20 17 -18 0 -25 10 -21 33 0 4 -4 7 -10 7 -6 0 -9 -7 -7 -16z"/>
<path d="M3450 4690 c0 -5 5 -10 11 -10 5 0 7 5 4 10 -3 6 -8 10 -11 10 -2 0
-4 -4 -4 -10z"/>
<path d="M3418 4683 c7 -3 16 -2 19 1 4 3 -2 6 -13 5 -11 0 -14 -3 -6 -6z"/>
<path d="M3480 4675 c0 -8 4 -15 10 -15 5 0 7 7 4 15 -4 8 -8 15 -10 15 -2 0
-4 -7 -4 -15z"/>
<path d="M3452 4631 c2 -7 7 -12 11 -12 12 1 9 15 -3 20 -7 2 -11 -2 -8 -8z"/>
<path d="M3506 4605 c-10 -8 -22 -12 -26 -10 -4 3 -15 -4 -25 -15 -15 -17 -16
-23 -5 -33 10 -10 12 -9 7 5 -3 10 -1 21 6 25 19 12 47 14 47 3 0 -6 3 -10 8
-10 4 0 7 11 7 25 0 14 0 25 0 25 0 0 -9 -7 -19 -15z"/>
<path d="M3528 4553 c7 -3 16 -2 19 1 4 3 -2 6 -13 5 -11 0 -14 -3 -6 -6z"/>
<path d="M1740 4138 c-55 -17 -75 -31 -137 -93 -40 -40 -73 -79 -73 -86 0 -9
8 -6 21 8 l22 21 22 -41 c81 -156 348 -180 472 -43 21 22 45 52 54 65 l15 24
22 -44 c14 -29 21 -37 22 -24 0 38 -49 93 -135 150 -131 88 -190 100 -305 63z
m193 -17 c8 -8 7 -11 -6 -11 -9 0 -17 -5 -17 -10 0 -6 12 -8 28 -4 17 4 23 2
14 -3 -7 -6 -10 -17 -6 -28 6 -14 4 -16 -6 -10 -10 6 -11 0 -6 -28 5 -24 3
-36 -6 -39 -10 -4 -10 -8 -1 -20 10 -12 10 -15 -2 -15 -8 0 -11 5 -8 10 3 5 0
8 -8 5 -8 -3 -14 -17 -13 -31 0 -28 -10 -35 -22 -16 -3 6 0 15 7 20 10 6 7 9
-11 9 l-25 1 24 10 c33 13 50 38 51 72 0 66 -47 95 -120 73 -25 -7 -46 -20
-48 -29 -2 -9 8 -40 23 -70 21 -47 29 -54 48 -50 21 4 22 4 3 -11 -16 -13 -18
-18 -7 -29 11 -9 14 -9 18 1 3 6 9 12 14 12 6 0 7 -5 3 -12 -4 -6 -3 -8 4 -4
6 3 13 2 17 -4 11 -18 -59 -11 -92 10 -52 31 -67 65 -64 141 2 42 32 71 82 78
50 8 115 -1 132 -18z m-226 -50 c-15 -55 4 -111 50 -151 34 -30 40 -32 96 -28
52 4 64 9 88 36 36 40 52 97 39 141 -8 28 -7 32 6 27 26 -10 134 -88 134 -97
0 -24 -91 -116 -139 -141 -45 -24 -65 -28 -130 -28 -117 1 -204 46 -246 129
l-24 48 42 40 c39 37 73 62 88 63 3 0 2 -18 -4 -39z m141 22 c-26 -4 -36 -25
-29 -65 0 -5 -3 -8 -9 -8 -5 0 -10 -5 -10 -11 0 -6 7 -8 16 -5 9 4 13 2 8 -5
-4 -6 0 -15 7 -20 10 -6 11 -9 2 -9 -17 0 -53 37 -53 54 0 8 7 16 15 20 8 3
15 14 15 24 0 25 9 32 39 31 l26 -2 -27 -4z m-56 -28 c0 -5 -5 -11 -11 -13 -6
-2 -11 4 -11 13 0 9 5 15 11 13 6 -2 11 -8 11 -13z"/>
<path d="M1580 3859 c0 -16 58 -67 101 -90 47 -24 172 -44 195 -31 12 7 -5 11
-57 14 -88 6 -152 31 -202 82 -21 20 -37 32 -37 25z"/>
<path d="M3143 3821 c-49 -44 -124 -71 -200 -71 -36 0 -52 -4 -47 -11 9 -15
115 -2 179 22 29 11 68 36 90 59 49 51 34 52 -22 1z"/>
<path d="M2490 3405 c0 -8 7 -15 15 -15 8 0 15 7 15 15 0 8 -7 15 -15 15 -8 0
-15 -7 -15 -15z"/>
<path d="M2601 3304 c0 -11 3 -14 6 -6 3 7 2 16 -1 19 -3 4 -6 -2 -5 -13z"/>
<path d="M2191 3293 c0 -10 3 -13 5 -6 4 8 23 2 61 -18 47 -25 66 -29 132 -29
75 0 149 22 165 49 4 6 12 11 17 11 6 0 7 -4 4 -10 -3 -5 -1 -10 4 -10 6 0 11
7 11 15 0 22 -29 18 -70 -10 -67 -46 -197 -46 -265 1 -42 28 -65 31 -64 7z"/>
<path d="M2235 3020 c-11 -5 -48 -33 -83 -64 -77 -68 -130 -81 -207 -51 -16 6
-18 5 -8 -5 19 -20 93 -29 145 -17 27 6 49 9 51 6 1 -2 20 -30 40 -62 50 -76
92 -96 202 -97 133 0 159 12 245 118 l36 43 44 -10 c50 -11 125 -1 143 19 10
10 8 11 -8 5 -77 -30 -129 -17 -216 55 -39 33 -82 63 -95 66 -35 9 -85 -3
-110 -27 l-21 -20 -38 25 c-38 26 -83 32 -120 16z m82 -11 c15 -6 38 -20 50
-31 l22 -21 31 27 c41 34 73 41 111 26 l31 -13 -24 -14 c-12 -8 -15 -12 -6 -9
10 3 20 1 23 -4 4 -6 -2 -10 -12 -10 -15 0 -16 -2 -3 -10 14 -9 7 -14 -13 -11
-5 1 -6 -3 -2 -9 8 -13 -1 -13 -25 0 -15 8 -22 6 -32 -8 -30 -43 -74 -51 -139
-26 -29 12 -37 19 -27 25 8 6 0 6 -19 3 -21 -4 -33 -3 -33 5 0 7 -8 8 -22 2
-13 -4 -41 -11 -63 -15 l-40 -8 25 27 c30 32 109 85 126 85 7 0 25 -5 41 -11z
m265 -61 c-15 -15 -24 -6 -16 16 5 12 10 14 17 7 8 -8 8 -14 -1 -23z m23 -18
c-3 -5 -16 -10 -28 -9 -20 1 -20 2 3 9 14 4 26 8 28 9 2 1 0 -3 -3 -9z m35 -5
c10 -12 10 -15 -4 -15 -9 0 -16 7 -16 15 0 8 2 15 4 15 2 0 9 -7 16 -15z
m-341 -31 c45 -18 45 -38 1 -40 -17 -1 -28 1 -26 4 12 11 -16 42 -37 41 l-22
0 23 -9 c12 -5 22 -15 22 -21 0 -7 -3 -9 -7 -6 -3 4 -16 -1 -27 -10 -17 -15
-18 -15 -8 -2 10 14 10 18 -2 22 -10 4 -13 1 -9 -9 3 -7 -1 -14 -8 -14 -7 0
-9 -3 -5 -7 4 -5 20 -8 34 -8 19 0 28 -6 30 -20 9 -44 52 -56 52 -14 0 10 7
19 15 19 18 0 20 -17 3 -23 -21 -8 8 -31 41 -33 16 -1 34 -5 40 -9 7 -3 11 2
11 15 0 11 -6 20 -12 19 -7 -1 -22 0 -33 1 -14 2 -12 4 10 9 38 9 71 -2 67
-23 -2 -9 4 -16 13 -16 10 0 13 5 9 12 -5 7 -2 9 8 5 9 -3 21 0 27 6 6 6 14 7
18 3 10 -10 -13 -24 -62 -37 -53 -15 -172 -6 -213 15 -26 14 -102 110 -102
130 0 19 102 19 149 0z m226 4 c-22 -6 -43 -15 -46 -20 -3 -5 -10 -10 -15 -9
-20 1 -54 -12 -54 -20 0 -14 -30 -10 -46 6 -13 12 -13 15 -2 15 8 0 20 -6 27
-12 11 -10 13 -10 7 0 -5 7 -1 12 11 12 10 0 36 9 58 19 22 11 54 19 70 19 27
0 26 -1 -10 -10z m72 6 c-3 -3 -12 -4 -19 -1 -8 3 -5 6 6 6 11 1 17 -2 13 -5z
m-57 -29 c0 -9 -6 -12 -17 -8 -12 5 -15 2 -10 -9 4 -11 -1 -18 -14 -21 -31 -8
-20 21 16 41 26 15 25 15 25 -3z m-30 -55 c0 -5 -5 -10 -11 -10 -5 0 -7 5 -4
10 3 6 8 10 11 10 2 0 4 -4 4 -10z m-215 -10 c3 -5 1 -10 -4 -10 -6 0 -11 5
-11 10 0 6 2 10 4 10 3 0 8 -4 11 -10z"/>
<path d="M2420 2919 c0 -5 5 -7 10 -4 6 3 10 8 10 11 0 2 -4 4 -10 4 -5 0 -10
-5 -10 -11z"/>
<path d="M2288 2873 c7 -3 16 -2 19 1 4 3 -2 6 -13 5 -11 0 -14 -3 -6 -6z"/>
<path d="M1470 5360 c0 -5 5 -10 10 -10 6 0 10 5 10 10 0 6 -4 10 -10 10 -5 0
-10 -4 -10 -10z"/>
<path d="M1694 4905 c3 -10 -1 -15 -12 -16 -14 0 -14 -2 3 -8 11 -4 27 -6 36
-4 16 4 15 7 -2 24 -23 23 -33 24 -25 4z"/>
<path d="M3520 5110 c-8 -5 -10 -10 -5 -10 6 0 17 5 25 10 8 5 11 10 5 10 -5
0 -17 -5 -25 -10z"/>
<path d="M3234 4745 c8 -8 16 -15 19 -15 2 0 4 7 4 15 0 8 -9 15 -19 15 -17 0
-18 -2 -4 -15z"/>
<path d="M1486 4745 c-9 -26 -7 -32 5 -12 6 10 9 21 6 23 -2 3 -7 -2 -11 -11z"/>
<path d="M1210 4656 c0 -2 9 -6 20 -9 11 -3 20 -1 20 4 0 5 -9 9 -20 9 -11 0
-20 -2 -20 -4z"/>
<path d="M1235 4621 c-3 -6 -12 -8 -20 -4 -8 3 -15 0 -15 -6 0 -6 7 -11 15
-11 18 0 19 -12 3 -28 -9 -9 -8 -12 7 -12 10 0 15 3 12 7 -4 3 0 17 8 29 8 13
11 25 6 29 -5 3 -12 1 -16 -4z"/>
<path d="M1090 4348 c0 -9 -6 -19 -12 -21 -7 -3 -8 -6 -3 -6 6 0 17 4 25 9 12
7 12 12 2 22 -9 9 -12 9 -12 -4z"/>
<path d="M1070 4270 c0 -5 5 -10 10 -10 6 0 10 5 10 10 0 6 -4 10 -10 10 -5 0
-10 -4 -10 -10z"/>
<path d="M1046 4198 c7 -11 34 -10 34 1 0 6 -9 9 -19 8 -11 0 -17 -5 -15 -9z"/>
<path d="M1070 4170 c0 -5 -7 -10 -15 -10 -8 0 -15 -4 -15 -10 0 -17 25 -11
38 10 7 12 8 20 2 20 -5 0 -10 -4 -10 -10z"/>
<path d="M3245 4254 c-136 -18 -281 -50 -395 -86 -100 -32 -107 -35 -98 -44 3
-3 23 2 44 11 62 26 249 73 379 96 153 26 430 36 586 20 325 -34 654 -156 897
-333 28 -21 52 -34 52 -29 0 14 -109 90 -215 149 -189 106 -425 184 -654 216
-138 20 -454 20 -596 0z"/>
<path d="M4840 3776 c0 -3 44 -50 98 -103 100 -100 157 -176 194 -261 12 -26
23 -42 25 -35 11 30 -87 184 -176 276 -51 54 -141 132 -141 123z"/>
<path d="M5220 2987 c0 -33 -7 -67 -20 -92 -11 -22 -20 -59 -20 -83 0 -52 19
-132 31 -132 11 0 12 -4 -6 54 -19 63 -19 120 0 136 8 7 17 26 19 44 15 96 17
126 7 126 -7 0 -11 -22 -11 -53z"/>
<path d="M4448 2963 c-53 -4 -58 -6 -58 -28 0 -25 24 -55 43 -55 7 0 35 7 62
15 47 15 120 20 175 12 30 -4 59 -19 118 -59 24 -17 46 -27 50 -23 9 9 -67 78
-127 116 -47 30 -80 33 -263 22z m278 -51 c-2 -1 -22 6 -44 16 -23 10 -39 22
-36 25 4 3 24 -4 45 -16 21 -12 36 -23 35 -25z m-136 28 c0 -5 -9 -10 -20 -10
-11 0 -20 5 -20 10 0 6 9 10 20 10 11 0 20 -4 20 -10z m37 4 c-3 -3 -12 -4
-19 -1 -8 3 -5 6 6 6 11 1 17 -2 13 -5z"/>
<path d="M4486 2834 c-26 -18 -19 -22 27 -14 23 5 44 6 47 4 12 -12 -21 -40
-59 -49 -50 -12 -44 -25 11 -25 30 0 38 -4 38 -19 0 -10 9 -30 20 -44 l20 -26
-25 -27 c-32 -34 -33 -96 -4 -174 12 -30 21 -67 22 -82 0 -17 8 -30 23 -37 36
-16 43 -66 18 -126 -7 -18 -6 -18 9 -6 9 7 17 21 17 30 0 24 123 -165 150
-231 13 -32 27 -58 32 -58 18 0 -45 135 -111 235 -39 59 -71 115 -71 123 0 9
-7 23 -16 33 -23 25 -74 176 -74 218 0 21 6 44 13 53 12 16 94 69 160 103 20
11 37 22 37 26 0 12 -57 55 -101 76 -52 25 -160 35 -183 17z m170 -33 c48 -22
65 -41 35 -41 -42 0 -121 22 -121 34 0 31 28 33 86 7z m-73 -59 c-10 -6 -9
-15 2 -37 l15 -30 -20 24 c-25 29 -26 51 -2 51 12 0 13 -3 5 -8z m104 -32
c-26 -16 -50 -30 -52 -30 -3 0 -5 14 -5 30 0 29 1 30 52 30 l52 0 -47 -30z"/>
<path d="M5250 2583 c0 -7 5 -24 11 -40 6 -15 17 -50 24 -78 11 -42 14 -45 14
-19 1 17 -6 53 -15 80 -17 49 -34 78 -34 57z"/>
<path d="M4550 2190 c-12 -8 -11 -10 8 -10 12 0 22 5 22 10 0 13 -11 13 -30 0z"/>
<path d="M4446 2162 c-3 -6 -1 -14 5 -17 14 -9 20 -2 10 14 -6 8 -11 9 -15 3z"/>
<path d="M4830 1835 c0 -24 -11 -74 -24 -110 -13 -36 -20 -65 -15 -65 4 0 16
24 27 53 24 65 38 167 23 167 -6 0 -11 -20 -11 -45z"/>
<path d="M4612 820 c-228 -169 -523 -275 -867 -312 -66 -7 -107 -14 -91 -16
16 -2 75 1 130 8 226 26 434 84 608 170 130 64 331 200 317 214 -2 3 -46 -26
-97 -64z"/>
<path d="M3134 518 c-4 -6 -3 -9 2 -6 5 3 52 -1 104 -8 52 -7 142 -12 200 -12
l105 1 -123 8 c-68 4 -154 12 -192 18 -86 14 -87 14 -96 -1z"/>
<path d="M3808 3713 c-6 -22 16 -41 27 -23 4 6 2 10 -4 10 -5 0 -11 8 -13 18
-3 14 -5 13 -10 -5z"/>
<path d="M3835 3540 c-3 -6 1 -7 9 -4 18 7 21 14 7 14 -6 0 -13 -4 -16 -10z"/>
<path d="M3848 3463 c7 -3 16 -2 19 1 4 3 -2 6 -13 5 -11 0 -14 -3 -6 -6z"/>
<path d="M3774 3312 c-5 -4 -10 -15 -12 -25 -3 -17 -2 -17 22 -1 14 9 26 18
26 19 0 7 -28 12 -36 7z"/>
<path d="M848 2889 c-33 -12 -42 -34 -23 -53 13 -13 13 -15 -3 -20 -13 -4 -12
-4 3 -3 14 2 20 10 20 29 0 28 14 52 16 27 1 -8 1 -17 0 -21 -2 -13 6 -9 20 9
10 11 10 14 2 9 -7 -4 -13 -2 -13 3 0 6 9 11 19 11 11 0 23 5 26 10 8 13 -31
12 -67 -1z"/>
<path d="M1421 2508 c-5 -13 -5 -24 0 -26 5 -2 6 -8 3 -14 -4 -6 -12 -1 -19
12 l-13 23 -7 -23 c-5 -15 -2 -26 6 -32 11 -8 11 -9 -1 -5 -15 4 -50 -32 -50
-51 0 -6 -14 -13 -30 -17 -31 -7 -55 -36 -42 -50 4 -5 -1 -5 -10 -2 -10 3 -20
2 -22 -2 -6 -9 29 -7 62 4 12 4 22 12 22 17 0 5 -10 6 -22 3 l-23 -7 23 17
c22 16 48 12 37 -6 -4 -5 -1 -9 4 -9 6 0 11 8 11 18 0 14 2 15 10 2 8 -13 10
-13 10 1 0 12 7 15 24 12 19 -4 25 0 30 22 6 23 9 25 23 13 9 -7 14 -8 11 -3
-4 6 -3 17 3 25 6 10 9 11 9 3 0 -7 4 -13 9 -13 5 0 7 9 4 20 -4 15 -11 19
-26 14 -17 -5 -19 -3 -13 20 4 16 2 26 -4 26 -6 0 -8 5 -5 10 4 6 10 8 15 5 5
-3 11 -1 15 5 3 5 -3 10 -15 10 -12 0 -24 -9 -29 -22z m-39 -110 c-7 -7 -12
-8 -12 -2 0 6 3 14 7 17 3 4 9 5 12 2 2 -3 -1 -11 -7 -17z"/>
<path d="M3105 2390 c-3 -5 -1 -10 4 -10 6 0 11 5 11 10 0 6 -2 10 -4 10 -3 0
-8 -4 -11 -10z"/>
<path d="M3115 2339 c-4 -6 -5 -12 -2 -15 2 -3 7 2 10 11 7 17 1 20 -8 4z"/>
<path d="M3150 2240 c0 -5 7 -10 16 -10 8 0 12 5 9 10 -3 6 -10 10 -16 10 -5
0 -9 -4 -9 -10z"/>
<path d="M3140 2165 c0 -8 2 -15 4 -15 2 0 6 7 10 15 3 8 1 15 -4 15 -6 0 -10
-7 -10 -15z"/>
<path d="M3320 1936 c0 -2 8 -10 18 -17 15 -13 16 -12 3 4 -13 16 -21 21 -21
13z"/>
<path d="M3340 1892 c0 -9 49 -47 61 -47 5 0 9 5 8 10 0 6 -7 9 -14 7 -8 -1
-19 7 -25 18 -10 19 -30 28 -30 12z"/>
<path d="M2537 2214 c-3 -4 0 -13 8 -20 15 -15 75 -19 75 -6 0 17 -13 22 -27
10 -7 -6 -17 -8 -20 -4 -4 4 -1 11 7 16 9 6 10 10 3 10 -6 0 -15 -5 -19 -11
-5 -8 -8 -8 -13 0 -4 6 -10 8 -14 5z"/>
<path d="M4388 1987 c-3 -17 0 -23 14 -23 21 0 22 5 4 29 -13 16 -14 16 -18
-6z"/>
<path d="M4386 1892 c-11 -18 12 -51 40 -58 31 -8 47 5 33 26 -9 13 -10 12 -5
-2 5 -15 3 -16 -14 -5 -11 6 -20 18 -20 25 0 7 -4 11 -9 8 -5 -4 -11 -1 -13 6
-3 9 -6 9 -12 0z"/>
<path d="M5021 5014 c-2 -46 -34 -126 -63 -160 -38 -43 -71 -60 -145 -78 l-58
-13 50 -7 c66 -10 134 -48 164 -92 13 -19 32 -63 42 -97 10 -34 18 -55 18 -46
2 42 35 123 63 155 38 43 76 64 148 80 30 6 46 12 34 13 -46 2 -126 34 -160
63 -43 38 -60 70 -78 145 -8 32 -15 49 -15 37z m80 -193 c12 -9 40 -26 61 -37
l40 -21 -32 -12 c-18 -6 -37 -8 -43 -4 -5 3 -7 1 -3 -5 3 -6 -7 -19 -24 -28
-16 -10 -30 -24 -30 -31 0 -20 -35 -34 -49 -20 -7 7 -11 8 -9 2 8 -24 -15 -11
-53 30 -22 24 -57 49 -76 56 l-36 12 39 19 c51 25 98 71 120 119 l17 40 29
-52 c15 -29 38 -59 49 -68z m-66 -212 c-7 -20 -8 -21 -17 -5 -5 9 -7 24 -4 33
10 26 29 -1 21 -28z"/>
<path d="M5130 4771 c0 -6 4 -13 10 -16 6 -3 7 1 4 9 -7 18 -14 21 -14 7z"/>
<path d="M3660 2999 c0 -5 5 -7 10 -4 6 3 10 8 10 11 0 2 -4 4 -10 4 -5 0 -10
-5 -10 -11z"/>
<path d="M3676 2981 c-4 -7 -5 -15 -2 -18 9 -9 19 4 14 18 -4 11 -6 11 -12 0z"/>
<path d="M1566 1155 c-9 -51 -43 -112 -78 -138 -14 -11 -50 -25 -80 -32 l-53
-12 40 -8 c92 -17 145 -69 170 -163 l12 -47 7 40 c16 92 78 154 170 170 l41 7
-53 13 c-90 21 -132 64 -155 155 l-14 55 -7 -40z m68 -134 c14 -13 23 -28 20
-32 -3 -5 2 -6 10 -3 8 3 22 1 31 -4 14 -7 10 -13 -26 -30 -23 -12 -46 -19
-51 -16 -5 4 -8 0 -7 -7 2 -8 -6 -32 -18 -54 l-21 -39 -21 41 c-20 40 -55 72
-96 87 -18 7 -18 9 10 23 43 22 82 60 96 95 l12 30 18 -33 c9 -19 29 -45 43
-58z"/>
<path d="M3734 1116 c-8 -22 3 -33 18 -18 9 9 9 15 0 24 -9 9 -13 7 -18 -6z"/>
</g>
</svg>
